<svg width="115" height="115" viewBox="0 0 107 115" fill="none" xmlns="http://www.w3.org/2000/svg">
<g filter="url(#filter0_d)">
<path d="M66.928 67.84V74.176H41.536V69.136L54.496 56.896C55.872 55.584 56.8 54.464 57.28 53.536C57.76 52.576 58 51.632 58 50.704C58 49.36 57.536 48.336 56.608 47.632C55.712 46.896 54.384 46.528 52.624 46.528C51.152 46.528 49.824 46.816 48.64 47.392C47.456 47.936 46.464 48.768 45.664 49.888L40 46.24C41.312 44.288 43.12 42.768 45.424 41.68C47.728 40.56 50.368 40 53.344 40C55.84 40 58.016 40.416 59.872 41.248C61.76 42.048 63.216 43.2 64.24 44.704C65.296 46.176 65.824 47.92 65.824 49.936C65.824 51.76 65.44 53.472 64.672 55.072C63.904 56.672 62.416 58.496 60.208 60.544L52.48 67.84H66.928Z" fill="#AB78FF"/>
</g>
<defs>
<filter id="filter0_d" x="0" y="0" width="106.928" height="114.176" filterUnits="userSpaceOnUse" color-interpolation-filters="sRGB">
<feFlood flood-opacity="0" result="BackgroundImageFix"/>
<feColorMatrix in="SourceAlpha" type="matrix" values="0 0 0 0 0 0 0 0 0 0 0 0 0 0 0 0 0 0 127 0"/>
<feOffset/>
<feGaussianBlur stdDeviation="20"/>
<feColorMatrix type="matrix" values="0 0 0 0 0.670588 0 0 0 0 0.470588 0 0 0 0 1 0 0 0 0.6 0"/>
<feBlend mode="normal" in2="BackgroundImageFix" result="effect1_dropShadow"/>
<feBlend mode="normal" in="SourceGraphic" in2="effect1_dropShadow" result="shape"/>
</filter>
</defs>
</svg>
