<svg width="115" height="115" viewBox="0 0 107 115" fill="none" xmlns="http://www.w3.org/2000/svg">
<g filter="url(#filter0_d)">
<path d="M57.616 53.68C60.56 54.16 62.816 55.264 64.384 56.992C65.952 58.688 66.736 60.8 66.736 63.328C66.736 65.28 66.224 67.088 65.2 68.752C64.176 70.384 62.608 71.696 60.496 72.688C58.416 73.68 55.856 74.176 52.816 74.176C50.448 74.176 48.112 73.872 45.808 73.264C43.536 72.624 41.6 71.728 40 70.576L43.024 64.624C44.304 65.584 45.776 66.336 47.44 66.88C49.136 67.392 50.864 67.648 52.624 67.648C54.576 67.648 56.112 67.28 57.232 66.544C58.352 65.776 58.912 64.704 58.912 63.328C58.912 60.576 56.816 59.2 52.624 59.2H49.072V54.064L55.984 46.24H41.68V40H65.2V45.04L57.616 53.68Z" fill="#AB78FF"/>
</g>
<defs>
<filter id="filter0_d" x="0" y="0" width="106.736" height="114.176" filterUnits="userSpaceOnUse" color-interpolation-filters="sRGB">
<feFlood flood-opacity="0" result="BackgroundImageFix"/>
<feColorMatrix in="SourceAlpha" type="matrix" values="0 0 0 0 0 0 0 0 0 0 0 0 0 0 0 0 0 0 127 0"/>
<feOffset/>
<feGaussianBlur stdDeviation="20"/>
<feColorMatrix type="matrix" values="0 0 0 0 0.670588 0 0 0 0 0.470588 0 0 0 0 1 0 0 0 0.6 0"/>
<feBlend mode="normal" in2="BackgroundImageFix" result="effect1_dropShadow"/>
<feBlend mode="normal" in="SourceGraphic" in2="effect1_dropShadow" result="shape"/>
</filter>
</defs>
</svg>
