<svg width="115" height="115" viewBox="0 0 108 115" fill="none" xmlns="http://www.w3.org/2000/svg">
<g filter="url(#filter0_d)">
<path d="M56.176 53.104C58.32 53.104 60.272 53.536 62.032 54.4C63.792 55.264 65.184 56.496 66.208 58.096C67.232 59.664 67.744 61.488 67.744 63.568C67.744 65.808 67.184 67.776 66.064 69.472C64.944 71.168 63.408 72.48 61.456 73.408C59.536 74.304 57.392 74.752 55.024 74.752C50.32 74.752 46.64 73.312 43.984 70.432C41.328 67.552 40 63.44 40 58.096C40 54.288 40.72 51.024 42.16 48.304C43.6 45.584 45.6 43.52 48.16 42.112C50.752 40.704 53.744 40 57.136 40C58.928 40 60.64 40.208 62.272 40.624C63.936 41.008 65.344 41.568 66.496 42.304L63.616 48.016C61.952 46.896 59.856 46.336 57.328 46.336C54.48 46.336 52.224 47.168 50.56 48.832C48.896 50.496 48 52.912 47.872 56.08C49.856 54.096 52.624 53.104 56.176 53.104ZM54.592 68.944C56.256 68.944 57.6 68.496 58.624 67.6C59.68 66.704 60.208 65.488 60.208 63.952C60.208 62.416 59.68 61.2 58.624 60.304C57.6 59.376 56.224 58.912 54.496 58.912C52.8 58.912 51.408 59.392 50.32 60.352C49.232 61.28 48.688 62.48 48.688 63.952C48.688 65.424 49.216 66.624 50.272 67.552C51.328 68.48 52.768 68.944 54.592 68.944Z" fill="#AB78FF"/>
</g>
<defs>
<filter id="filter0_d" x="0" y="0" width="107.744" height="114.752" filterUnits="userSpaceOnUse" color-interpolation-filters="sRGB">
<feFlood flood-opacity="0" result="BackgroundImageFix"/>
<feColorMatrix in="SourceAlpha" type="matrix" values="0 0 0 0 0 0 0 0 0 0 0 0 0 0 0 0 0 0 127 0"/>
<feOffset/>
<feGaussianBlur stdDeviation="20"/>
<feColorMatrix type="matrix" values="0 0 0 0 0.670588 0 0 0 0 0.470588 0 0 0 0 1 0 0 0 0.6 0"/>
<feBlend mode="normal" in2="BackgroundImageFix" result="effect1_dropShadow"/>
<feBlend mode="normal" in="SourceGraphic" in2="effect1_dropShadow" result="shape"/>
</filter>
</defs>
</svg>
