<svg width="115" height="115" viewBox="0 0 107 115" fill="none" xmlns="http://www.w3.org/2000/svg"><g filter="url(#filter0_d)"><path d="M66.928 67.84v6.336H41.536v-5.04l12.96-12.24c1.376-1.312 2.304-2.432 2.784-3.36.48-.96.72-1.904.72-2.832 0-1.344-.464-2.368-1.392-3.072-.896-.736-2.224-1.104-3.984-1.104-1.472 0-2.8.288-3.984.864-1.184.544-2.176 1.376-2.976 2.496L40 46.24c1.312-1.952 3.12-3.472 5.424-4.56 2.304-1.12 4.944-1.68 7.92-1.68 2.496 0 4.672.416 6.528 1.248 1.888.8 3.344 1.952 4.368 3.456 1.056 1.472 1.584 3.216 1.584 5.232 0 1.824-.384 3.536-1.152 5.136-.768 1.6-2.256 3.424-4.464 5.472L52.48 67.84h14.448z" fill="#AB78FF"/></g><defs><filter id="filter0_d" x="0" y="0" width="106.928" height="114.176" filterUnits="userSpaceOnUse" color-interpolation-filters="sRGB"><feFlood flood-opacity="0" result="BackgroundImageFix"/><feColorMatrix in="SourceAlpha" values="0 0 0 0 0 0 0 0 0 0 0 0 0 0 0 0 0 0 127 0"/><feOffset/><feGaussianBlur stdDeviation="20"/><feColorMatrix values="0 0 0 0 0.670588 0 0 0 0 0.470588 0 0 0 0 1 0 0 0 0.6 0"/><feBlend in2="BackgroundImageFix" result="effect1_dropShadow"/><feBlend in="SourceGraphic" in2="effect1_dropShadow" result="shape"/></filter></defs></svg>