<svg width="115" height="115" viewBox="0 0 107 115" fill="none" xmlns="http://www.w3.org/2000/svg"><g filter="url(#filter0_d)"><path d="M57.616 53.68c2.944.48 5.2 1.584 6.768 3.312 1.568 1.696 2.352 3.808 2.352 6.336 0 1.952-.512 3.76-1.536 5.424-1.024 1.632-2.592 2.944-4.704 3.936-2.08.992-4.64 1.488-7.68 1.488-2.368 0-4.704-.304-7.008-.912-2.272-.64-4.208-1.536-5.808-2.688l3.024-5.952c1.28.96 2.752 1.712 4.416 2.256 1.696.512 3.424.768 5.184.768 1.952 0 3.488-.368 4.608-1.104 1.12-.768 1.68-1.84 1.68-3.216 0-2.752-2.096-4.128-6.288-4.128h-3.552v-5.136l6.912-7.824H41.68V40H65.2v5.04l-7.584 8.64z" fill="#AB78FF"/></g><defs><filter id="filter0_d" x="0" y="0" width="106.736" height="114.176" filterUnits="userSpaceOnUse" color-interpolation-filters="sRGB"><feFlood flood-opacity="0" result="BackgroundImageFix"/><feColorMatrix in="SourceAlpha" values="0 0 0 0 0 0 0 0 0 0 0 0 0 0 0 0 0 0 127 0"/><feOffset/><feGaussianBlur stdDeviation="20"/><feColorMatrix values="0 0 0 0 0.670588 0 0 0 0 0.470588 0 0 0 0 1 0 0 0 0.6 0"/><feBlend in2="BackgroundImageFix" result="effect1_dropShadow"/><feBlend in="SourceGraphic" in2="effect1_dropShadow" result="shape"/></filter></defs></svg>