<svg width="115" height="115" viewBox="0 0 107 115" fill="none" xmlns="http://www.w3.org/2000/svg"><g filter="url(#filter0_d)"><path d="M52.912 52.624c4.736 0 8.224.944 10.464 2.832 2.272 1.888 3.408 4.416 3.408 7.584 0 2.048-.512 3.92-1.536 5.616-1.024 1.664-2.592 3.008-4.704 4.032-2.08.992-4.656 1.488-7.728 1.488-2.368 0-4.704-.304-7.008-.912-2.272-.64-4.208-1.536-5.808-2.688l3.072-5.952c1.28.96 2.752 1.712 4.416 2.256 1.664.512 3.376.768 5.136.768 1.952 0 3.488-.384 4.608-1.152 1.12-.768 1.68-1.84 1.68-3.216 0-1.44-.592-2.528-1.776-3.264-1.152-.736-3.168-1.104-6.048-1.104h-8.592L44.224 40H64.72v6.24H50.704l-.528 6.384h2.736z" fill="#AB78FF"/></g><defs><filter id="filter0_d" x="0" y="0" width="106.784" height="114.176" filterUnits="userSpaceOnUse" color-interpolation-filters="sRGB"><feFlood flood-opacity="0" result="BackgroundImageFix"/><feColorMatrix in="SourceAlpha" values="0 0 0 0 0 0 0 0 0 0 0 0 0 0 0 0 0 0 127 0"/><feOffset/><feGaussianBlur stdDeviation="20"/><feColorMatrix values="0 0 0 0 0.670588 0 0 0 0 0.470588 0 0 0 0 1 0 0 0 0.6 0"/><feBlend in2="BackgroundImageFix" result="effect1_dropShadow"/><feBlend in="SourceGraphic" in2="effect1_dropShadow" result="shape"/></filter></defs></svg>