<svg width="115" height="115" viewBox="0 0 108 115" fill="none" xmlns="http://www.w3.org/2000/svg"><g filter="url(#filter0_d)"><path d="M56.176 53.104c2.144 0 4.096.432 5.856 1.296 1.76.864 3.152 2.096 4.176 3.696 1.024 1.568 1.536 3.392 1.536 5.472 0 2.24-.56 4.208-1.68 5.904-1.12 1.696-2.656 3.008-4.608 3.936-1.92.896-4.064 1.344-6.432 1.344-4.704 0-8.384-1.44-11.04-4.32C41.328 67.552 40 63.44 40 58.096c0-3.808.72-7.072 2.16-9.792 1.44-2.72 3.44-4.784 6-6.192C50.752 40.704 53.744 40 57.136 40c1.792 0 3.504.208 5.136.624 1.664.384 3.072.944 4.224 1.68l-2.88 5.712c-1.664-1.12-3.76-1.68-6.288-1.68-2.848 0-5.104.832-6.768 2.496-1.664 1.664-2.56 4.08-2.688 7.248 1.984-1.984 4.752-2.976 8.304-2.976zm-1.584 15.84c1.664 0 3.008-.448 4.032-1.344 1.056-.896 1.584-2.112 1.584-3.648s-.528-2.752-1.584-3.648c-1.024-.928-2.4-1.392-4.128-1.392-1.696 0-3.088.48-4.176 1.44-1.088.928-1.632 2.128-1.632 3.6s.528 2.672 1.584 3.6c1.056.928 2.496 1.392 4.32 1.392z" fill="#AB78FF"/></g><defs><filter id="filter0_d" x="0" y="0" width="107.744" height="114.752" filterUnits="userSpaceOnUse" color-interpolation-filters="sRGB"><feFlood flood-opacity="0" result="BackgroundImageFix"/><feColorMatrix in="SourceAlpha" values="0 0 0 0 0 0 0 0 0 0 0 0 0 0 0 0 0 0 127 0"/><feOffset/><feGaussianBlur stdDeviation="20"/><feColorMatrix values="0 0 0 0 0.670588 0 0 0 0 0.470588 0 0 0 0 1 0 0 0 0.6 0"/><feBlend in2="BackgroundImageFix" result="effect1_dropShadow"/><feBlend in="SourceGraphic" in2="effect1_dropShadow" result="shape"/></filter></defs></svg>