<svg width="782" height="602" viewBox="0 0 782 602" fill="none" xmlns="http://www.w3.org/2000/svg">
<path d="M609.243 305.049H795.345L276.532 538.217H90.4307L609.243 305.049Z" fill="url(#paint0_linear)"/>
<g filter="url(#filter0_d)">
<circle cx="139.086" cy="241.551" r="24.649" fill="url(#paint1_linear)"/>
</g>
<path d="M138.629 301.804V263.918M138.629 226.031V250.68M138.629 263.918L154.149 250.68M138.629 263.918V250.68M138.629 250.68L127.218 236.986" stroke="url(#paint2_linear)" stroke-width="2" stroke-linecap="round" stroke-linejoin="round"/>
<g filter="url(#filter1_d)">
<circle cx="139.085" cy="211.424" r="26.4749" fill="url(#paint3_linear)"/>
</g>
<g filter="url(#filter2_d)">
<circle cx="116.262" cy="231.509" r="18.2585" fill="url(#paint4_linear)"/>
</g>
<g filter="url(#filter3_d)">
<circle cx="162.822" cy="247.942" r="13.6939" fill="url(#paint5_linear)"/>
</g>
<path d="M162.426 141.795C160.611 141.01 159.703 140.617 159.703 139.96C159.703 139.303 160.611 138.91 162.426 138.124L226.579 110.352C228.145 109.674 228.928 109.335 229.756 109.335C230.584 109.335 231.367 109.673 232.933 110.351L296.882 138.008C298.693 138.791 299.598 139.183 299.599 139.839C299.6 140.495 298.696 140.889 296.887 141.677L232.932 169.541C231.362 170.225 230.577 170.567 229.746 170.568C228.916 170.569 228.13 170.229 226.559 169.549L162.426 141.795Z" fill="#3B304F"/>
<path d="M159.493 139.842V291.692L229.649 322.187L299.753 291.692V139.842L229.649 170.195L159.493 139.842Z" fill="#1C122D"/>
<path d="M262.837 262.674C262.837 259.943 262.837 258.578 261.941 257.985C261.045 257.392 259.788 257.925 257.274 258.992L247.46 263.158C245.097 264.161 243.915 264.663 243.251 265.667C242.586 266.67 242.586 267.954 242.586 270.522V281.679C242.586 284.41 242.586 285.775 243.482 286.368C244.379 286.962 245.635 286.428 248.149 285.361L257.963 281.195C260.326 280.192 261.508 279.69 262.172 278.687C262.837 277.683 262.837 276.399 262.837 273.831V262.674Z" fill="#524668"/>
<path d="M252.339 261.02L257.192 258.927C259.714 257.839 260.974 257.295 261.875 257.888C262.776 258.48 262.776 259.853 262.776 262.599V275.414C262.776 276.806 262.776 277.502 262.32 277.797C261.864 278.093 261.229 277.808 259.959 277.24L256.808 275.828C255.531 275.256 254.893 274.97 254.285 274.631C253.816 274.37 253.36 274.086 252.92 273.779C252.348 273.38 251.812 272.932 250.738 272.036L250.738 272.036C247.946 269.703 246.549 268.537 246.245 267.233C246.016 266.252 246.166 265.221 246.665 264.345C247.327 263.182 248.998 262.461 252.339 261.02Z" fill="#605178"/>
<path d="M256.968 259.055L247.422 263.165C245.077 264.175 243.904 264.68 243.245 265.681C242.586 266.681 242.586 267.958 242.586 270.512V281.656L252.131 277.547C254.477 276.537 255.65 276.031 256.309 275.031C256.968 274.03 256.968 272.753 256.968 270.199V259.055Z" fill="#9286A4"/>
<path d="M289.108 251.803C289.108 249.072 289.108 247.707 288.212 247.114C287.316 246.521 286.059 247.054 283.545 248.121L273.732 252.287C271.368 253.29 270.187 253.792 269.522 254.796C268.858 255.799 268.858 257.083 268.858 259.651V270.808C268.858 273.539 268.858 274.904 269.754 275.497C270.65 276.09 271.907 275.557 274.421 274.49L284.234 270.324C286.598 269.321 287.779 268.819 288.444 267.815C289.108 266.812 289.108 265.528 289.108 262.96V251.803Z" fill="#524668"/>
<path d="M278.61 250.149L283.463 248.055C285.985 246.968 287.246 246.424 288.147 247.016C289.048 247.609 289.048 248.982 289.048 251.728V264.543C289.048 265.935 289.048 266.631 288.592 266.926C288.135 267.222 287.5 266.937 286.23 266.368L283.079 264.957C281.803 264.385 281.165 264.099 280.556 263.76C280.087 263.499 279.632 263.214 279.191 262.907C278.62 262.509 278.083 262.061 277.01 261.165L277.01 261.165C274.217 258.832 272.821 257.666 272.517 256.362C272.288 255.381 272.438 254.35 272.936 253.474C273.599 252.311 275.269 251.59 278.61 250.149Z" fill="#605178"/>
<path d="M283.239 248.184L273.694 252.293C271.348 253.303 270.175 253.809 269.516 254.809C268.858 255.81 268.858 257.087 268.858 259.641V270.785L278.403 266.675C280.749 265.665 281.922 265.16 282.58 264.159C283.239 263.159 283.239 261.882 283.239 259.328V248.184Z" fill="#9286A4"/>
<path d="M262.837 226.438C262.837 223.707 262.837 222.342 261.941 221.748C261.045 221.155 259.788 221.689 257.274 222.756L247.46 226.922C245.097 227.925 243.915 228.426 243.251 229.43C242.586 230.434 242.586 231.718 242.586 234.286V245.443C242.586 248.174 242.586 249.539 243.482 250.132C244.379 250.725 245.635 250.192 248.149 249.125L257.963 244.959C260.326 243.956 261.508 243.454 262.172 242.45C262.837 241.446 262.837 240.163 262.837 237.595V226.438Z" fill="#524668"/>
<path d="M252.339 224.784L257.192 222.69C259.714 221.602 260.974 221.059 261.875 221.651C262.776 222.244 262.776 223.617 262.776 226.363V239.178C262.776 240.57 262.776 241.265 262.32 241.561C261.864 241.857 261.229 241.572 259.959 241.003L256.808 239.592C255.531 239.02 254.893 238.734 254.285 238.395C253.816 238.134 253.36 237.849 252.92 237.542C252.348 237.144 251.812 236.696 250.738 235.799L250.738 235.799C247.946 233.467 246.549 232.301 246.245 230.997C246.016 230.016 246.166 228.984 246.665 228.109C247.327 226.946 248.998 226.225 252.339 224.784Z" fill="#605178"/>
<path d="M256.968 222.818L247.422 226.928C245.077 227.938 243.904 228.443 243.245 229.444C242.586 230.445 242.586 231.722 242.586 234.276V245.42L252.131 241.31C254.477 240.3 255.65 239.795 256.309 238.794C256.968 237.793 256.968 236.516 256.968 233.962V222.818Z" fill="#9286A4"/>
<path d="M289.108 215.567C289.108 212.836 289.108 211.47 288.212 210.877C287.316 210.284 286.059 210.818 283.545 211.885L273.732 216.05C271.368 217.054 270.187 217.555 269.522 218.559C268.858 219.563 268.858 220.847 268.858 223.414V234.572C268.858 237.302 268.858 238.668 269.754 239.261C270.65 239.854 271.907 239.321 274.421 238.254L284.234 234.088C286.598 233.085 287.779 232.583 288.444 231.579C289.108 230.575 289.108 229.291 289.108 226.724V215.567Z" fill="#524668"/>
<path d="M278.61 213.913L283.463 211.819C285.985 210.731 287.246 210.187 288.147 210.78C289.048 211.373 289.048 212.746 289.048 215.492V228.307C289.048 229.698 289.048 230.394 288.592 230.69C288.135 230.985 287.5 230.701 286.23 230.132L283.079 228.72C281.803 228.149 281.165 227.863 280.556 227.524C280.087 227.263 279.632 226.978 279.191 226.671C278.62 226.273 278.083 225.825 277.01 224.928L277.01 224.928C274.217 222.596 272.821 221.429 272.517 220.126C272.288 219.145 272.438 218.113 272.936 217.238C273.599 216.075 275.269 215.354 278.61 213.913Z" fill="#605178"/>
<path d="M283.239 211.947L273.694 216.057C271.348 217.067 270.175 217.572 269.516 218.573C268.858 219.574 268.858 220.851 268.858 223.405V234.549L278.403 230.439C280.749 229.429 281.922 228.924 282.58 227.923C283.239 226.922 283.239 225.645 283.239 223.091V211.947Z" fill="#9286A4"/>
<path d="M262.837 190.202C262.837 187.471 262.837 186.105 261.941 185.512C261.045 184.919 259.788 185.452 257.274 186.52L247.46 190.685C245.097 191.688 243.915 192.19 243.251 193.194C242.586 194.198 242.586 195.482 242.586 198.049V209.206C242.586 211.937 242.586 213.303 243.482 213.896C244.379 214.489 245.635 213.955 248.149 212.888L257.963 208.723C260.326 207.719 261.508 207.218 262.172 206.214C262.837 205.21 262.837 203.926 262.837 201.359V190.202Z" fill="#524668"/>
<path d="M252.339 188.547L257.192 186.454C259.714 185.366 260.974 184.822 261.875 185.415C262.776 186.007 262.776 187.381 262.776 190.127V202.942C262.776 204.333 262.776 205.029 262.32 205.325C261.864 205.62 261.229 205.336 259.959 204.767L256.808 203.355C255.531 202.784 254.893 202.498 254.285 202.159C253.816 201.898 253.36 201.613 252.92 201.306C252.348 200.908 251.812 200.459 250.738 199.563L250.738 199.563C247.946 197.23 246.549 196.064 246.245 194.761C246.016 193.779 246.166 192.748 246.665 191.873C247.327 190.709 248.998 189.989 252.339 188.547Z" fill="#605178"/>
<path d="M256.968 186.582L247.422 190.692C245.077 191.702 243.904 192.207 243.245 193.208C242.586 194.209 242.586 195.486 242.586 198.04V209.184L252.131 205.074C254.477 204.064 255.65 203.559 256.309 202.558C256.968 201.557 256.968 200.28 256.968 197.726V186.582Z" fill="#9286A4"/>
<path d="M289.108 179.33C289.108 176.6 289.108 175.234 288.212 174.641C287.316 174.048 286.059 174.581 283.545 175.648L273.732 179.814C271.368 180.817 270.187 181.319 269.522 182.323C268.858 183.327 268.858 184.611 268.858 187.178V198.335C268.858 201.066 268.858 202.432 269.754 203.025C270.65 203.618 271.907 203.084 274.421 202.017L284.234 197.852C286.598 196.848 287.779 196.347 288.444 195.343C289.108 194.339 289.108 193.055 289.108 190.488V179.33Z" fill="#524668"/>
<path d="M278.61 177.676L283.463 175.583C285.985 174.495 287.246 173.951 288.147 174.544C289.048 175.136 289.048 176.509 289.048 179.256V192.071C289.048 193.462 289.048 194.158 288.592 194.454C288.135 194.749 287.5 194.465 286.23 193.896L283.079 192.484C281.803 191.912 281.165 191.627 280.556 191.288C280.087 191.026 279.632 190.742 279.191 190.435C278.62 190.036 278.083 189.588 277.01 188.692L277.01 188.692C274.217 186.359 272.821 185.193 272.517 183.89C272.288 182.908 272.438 181.877 272.936 181.001C273.599 179.838 275.269 179.118 278.61 177.676Z" fill="#605178"/>
<path d="M283.239 175.711L273.694 179.821C271.348 180.831 270.175 181.336 269.516 182.337C268.858 183.338 268.858 184.615 268.858 187.169V198.313L278.403 194.203C280.749 193.193 281.922 192.688 282.58 191.687C283.239 190.686 283.239 189.409 283.239 186.855V175.711Z" fill="#9286A4"/>
<path d="M197.602 226.438C197.602 223.707 197.602 222.342 198.498 221.748C199.394 221.155 200.651 221.689 203.164 222.756L212.978 226.922C215.342 227.925 216.523 228.426 217.188 229.43C217.852 230.434 217.852 231.718 217.852 234.286V245.443C217.852 248.174 217.852 249.539 216.956 250.132C216.06 250.725 214.803 250.192 212.289 249.125L202.476 244.959C200.112 243.956 198.93 243.454 198.266 242.45C197.602 241.446 197.602 240.163 197.602 237.595V226.438Z" fill="#524668"/>
<path d="M208.099 224.784L203.246 222.69C200.724 221.602 199.463 221.059 198.562 221.651C197.661 222.244 197.661 223.617 197.661 226.363V239.178C197.661 240.57 197.661 241.265 198.117 241.561C198.574 241.857 199.209 241.572 200.479 241.003L203.63 239.592C204.906 239.02 205.544 238.734 206.153 238.395C206.622 238.134 207.077 237.849 207.518 237.542C208.089 237.144 208.626 236.696 209.699 235.799L209.699 235.799C212.492 233.467 213.888 232.301 214.192 230.997C214.421 230.016 214.271 228.984 213.773 228.109C213.11 226.946 211.44 226.225 208.099 224.784Z" fill="#605178"/>
<path d="M203.471 222.818L213.016 226.928C215.362 227.938 216.535 228.443 217.194 229.444C217.852 230.445 217.852 231.722 217.852 234.276V245.42L208.307 241.31C205.961 240.3 204.788 239.795 204.129 238.794C203.471 237.793 203.471 236.516 203.471 233.962V222.818Z" fill="#9286A4"/>
<path d="M171.331 215.567C171.331 212.836 171.331 211.47 172.227 210.877C173.123 210.284 174.38 210.818 176.894 211.885L186.708 216.05C189.071 217.054 190.253 217.555 190.917 218.559C191.582 219.563 191.582 220.847 191.582 223.414V234.572C191.582 237.302 191.582 238.668 190.686 239.261C189.789 239.854 188.533 239.321 186.019 238.254L176.205 234.088C173.842 233.085 172.66 232.583 171.996 231.579C171.331 230.575 171.331 229.291 171.331 226.724V215.567Z" fill="#524668"/>
<path d="M181.829 213.913L176.976 211.819C174.454 210.731 173.194 210.187 172.293 210.78C171.392 211.373 171.392 212.746 171.392 215.492V228.307C171.392 229.698 171.392 230.394 171.848 230.69C172.304 230.985 172.939 230.701 174.209 230.132L177.36 228.72C178.637 228.149 179.275 227.863 179.883 227.524C180.352 227.263 180.808 226.978 181.248 226.671C181.82 226.273 182.356 225.825 183.43 224.928L183.43 224.928C186.222 222.596 187.619 221.429 187.923 220.126C188.152 219.145 188.002 218.113 187.503 217.238C186.841 216.075 185.17 215.354 181.829 213.913Z" fill="#605178"/>
<path d="M177.2 211.947L186.746 216.057C189.091 217.067 190.264 217.572 190.923 218.573C191.582 219.574 191.582 220.851 191.582 223.405V234.549L182.037 230.439C179.691 229.429 178.518 228.924 177.859 227.923C177.2 226.922 177.2 225.645 177.2 223.091V211.947Z" fill="#9286A4"/>
<path d="M197.602 190.202C197.602 187.471 197.602 186.105 198.498 185.512C199.394 184.919 200.651 185.452 203.164 186.52L212.978 190.685C215.342 191.688 216.523 192.19 217.188 193.194C217.852 194.198 217.852 195.482 217.852 198.049V209.206C217.852 211.937 217.852 213.303 216.956 213.896C216.06 214.489 214.803 213.955 212.289 212.888L202.476 208.723C200.112 207.719 198.93 207.218 198.266 206.214C197.602 205.21 197.602 203.926 197.602 201.359V190.202Z" fill="#524668"/>
<path d="M208.099 188.547L203.246 186.454C200.724 185.366 199.463 184.822 198.562 185.415C197.661 186.007 197.661 187.381 197.661 190.127V202.942C197.661 204.333 197.661 205.029 198.117 205.325C198.574 205.62 199.209 205.336 200.479 204.767L203.63 203.355C204.906 202.784 205.544 202.498 206.153 202.159C206.622 201.898 207.077 201.613 207.518 201.306C208.089 200.908 208.626 200.459 209.699 199.563L209.699 199.563C212.492 197.23 213.888 196.064 214.192 194.761C214.421 193.779 214.271 192.748 213.773 191.873C213.11 190.709 211.44 189.989 208.099 188.547Z" fill="#605178"/>
<path d="M203.471 186.582L213.016 190.692C215.362 191.702 216.535 192.207 217.194 193.208C217.852 194.209 217.852 195.486 217.852 198.04V209.184L208.307 205.074C205.961 204.064 204.788 203.559 204.129 202.558C203.471 201.557 203.471 200.28 203.471 197.726V186.582Z" fill="#9286A4"/>
<path d="M171.331 179.33C171.331 176.6 171.331 175.234 172.227 174.641C173.123 174.048 174.38 174.581 176.894 175.648L186.708 179.814C189.071 180.817 190.253 181.319 190.917 182.323C191.582 183.327 191.582 184.611 191.582 187.178V198.335C191.582 201.066 191.582 202.432 190.686 203.025C189.789 203.618 188.533 203.084 186.019 202.017L176.205 197.852C173.842 196.848 172.66 196.347 171.996 195.343C171.331 194.339 171.331 193.055 171.331 190.488V179.33Z" fill="#524668"/>
<path d="M181.829 177.676L176.976 175.583C174.454 174.495 173.194 173.951 172.293 174.544C171.392 175.136 171.392 176.509 171.392 179.256V192.071C171.392 193.462 171.392 194.158 171.848 194.454C172.304 194.749 172.939 194.465 174.209 193.896L177.36 192.484C178.637 191.912 179.275 191.627 179.883 191.288C180.352 191.026 180.808 190.742 181.248 190.435C181.82 190.036 182.356 189.588 183.43 188.692L183.43 188.692C186.222 186.359 187.619 185.193 187.923 183.89C188.152 182.908 188.002 181.877 187.503 181.001C186.841 179.838 185.17 179.118 181.829 177.676Z" fill="#605178"/>
<path d="M177.2 175.711L186.746 179.821C189.091 180.831 190.264 181.336 190.923 182.337C191.582 183.338 191.582 184.615 191.582 187.169V198.313L182.037 194.203C179.691 193.193 178.518 192.688 177.859 191.687C177.2 190.686 177.2 189.409 177.2 186.855V175.711Z" fill="#9286A4"/>
<path d="M171.33 251.276C171.33 248.54 171.33 247.172 172.228 246.579C173.126 245.986 174.384 246.523 176.901 247.598L212.994 263.011C215.35 264.017 216.528 264.52 217.19 265.523C217.852 266.525 217.852 267.806 217.852 270.368V284.392C217.852 287.129 217.852 288.497 216.955 289.09C216.057 289.683 214.798 289.146 212.282 288.071L176.188 272.658C173.832 271.652 172.654 271.149 171.992 270.146C171.33 269.143 171.33 267.862 171.33 265.3V251.276Z" fill="#524668"/>
<path d="M189.06 252.79L176.901 247.598C174.384 246.523 173.126 245.986 172.228 246.579C171.33 247.172 171.33 248.54 171.33 251.276V267.496C171.33 268.887 171.33 269.583 171.786 269.879C172.243 270.174 172.878 269.89 174.148 269.321L176.111 268.441C178.201 267.505 179.246 267.037 180.339 266.724C180.887 266.566 181.444 266.438 182.007 266.34C183.126 266.145 184.271 266.111 186.559 266.041C196.762 265.729 201.863 265.574 202.995 263.757C203.524 262.908 203.716 261.891 203.533 260.908C203.14 258.803 198.447 256.799 189.06 252.79Z" fill="#605178"/>
<path d="M179.895 248.9L212.995 263.032C215.351 264.038 216.529 264.541 217.192 265.543C217.854 266.546 217.854 267.827 217.854 270.389V282.406L184.753 268.274C182.397 267.268 181.219 266.765 180.557 265.762C179.895 264.76 179.895 263.479 179.895 260.917V248.9Z" fill="#9286A4"/>
<path d="M182.694 140.887C180.878 140.101 179.971 139.709 179.971 139.052C179.971 138.395 180.878 138.002 182.694 137.216L226.549 118.231C228.115 117.553 228.897 117.214 229.726 117.214C230.554 117.214 231.337 117.552 232.903 118.23L276.615 137.135C278.426 137.918 279.331 138.31 279.332 138.966C279.333 139.622 278.429 140.016 276.62 140.804L232.904 159.85C231.334 160.534 230.55 160.876 229.719 160.877C228.888 160.878 228.102 160.538 226.531 159.858L182.694 140.887Z" fill="#3B304F"/>
<mask id="mask0" mask-type="alpha" maskUnits="userSpaceOnUse" x="179" y="117" width="101" height="44">
<path d="M182.694 140.887C180.878 140.101 179.971 139.709 179.971 139.052C179.971 138.395 180.878 138.002 182.694 137.216L226.549 118.231C228.115 117.553 228.897 117.214 229.726 117.214C230.554 117.214 231.337 117.552 232.903 118.23L276.615 137.135C278.426 137.918 279.331 138.31 279.332 138.966C279.333 139.622 278.429 140.016 276.62 140.804L232.904 159.85C231.334 160.534 230.55 160.876 229.719 160.877C228.888 160.878 228.102 160.538 226.531 159.858L182.694 140.887Z" fill="#403453"/>
</mask>
<g mask="url(#mask0)">
<path d="M179.843 145.398V135.353L229.639 113.708L279.398 135.353V145.398L229.639 123.854L179.843 145.398Z" fill="#1C122D"/>
</g>
<path fill-rule="evenodd" clip-rule="evenodd" d="M122.294 316.234H108.404V332.728H108.425C108.48 333.223 108.652 333.71 108.933 334.17C109.282 334.739 109.794 335.257 110.439 335.693C111.084 336.129 111.849 336.475 112.692 336.711C113.534 336.947 114.437 337.068 115.349 337.068C116.261 337.068 117.164 336.947 118.007 336.711C118.85 336.475 119.615 336.129 120.26 335.693C120.905 335.257 121.416 334.739 121.765 334.17C122.047 333.71 122.219 333.223 122.274 332.728H122.294V332.427C122.294 332.409 122.294 332.391 122.294 332.373H122.294V316.234Z" fill="#202037"/>
<g filter="url(#filter4_d)">
<path fill-rule="evenodd" clip-rule="evenodd" d="M115.442 261.6C113.705 261.6 112.55 263.613 110.239 267.639L89.9565 302.973C87.6992 306.906 86.5527 308.903 87.3432 310.392C87.5449 312.282 88.2471 314.141 89.4257 315.896C90.8407 318.002 92.9147 319.916 95.5293 321.528C98.1438 323.14 101.248 324.419 104.664 325.292C108.08 326.164 111.741 326.613 115.439 326.613C119.136 326.613 122.798 326.164 126.214 325.292C129.63 324.419 132.734 323.14 135.349 321.528C137.963 319.916 140.037 318.002 141.452 315.896C142.627 314.146 143.329 312.292 143.533 310.408C144.34 308.917 143.193 306.919 140.928 302.973L120.646 267.639C118.335 263.613 117.179 261.6 115.442 261.6Z" fill="#33334C"/>
</g>
<g filter="url(#filter5_d)">
<path fill-rule="evenodd" clip-rule="evenodd" d="M115.436 248.471C113.706 248.471 112.551 250.467 110.242 254.461L92.702 284.796C90.4005 288.777 89.2438 290.777 90.0844 292.275C90.2984 293.903 90.9217 295.502 91.9355 297.015C93.2128 298.922 95.085 300.654 97.4452 302.113C99.8054 303.573 102.607 304.73 105.691 305.52C108.775 306.31 112.08 306.716 115.418 306.716C118.756 306.716 122.061 306.31 125.144 305.52C128.228 304.73 131.03 303.573 133.39 302.113C135.751 300.654 137.623 298.922 138.9 297.015C139.897 295.527 140.516 293.956 140.74 292.357C140.752 292.338 140.764 292.318 140.775 292.299C141.641 290.798 140.484 288.797 138.171 284.796L120.631 254.461C118.322 250.467 117.167 248.471 115.436 248.471Z" fill="#515170"/>
</g>
<g filter="url(#filter6_d)">
<path fill-rule="evenodd" clip-rule="evenodd" d="M115.443 241.133C114.874 241.133 114.491 241.777 113.724 243.066L99.5176 266.943C97.1243 270.966 95.9276 272.977 96.7903 274.494C96.8065 274.523 96.8233 274.551 96.8406 274.578C97.0439 275.631 97.478 276.664 98.1334 277.648C99.0752 279.062 100.456 280.347 102.196 281.429C103.936 282.511 106.002 283.369 108.276 283.955C110.549 284.541 112.986 284.842 115.447 284.842C117.908 284.842 120.345 284.541 122.619 283.955C124.892 283.369 126.958 282.511 128.699 281.429C130.439 280.347 131.819 279.062 132.761 277.648C133.42 276.658 133.856 275.619 134.058 274.559C134.071 274.538 134.083 274.516 134.096 274.494C134.958 272.977 133.762 270.966 131.368 266.943L117.162 243.066C116.395 241.777 116.012 241.133 115.443 241.133Z" fill="#68688E"/>
</g>
<path fill-rule="evenodd" clip-rule="evenodd" d="M161.342 338.223H144.03V358.338H144.03C144.03 358.351 144.03 358.365 144.03 358.379V358.78H144.055C144.124 359.397 144.338 360.004 144.689 360.578C145.124 361.288 145.762 361.933 146.566 362.476C147.369 363.02 148.324 363.451 149.374 363.745C150.424 364.039 151.549 364.19 152.686 364.19C153.823 364.19 154.948 364.039 155.999 363.745C157.049 363.451 158.003 363.02 158.807 362.476C159.611 361.933 160.248 361.288 160.683 360.578C161.034 360.004 161.248 359.397 161.317 358.78H161.342V338.223Z" fill="#202037"/>
<g filter="url(#filter7_d)">
<path fill-rule="evenodd" clip-rule="evenodd" d="M152.802 269.379C151.065 269.379 149.91 271.392 147.599 275.418L119.765 323.908C117.484 327.882 116.337 329.879 117.177 331.373C117.439 333.715 118.328 336.018 119.814 338.192C121.608 340.818 124.238 343.203 127.554 345.213C130.869 347.222 134.805 348.816 139.137 349.903C143.469 350.991 148.112 351.551 152.801 351.551C157.49 351.551 162.133 350.991 166.465 349.903C170.797 348.816 174.733 347.222 178.049 345.213C181.364 343.203 183.995 340.818 185.789 338.192C187.274 336.019 188.162 333.718 188.425 331.378C189.269 329.883 188.122 327.885 185.839 323.908L158.006 275.418C155.695 271.392 154.539 269.379 152.802 269.379Z" fill="#33334C"/>
</g>
<g filter="url(#filter8_d)">
<path fill-rule="evenodd" clip-rule="evenodd" d="M152.795 253.02C151.064 253.02 149.91 255.016 147.601 259.01L123.176 301.253C120.892 305.202 119.735 307.202 120.539 308.697C120.749 310.879 121.561 313.026 122.944 315.05C124.568 317.427 126.949 319.586 129.95 321.405C132.951 323.224 136.513 324.666 140.435 325.651C144.356 326.635 148.558 327.142 152.802 327.142C157.046 327.142 161.249 326.635 165.17 325.651C169.091 324.666 172.654 323.224 175.655 321.405C178.656 319.586 181.036 317.427 182.661 315.05C184.051 313.016 184.864 310.856 185.069 308.663C185.837 307.172 184.681 305.172 182.414 301.253L157.989 259.01C155.68 255.016 154.526 253.02 152.795 253.02Z" fill="#515170"/>
</g>
<g filter="url(#filter9_d)">
<path fill-rule="evenodd" clip-rule="evenodd" d="M152.802 244.377C152.234 244.377 151.85 245.021 151.084 246.31L131.623 279.018C129.23 283.04 128.033 285.051 128.896 286.569C128.912 286.597 128.929 286.625 128.946 286.653C129.173 288.085 129.749 289.491 130.661 290.825C131.865 292.587 133.631 294.188 135.856 295.537C138.082 296.886 140.724 297.955 143.631 298.685C146.539 299.415 149.656 299.791 152.803 299.791C155.95 299.791 159.067 299.415 161.974 298.685C164.882 297.955 167.524 296.886 169.75 295.537C171.975 294.188 173.74 292.587 174.945 290.825C175.857 289.49 176.434 288.083 176.66 286.65C176.677 286.624 176.693 286.596 176.709 286.569C177.572 285.051 176.375 283.04 173.982 279.018L154.521 246.31C153.754 245.021 153.371 244.377 152.802 244.377Z" fill="#68688E"/>
</g>
<g opacity="0.6">
<path d="M260.867 43.2189C259.051 42.4333 258.143 42.0405 258.143 41.3837C258.143 40.7268 259.051 40.3339 260.866 39.548L349.274 1.27562C350.839 0.597832 351.622 0.25894 352.45 0.258794C353.279 0.258648 354.062 0.597264 355.628 1.2745L443.757 39.3898C445.568 40.1731 446.474 40.5647 446.475 41.2208C446.476 41.8768 445.571 42.2709 443.762 43.059L355.623 81.4601C354.054 82.1438 353.269 82.4857 352.438 82.4867C351.607 82.4878 350.822 82.1478 349.25 81.4679L260.867 43.2189Z" fill="#3B304F"/>
<path d="M258.377 41.2266V244.537L352.307 285.366L446.168 244.537V41.2266L352.307 81.8661L258.377 41.2266Z" fill="#1C122D"/>
<path d="M396.741 203.635C396.741 200.904 396.741 199.539 395.845 198.946C394.949 198.353 393.692 198.886 391.178 199.953L374.502 207.032C372.139 208.035 370.957 208.537 370.292 209.541C369.628 210.544 369.628 211.828 369.628 214.396V233.176C369.628 235.907 369.628 237.273 370.524 237.866C371.42 238.459 372.677 237.925 375.191 236.858L391.867 229.78C394.231 228.776 395.412 228.275 396.077 227.271C396.741 226.267 396.741 224.983 396.741 222.416V203.635Z" fill="#524668"/>
<path d="M381.568 203.95L391.076 199.848C393.597 198.761 394.858 198.217 395.759 198.809C396.66 199.402 396.66 200.775 396.66 203.521V223.786C396.66 225.178 396.66 225.874 396.204 226.169C395.748 226.465 395.113 226.18 393.843 225.611L388.291 223.124L388.291 223.124C386.276 222.222 385.269 221.771 384.335 221.188C383.402 220.604 382.555 219.897 380.861 218.482L379.608 217.436C375.138 213.702 372.902 211.835 373.224 209.623C373.545 207.411 376.219 206.257 381.568 203.95Z" fill="#605178"/>
<path d="M388.884 200.838L374.465 207.046C372.119 208.056 370.946 208.561 370.287 209.562C369.628 210.563 369.628 211.84 369.628 214.394V231.099L384.047 224.891C386.393 223.881 387.566 223.376 388.225 222.375C388.884 221.374 388.884 220.097 388.884 217.543V200.838Z" fill="#9286A4"/>
<path d="M431.915 189.08C431.915 186.35 431.915 184.984 431.019 184.391C430.123 183.798 428.866 184.331 426.352 185.398L409.676 192.477C407.312 193.48 406.131 193.982 405.466 194.986C404.802 195.99 404.802 197.274 404.802 199.841V218.622C404.802 221.353 404.802 222.718 405.698 223.311C406.594 223.904 407.851 223.371 410.365 222.304L427.041 215.225C429.404 214.222 430.586 213.72 431.251 212.716C431.915 211.712 431.915 210.429 431.915 207.861V189.08Z" fill="#524668"/>
<path d="M416.742 189.395L426.25 185.294C428.771 184.206 430.032 183.662 430.933 184.255C431.834 184.847 431.834 186.22 431.834 188.967V209.232C431.834 210.623 431.834 211.319 431.378 211.615C430.921 211.91 430.286 211.626 429.016 211.057L423.465 208.57L423.464 208.57C421.45 207.667 420.442 207.216 419.509 206.633C418.576 206.05 417.729 205.342 416.034 203.927L414.782 202.881C410.312 199.147 408.076 197.281 408.398 195.068C408.719 192.856 411.393 191.703 416.742 189.395Z" fill="#605178"/>
<path d="M424.058 186.283L409.638 192.492C407.293 193.502 406.12 194.007 405.461 195.007C404.802 196.008 404.802 197.285 404.802 199.839V216.544L419.221 210.336C421.567 209.326 422.74 208.821 423.399 207.82C424.058 206.819 424.058 205.542 424.058 202.988V186.283Z" fill="#9286A4"/>
<path d="M396.741 155.12C396.741 152.389 396.741 151.023 395.845 150.43C394.949 149.837 393.692 150.37 391.178 151.438L374.502 158.516C372.139 159.519 370.957 160.021 370.292 161.025C369.628 162.029 369.628 163.313 369.628 165.88V184.661C369.628 187.392 369.628 188.757 370.524 189.35C371.42 189.943 372.677 189.41 375.191 188.343L391.867 181.264C394.231 180.261 395.412 179.759 396.077 178.755C396.741 177.751 396.741 176.468 396.741 173.9V155.12Z" fill="#524668"/>
<path d="M381.568 155.434L391.076 151.333C393.597 150.245 394.858 149.701 395.759 150.294C396.66 150.886 396.66 152.259 396.66 155.006V175.271C396.66 176.662 396.66 177.358 396.204 177.654C395.748 177.949 395.113 177.665 393.843 177.096L388.291 174.609L388.291 174.609C386.276 173.706 385.269 173.255 384.335 172.672C383.402 172.089 382.555 171.381 380.861 169.966L379.608 168.92C375.138 165.187 372.902 163.32 373.224 161.107C373.545 158.895 376.219 157.742 381.568 155.434Z" fill="#605178"/>
<path d="M388.884 152.322L374.465 158.531C372.119 159.541 370.946 160.046 370.287 161.047C369.628 162.047 369.628 163.324 369.628 165.878V182.583L384.047 176.375C386.393 175.365 387.566 174.86 388.225 173.859C388.884 172.858 388.884 171.581 388.884 169.027V152.322Z" fill="#9286A4"/>
<path d="M431.915 140.565C431.915 137.834 431.915 136.469 431.019 135.875C430.123 135.282 428.866 135.816 426.352 136.883L409.676 143.962C407.312 144.965 406.131 145.466 405.466 146.47C404.802 147.474 404.802 148.758 404.802 151.326V170.106C404.802 172.837 404.802 174.202 405.698 174.795C406.594 175.389 407.851 174.855 410.365 173.788L427.041 166.709C429.404 165.706 430.586 165.204 431.251 164.201C431.915 163.197 431.915 161.913 431.915 159.345V140.565Z" fill="#524668"/>
<path d="M416.742 140.88L426.25 136.778C428.771 135.69 430.032 135.146 430.933 135.739C431.834 136.332 431.834 137.705 431.834 140.451V160.716C431.834 162.108 431.834 162.803 431.378 163.099C430.921 163.395 430.286 163.11 429.016 162.541L423.465 160.054L423.464 160.054C421.45 159.152 420.442 158.7 419.509 158.117C418.576 157.534 417.729 156.827 416.034 155.411L414.782 154.366C410.312 150.632 408.076 148.765 408.398 146.553C408.719 144.34 411.393 143.187 416.742 140.88Z" fill="#605178"/>
<path d="M424.058 137.768L409.638 143.976C407.293 144.986 406.12 145.491 405.461 146.492C404.802 147.493 404.802 148.77 404.802 151.324V168.029L419.221 161.82C421.567 160.81 422.74 160.305 423.399 159.304C424.058 158.304 424.058 157.027 424.058 154.472V137.768Z" fill="#9286A4"/>
<path d="M396.741 106.604C396.741 103.873 396.741 102.508 395.845 101.914C394.949 101.321 393.692 101.855 391.178 102.922L374.502 110.001C372.139 111.004 370.957 111.505 370.292 112.509C369.628 113.513 369.628 114.797 369.628 117.365V136.145C369.628 138.876 369.628 140.241 370.524 140.835C371.42 141.428 372.677 140.894 375.191 139.827L391.867 132.748C394.231 131.745 395.412 131.244 396.077 130.24C396.741 129.236 396.741 127.952 396.741 125.384V106.604Z" fill="#524668"/>
<path d="M381.568 106.919L391.076 102.817C393.597 101.729 394.858 101.186 395.759 101.778C396.66 102.371 396.66 103.744 396.66 106.49V126.755C396.66 128.147 396.66 128.842 396.204 129.138C395.748 129.434 395.113 129.149 393.843 128.58L388.291 126.093L388.291 126.093C386.276 125.191 385.269 124.739 384.335 124.156C383.402 123.573 382.555 122.866 380.861 121.45L379.608 120.405C375.138 116.671 372.902 114.804 373.224 112.592C373.545 110.38 376.219 109.226 381.568 106.919Z" fill="#605178"/>
<path d="M388.884 103.807L374.465 110.015C372.119 111.025 370.946 111.53 370.287 112.531C369.628 113.532 369.628 114.809 369.628 117.363V134.068L384.047 127.859C386.393 126.849 387.566 126.344 388.225 125.343C388.884 124.343 388.884 123.066 388.884 120.512V103.807Z" fill="#9286A4"/>
<path d="M431.915 92.0492C431.915 89.3183 431.915 87.9529 431.019 87.3598C430.123 86.7666 428.866 87.3002 426.352 88.3672L409.676 95.4459C407.312 96.4491 406.131 96.9508 405.466 97.9546C404.802 98.9585 404.802 100.242 404.802 102.81V121.59C404.802 124.321 404.802 125.687 405.698 126.28C406.594 126.873 407.851 126.339 410.365 125.272L427.041 118.194C429.404 117.19 430.586 116.689 431.251 115.685C431.915 114.681 431.915 113.397 431.915 110.83V92.0492Z" fill="#524668"/>
<path d="M416.742 92.3641L426.25 88.2625C428.771 87.1747 430.032 86.6309 430.933 87.2234C431.834 87.816 431.834 89.1891 431.834 91.9353V112.2C431.834 113.592 431.834 114.288 431.378 114.583C430.921 114.879 430.286 114.594 429.016 114.026L423.465 111.539L423.464 111.538C421.45 110.636 420.442 110.185 419.509 109.602C418.576 109.019 417.729 108.311 416.034 106.896L414.782 105.85C410.312 102.116 408.076 100.249 408.398 98.0371C408.719 95.8249 411.393 94.6713 416.742 92.3641Z" fill="#605178"/>
<path d="M424.058 89.252L409.638 95.4603C407.293 96.4703 406.12 96.9753 405.461 97.9762C404.802 98.9771 404.802 100.254 404.802 102.808V119.513L419.221 113.305C421.567 112.295 422.74 111.79 423.399 110.789C424.058 109.788 424.058 108.511 424.058 105.957V89.252Z" fill="#9286A4"/>
<path d="M309.401 155.12C309.401 152.389 309.401 151.023 310.297 150.43C311.194 149.837 312.451 150.37 314.964 151.438L331.641 158.516C334.004 159.519 335.186 160.021 335.85 161.025C336.515 162.029 336.515 163.313 336.515 165.88V184.661C336.515 187.392 336.515 188.757 335.619 189.35C334.722 189.943 333.466 189.41 330.952 188.343L314.276 181.264C311.912 180.261 310.73 179.759 310.066 178.755C309.401 177.751 309.401 176.468 309.401 173.9V155.12Z" fill="#524668"/>
<path d="M324.573 155.434L315.065 151.333C312.543 150.245 311.282 149.701 310.381 150.294C309.48 150.886 309.48 152.259 309.48 155.006V175.271C309.48 176.662 309.48 177.358 309.937 177.654C310.393 177.949 311.028 177.665 312.298 177.096L317.85 174.609L317.85 174.609C319.865 173.706 320.872 173.255 321.805 172.672C322.738 172.089 323.586 171.381 325.28 169.966L326.532 168.92C331.003 165.187 333.238 163.32 332.917 161.107C332.595 158.895 329.921 157.742 324.573 155.434Z" fill="#605178"/>
<path d="M317.259 152.322L331.678 158.531C334.024 159.541 335.197 160.046 335.856 161.047C336.514 162.047 336.514 163.324 336.514 165.878V182.583L322.095 176.375C319.749 175.365 318.576 174.86 317.918 173.859C317.259 172.858 317.259 171.581 317.259 169.027V152.322Z" fill="#9286A4"/>
<path d="M274.228 140.565C274.228 137.834 274.228 136.469 275.124 135.875C276.02 135.282 277.277 135.816 279.79 136.883L296.467 143.962C298.83 144.965 300.012 145.466 300.676 146.47C301.341 147.474 301.341 148.758 301.341 151.326V170.106C301.341 172.837 301.341 174.202 300.445 174.795C299.549 175.389 298.292 174.855 295.778 173.788L279.102 166.709C276.738 165.706 275.556 165.204 274.892 164.201C274.228 163.197 274.228 161.913 274.228 159.345V140.565Z" fill="#524668"/>
<path d="M289.401 140.88L279.893 136.778C277.371 135.69 276.111 135.146 275.21 135.739C274.309 136.332 274.309 137.705 274.309 140.451V160.716C274.309 162.108 274.309 162.803 274.765 163.099C275.221 163.395 275.856 163.11 277.126 162.541L282.678 160.054L282.678 160.054C284.693 159.152 285.7 158.7 286.633 158.117C287.567 157.534 288.414 156.827 290.108 155.411L291.36 154.366C295.831 150.632 298.066 148.765 297.745 146.553C297.424 144.34 294.749 143.187 289.401 140.88Z" fill="#605178"/>
<path d="M282.085 137.768L296.504 143.976C298.85 144.986 300.023 145.491 300.682 146.492C301.34 147.493 301.34 148.77 301.34 151.324V168.029L286.921 161.82C284.575 160.81 283.403 160.305 282.744 159.304C282.085 158.304 282.085 157.027 282.085 154.472V137.768Z" fill="#9286A4"/>
<path d="M309.401 106.604C309.401 103.873 309.401 102.508 310.297 101.914C311.194 101.321 312.451 101.855 314.964 102.922L331.641 110.001C334.004 111.004 335.186 111.505 335.85 112.509C336.515 113.513 336.515 114.797 336.515 117.365V136.145C336.515 138.876 336.515 140.241 335.619 140.835C334.722 141.428 333.466 140.894 330.952 139.827L314.276 132.748C311.912 131.745 310.73 131.244 310.066 130.24C309.401 129.236 309.401 127.952 309.401 125.384V106.604Z" fill="#524668"/>
<path d="M324.573 106.919L315.065 102.817C312.543 101.729 311.282 101.186 310.381 101.778C309.48 102.371 309.48 103.744 309.48 106.49V126.755C309.48 128.147 309.48 128.842 309.937 129.138C310.393 129.434 311.028 129.149 312.298 128.58L317.85 126.093L317.85 126.093C319.865 125.191 320.872 124.739 321.805 124.156C322.738 123.573 323.586 122.866 325.28 121.45L326.532 120.405C331.003 116.671 333.238 114.804 332.917 112.592C332.595 110.38 329.921 109.226 324.573 106.919Z" fill="#605178"/>
<path d="M317.259 103.807L331.678 110.015C334.024 111.025 335.197 111.53 335.856 112.531C336.514 113.532 336.514 114.809 336.514 117.363V134.068L322.095 127.859C319.749 126.849 318.576 126.344 317.918 125.343C317.259 124.343 317.259 123.066 317.259 120.512V103.807Z" fill="#9286A4"/>
<path d="M274.228 92.0492C274.228 89.3183 274.228 87.9529 275.124 87.3598C276.02 86.7666 277.277 87.3002 279.79 88.3672L296.467 95.4459C298.83 96.4491 300.012 96.9508 300.676 97.9546C301.341 98.9585 301.341 100.242 301.341 102.81V121.59C301.341 124.321 301.341 125.687 300.445 126.28C299.549 126.873 298.292 126.339 295.778 125.272L279.102 118.194C276.738 117.19 275.556 116.689 274.892 115.685C274.228 114.681 274.228 113.397 274.228 110.83V92.0492Z" fill="#524668"/>
<path d="M289.401 92.3641L279.893 88.2625C277.371 87.1747 276.111 86.6309 275.21 87.2234C274.309 87.816 274.309 89.1891 274.309 91.9353V112.2C274.309 113.592 274.309 114.288 274.765 114.583C275.221 114.879 275.856 114.594 277.126 114.026L282.678 111.539L282.678 111.538C284.693 110.636 285.7 110.185 286.633 109.602C287.567 109.019 288.414 108.311 290.108 106.896L291.36 105.85C295.831 102.116 298.066 100.249 297.745 98.0371C297.424 95.8249 294.749 94.6713 289.401 92.3641Z" fill="#605178"/>
<path d="M282.085 89.252L296.504 95.4603C298.85 96.4703 300.023 96.9753 300.682 97.9762C301.34 98.9771 301.34 100.254 301.34 102.808V119.513L286.921 113.305C284.575 112.295 283.403 111.79 282.744 110.789C282.085 109.788 282.085 108.511 282.085 105.957V89.252Z" fill="#9286A4"/>
<path d="M274.226 188.37C274.226 185.634 274.226 184.265 275.124 183.672C276.021 183.079 277.28 183.617 279.796 184.691L331.656 206.837C334.012 207.843 335.19 208.346 335.852 209.349C336.514 210.352 336.514 211.633 336.514 214.194V236.814C336.514 239.551 336.514 240.919 335.616 241.512C334.718 242.105 333.459 241.568 330.943 240.493L279.084 218.347C276.728 217.341 275.55 216.838 274.888 215.835C274.226 214.833 274.226 213.552 274.226 210.99V188.37Z" fill="#524668"/>
<path d="M303.152 194.665L279.796 184.691C277.28 183.617 276.021 183.079 275.124 183.672C274.226 184.265 274.226 185.634 274.226 188.37V213.185C274.226 214.577 274.226 215.272 274.682 215.568C275.138 215.864 275.773 215.579 277.043 215.01L281.526 213.002L281.526 213.002C284.405 211.712 285.845 211.067 287.373 210.716C288.901 210.365 290.478 210.317 293.632 210.221L300.254 210.019C314.482 209.584 321.596 209.367 322.192 206.209C322.789 203.051 316.243 200.255 303.152 194.665Z" fill="#605178"/>
<path d="M285.692 187.242L331.657 206.866C334.013 207.872 335.191 208.375 335.853 209.377C336.516 210.38 336.516 211.661 336.516 214.223V232.102L290.551 212.478C288.195 211.472 287.017 210.969 286.355 209.967C285.692 208.964 285.692 207.683 285.692 205.121V187.242Z" fill="#9286A4"/>
<path d="M288.002 42.0028C286.187 41.2171 285.279 40.8243 285.279 40.1675C285.279 39.5107 286.187 39.1178 288.002 38.3319L349.233 11.8245C350.799 11.1467 351.581 10.8078 352.41 10.8076C353.238 10.8075 354.021 11.1461 355.587 11.8233L416.622 38.2205C418.433 39.0037 419.339 39.3954 419.339 40.0514C419.34 40.7075 418.436 41.1015 416.627 41.8897L355.586 68.4845C354.016 69.1682 353.232 69.5101 352.401 69.5112C351.57 69.5122 350.784 69.1722 349.213 68.4923L288.002 42.0028Z" fill="#3B304F"/>
<mask id="mask1" mask-type="alpha" maskUnits="userSpaceOnUse" x="285" y="10" width="135" height="60">
<path d="M288.002 42.0028C286.187 41.2171 285.279 40.8243 285.279 40.1675C285.279 39.5107 286.187 39.1178 288.002 38.3319L349.233 11.8245C350.799 11.1467 351.581 10.8078 352.41 10.8076C353.238 10.8075 354.021 11.1461 355.587 11.8233L416.622 38.2205C418.433 39.0037 419.339 39.3954 419.339 40.0514C419.34 40.7075 418.436 41.1015 416.627 41.8897L355.586 68.4845C354.016 69.1682 353.232 69.5101 352.401 69.5112C351.57 69.5122 350.784 69.1722 349.213 68.4923L288.002 42.0028Z" fill="#403453"/>
</mask>
<g mask="url(#mask1)">
<path d="M285.623 48.6641V35.2148L352.294 6.23478L418.917 35.2148V48.6641L352.294 19.8183L285.623 48.6641Z" fill="#1C122D"/>
</g>
</g>
<path d="M341.556 171.784C339.741 170.998 338.833 170.605 338.833 169.948C338.833 169.291 339.741 168.899 341.556 168.113L405.709 140.34C407.275 139.662 408.058 139.323 408.886 139.323C409.714 139.323 410.497 139.662 412.063 140.339L476.012 167.996C477.823 168.779 478.728 169.171 478.729 169.827C478.73 170.483 477.825 170.877 476.017 171.665L412.061 199.53C410.492 200.214 409.707 200.555 408.876 200.556C408.045 200.557 407.26 200.218 405.689 199.538L341.556 171.784Z" fill="#3B304F"/>
<path d="M338.623 169.83V321.681L408.779 352.175L478.883 321.681V169.83L408.779 200.183L338.623 169.83Z" fill="#1C122D"/>
<path d="M441.967 292.663C441.967 289.932 441.967 288.566 441.071 287.973C440.175 287.38 438.918 287.913 436.404 288.98L426.59 293.146C424.227 294.149 423.045 294.651 422.381 295.655C421.716 296.659 421.716 297.943 421.716 300.51V311.667C421.716 314.398 421.716 315.764 422.612 316.357C423.508 316.95 424.765 316.416 427.279 315.349L437.093 311.184C439.456 310.18 440.638 309.679 441.302 308.675C441.967 307.671 441.967 306.387 441.967 303.82V292.663Z" fill="#524668"/>
<path d="M431.469 291.008L436.322 288.915C438.843 287.827 440.104 287.283 441.005 287.876C441.906 288.468 441.906 289.841 441.906 292.588V305.403C441.906 306.794 441.906 307.49 441.45 307.786C440.994 308.081 440.359 307.797 439.089 307.228L435.937 305.816C434.661 305.244 434.023 304.959 433.415 304.62C432.946 304.358 432.49 304.074 432.05 303.767C431.478 303.369 430.942 302.92 429.868 302.024L429.868 302.024C427.075 299.691 425.679 298.525 425.375 297.222C425.146 296.24 425.296 295.209 425.795 294.333C426.457 293.17 428.128 292.45 431.469 291.008Z" fill="#605178"/>
<path d="M436.098 289.043L426.552 293.153C424.206 294.163 423.033 294.668 422.375 295.669C421.716 296.67 421.716 297.947 421.716 300.501V311.645L431.261 307.535C433.607 306.525 434.78 306.02 435.439 305.019C436.098 304.018 436.098 302.741 436.098 300.187V289.043Z" fill="#9286A4"/>
<path d="M468.237 281.791C468.237 279.061 468.237 277.695 467.341 277.102C466.445 276.509 465.188 277.042 462.674 278.109L452.861 282.275C450.497 283.278 449.316 283.78 448.651 284.784C447.987 285.788 447.987 287.071 447.987 289.639V300.796C447.987 303.527 447.987 304.892 448.883 305.486C449.779 306.079 451.036 305.545 453.55 304.478L463.363 300.313C465.727 299.309 466.908 298.808 467.573 297.804C468.237 296.8 468.237 295.516 468.237 292.948V281.791Z" fill="#524668"/>
<path d="M457.739 280.137L462.592 278.044C465.114 276.956 466.375 276.412 467.276 277.005C468.177 277.597 468.177 278.97 468.177 281.717V294.531C468.177 295.923 468.177 296.619 467.72 296.914C467.264 297.21 466.629 296.926 465.359 296.357L462.208 294.945C460.932 294.373 460.294 294.087 459.685 293.749C459.216 293.487 458.761 293.203 458.32 292.896C457.749 292.497 457.212 292.049 456.139 291.153L456.139 291.153C453.346 288.82 451.95 287.654 451.645 286.35C451.417 285.369 451.566 284.338 452.065 283.462C452.727 282.299 454.398 281.579 457.739 280.137Z" fill="#605178"/>
<path d="M462.368 278.172L452.823 282.282C450.477 283.292 449.304 283.797 448.645 284.798C447.986 285.799 447.986 287.076 447.986 289.63V300.774L457.532 296.664C459.878 295.654 461.051 295.149 461.709 294.148C462.368 293.147 462.368 291.87 462.368 289.316V278.172Z" fill="#9286A4"/>
<path d="M441.967 256.426C441.967 253.695 441.967 252.33 441.071 251.737C440.175 251.144 438.918 251.677 436.404 252.744L426.59 256.91C424.227 257.913 423.045 258.415 422.381 259.419C421.716 260.422 421.716 261.706 421.716 264.274V275.431C421.716 278.162 421.716 279.527 422.612 280.12C423.508 280.714 424.765 280.18 427.279 279.113L437.093 274.947C439.456 273.944 440.638 273.442 441.302 272.439C441.967 271.435 441.967 270.151 441.967 267.583V256.426Z" fill="#524668"/>
<path d="M431.469 254.772L436.322 252.679C438.843 251.591 440.104 251.047 441.005 251.639C441.906 252.232 441.906 253.605 441.906 256.351V269.166C441.906 270.558 441.906 271.254 441.45 271.549C440.994 271.845 440.359 271.56 439.089 270.991L435.937 269.58C434.661 269.008 434.023 268.722 433.415 268.383C432.946 268.122 432.49 267.838 432.05 267.531C431.478 267.132 430.942 266.684 429.868 265.788L429.868 265.788C427.075 263.455 425.679 262.289 425.375 260.985C425.146 260.004 425.296 258.973 425.795 258.097C426.457 256.934 428.128 256.213 431.469 254.772Z" fill="#605178"/>
<path d="M436.098 252.807L426.552 256.917C424.206 257.927 423.033 258.432 422.375 259.432C421.716 260.433 421.716 261.71 421.716 264.264V275.408L431.261 271.298C433.607 270.288 434.78 269.783 435.439 268.783C436.098 267.782 436.098 266.505 436.098 263.951V252.807Z" fill="#9286A4"/>
<path d="M468.237 245.555C468.237 242.824 468.237 241.459 467.341 240.866C466.445 240.272 465.188 240.806 462.674 241.873L452.861 246.039C450.497 247.042 449.316 247.544 448.651 248.547C447.987 249.551 447.987 250.835 447.987 253.403V264.56C447.987 267.291 447.987 268.656 448.883 269.249C449.779 269.842 451.036 269.309 453.55 268.242L463.363 264.076C465.727 263.073 466.908 262.571 467.573 261.567C468.237 260.564 468.237 259.28 468.237 256.712V245.555Z" fill="#524668"/>
<path d="M457.739 243.901L462.592 241.807C465.114 240.72 466.375 240.176 467.276 240.768C468.177 241.361 468.177 242.734 468.177 245.48V258.295C468.177 259.687 468.177 260.383 467.72 260.678C467.264 260.974 466.629 260.689 465.359 260.12L462.208 258.709C460.932 258.137 460.294 257.851 459.685 257.512C459.216 257.251 458.761 256.966 458.32 256.659C457.749 256.261 457.212 255.813 456.139 254.916L456.139 254.916C453.346 252.584 451.95 251.418 451.645 250.114C451.417 249.133 451.566 248.102 452.065 247.226C452.727 246.063 454.398 245.342 457.739 243.901Z" fill="#605178"/>
<path d="M462.368 241.936L452.823 246.045C450.477 247.055 449.304 247.56 448.645 248.561C447.986 249.562 447.986 250.839 447.986 253.393V264.537L457.532 260.427C459.878 259.417 461.051 258.912 461.709 257.911C462.368 256.911 462.368 255.634 462.368 253.08V241.936Z" fill="#9286A4"/>
<path d="M441.967 220.19C441.967 217.459 441.967 216.094 441.071 215.5C440.175 214.907 438.918 215.441 436.404 216.508L426.59 220.673C424.227 221.677 423.045 222.178 422.381 223.182C421.716 224.186 421.716 225.47 421.716 228.038V239.195C421.716 241.925 421.716 243.291 422.612 243.884C423.508 244.477 424.765 243.944 427.279 242.877L437.093 238.711C439.456 237.708 440.638 237.206 441.302 236.202C441.967 235.198 441.967 233.915 441.967 231.347V220.19Z" fill="#524668"/>
<path d="M431.469 218.536L436.322 216.442C438.843 215.354 440.104 214.811 441.005 215.403C441.906 215.996 441.906 217.369 441.906 220.115V232.93C441.906 234.322 441.906 235.017 441.45 235.313C440.994 235.609 440.359 235.324 439.089 234.755L435.937 233.343C434.661 232.772 434.023 232.486 433.415 232.147C432.946 231.886 432.49 231.601 432.05 231.294C431.478 230.896 430.942 230.448 429.868 229.551L429.868 229.551C427.075 227.219 425.679 226.052 425.375 224.749C425.146 223.768 425.296 222.736 425.795 221.861C426.457 220.698 428.128 219.977 431.469 218.536Z" fill="#605178"/>
<path d="M436.098 216.57L426.552 220.68C424.206 221.69 423.033 222.195 422.375 223.196C421.716 224.197 421.716 225.474 421.716 228.028V239.172L431.261 235.062C433.607 234.052 434.78 233.547 435.439 232.546C436.098 231.545 436.098 230.268 436.098 227.714V216.57Z" fill="#9286A4"/>
<path d="M468.237 209.319C468.237 206.588 468.237 205.222 467.341 204.629C466.445 204.036 465.188 204.57 462.674 205.637L452.861 209.802C450.497 210.806 449.316 211.307 448.651 212.311C447.987 213.315 447.987 214.599 447.987 217.166V228.323C447.987 231.054 447.987 232.42 448.883 233.013C449.779 233.606 451.036 233.073 453.55 232.006L463.363 227.84C465.727 226.837 466.908 226.335 467.573 225.331C468.237 224.327 468.237 223.043 468.237 220.476V209.319Z" fill="#524668"/>
<path d="M457.739 207.665L462.592 205.571C465.114 204.483 466.375 203.939 467.276 204.532C468.177 205.125 468.177 206.498 468.177 209.244V222.059C468.177 223.45 468.177 224.146 467.72 224.442C467.264 224.737 466.629 224.453 465.359 223.884L462.208 222.472C460.932 221.901 460.294 221.615 459.685 221.276C459.216 221.015 458.761 220.73 458.32 220.423C457.749 220.025 457.212 219.577 456.139 218.68L456.139 218.68C453.346 216.348 451.95 215.181 451.645 213.878C451.417 212.897 451.566 211.865 452.065 210.99C452.727 209.827 454.398 209.106 457.739 207.665Z" fill="#605178"/>
<path d="M462.368 205.699L452.823 209.809C450.477 210.819 449.304 211.324 448.645 212.325C447.986 213.326 447.986 214.603 447.986 217.157V228.301L457.532 224.191C459.878 223.181 461.051 222.676 461.709 221.675C462.368 220.674 462.368 219.397 462.368 216.843V205.699Z" fill="#9286A4"/>
<path d="M376.732 256.426C376.732 253.695 376.732 252.33 377.629 251.737C378.525 251.144 379.782 251.677 382.295 252.744L392.109 256.91C394.472 257.913 395.654 258.415 396.319 259.419C396.983 260.422 396.983 261.706 396.983 264.274V275.431C396.983 278.162 396.983 279.527 396.087 280.12C395.191 280.714 393.934 280.18 391.42 279.113L381.607 274.947C379.243 273.944 378.061 273.442 377.397 272.439C376.732 271.435 376.732 270.151 376.732 267.583V256.426Z" fill="#524668"/>
<path d="M387.229 254.772L382.376 252.679C379.855 251.591 378.594 251.047 377.693 251.639C376.792 252.232 376.792 253.605 376.792 256.351V269.166C376.792 270.558 376.792 271.254 377.248 271.549C377.705 271.845 378.34 271.56 379.61 270.991L382.761 269.58C384.037 269.008 384.675 268.722 385.284 268.383C385.753 268.122 386.208 267.838 386.649 267.531C387.22 267.132 387.757 266.684 388.83 265.788L388.83 265.788C391.623 263.455 393.019 262.289 393.323 260.985C393.552 260.004 393.402 258.973 392.904 258.097C392.241 256.934 390.571 256.213 387.229 254.772Z" fill="#605178"/>
<path d="M382.602 252.807L392.147 256.917C394.493 257.927 395.666 258.432 396.325 259.432C396.983 260.433 396.983 261.71 396.983 264.264V275.408L387.438 271.298C385.092 270.288 383.919 269.783 383.26 268.783C382.602 267.782 382.602 266.505 382.602 263.951V252.807Z" fill="#9286A4"/>
<path d="M350.461 245.555C350.461 242.824 350.461 241.459 351.357 240.866C352.253 240.272 353.51 240.806 356.024 241.873L365.837 246.039C368.201 247.042 369.383 247.544 370.047 248.547C370.712 249.551 370.712 250.835 370.712 253.403V264.56C370.712 267.291 370.712 268.656 369.815 269.249C368.919 269.842 367.662 269.309 365.149 268.242L355.335 264.076C352.972 263.073 351.79 262.571 351.125 261.567C350.461 260.564 350.461 259.28 350.461 256.712V245.555Z" fill="#524668"/>
<path d="M360.959 243.901L356.106 241.807C353.584 240.72 352.323 240.176 351.422 240.768C350.521 241.361 350.521 242.734 350.521 245.48V258.295C350.521 259.687 350.521 260.383 350.978 260.678C351.434 260.974 352.069 260.689 353.339 260.12L356.49 258.709C357.767 258.137 358.405 257.851 359.013 257.512C359.482 257.251 359.938 256.966 360.378 256.659C360.949 256.261 361.486 255.813 362.559 254.916L362.559 254.916C365.352 252.584 366.749 251.418 367.053 250.114C367.282 249.133 367.132 248.102 366.633 247.226C365.971 246.063 364.3 245.342 360.959 243.901Z" fill="#605178"/>
<path d="M356.33 241.936L365.876 246.045C368.221 247.055 369.394 247.56 370.053 248.561C370.712 249.562 370.712 250.839 370.712 253.393V264.537L361.166 260.427C358.821 259.417 357.648 258.912 356.989 257.911C356.33 256.911 356.33 255.634 356.33 253.08V241.936Z" fill="#9286A4"/>
<path d="M376.732 220.19C376.732 217.459 376.732 216.094 377.629 215.5C378.525 214.907 379.782 215.441 382.295 216.508L392.109 220.673C394.472 221.677 395.654 222.178 396.319 223.182C396.983 224.186 396.983 225.47 396.983 228.038V239.195C396.983 241.925 396.983 243.291 396.087 243.884C395.191 244.477 393.934 243.944 391.42 242.877L381.607 238.711C379.243 237.708 378.061 237.206 377.397 236.202C376.732 235.198 376.732 233.915 376.732 231.347V220.19Z" fill="#524668"/>
<path d="M387.229 218.536L382.376 216.442C379.855 215.354 378.594 214.811 377.693 215.403C376.792 215.996 376.792 217.369 376.792 220.115V232.93C376.792 234.322 376.792 235.017 377.248 235.313C377.705 235.609 378.34 235.324 379.61 234.755L382.761 233.343C384.037 232.772 384.675 232.486 385.284 232.147C385.753 231.886 386.208 231.601 386.649 231.294C387.22 230.896 387.757 230.448 388.83 229.551L388.83 229.551C391.623 227.219 393.019 226.052 393.323 224.749C393.552 223.768 393.402 222.736 392.904 221.861C392.241 220.698 390.571 219.977 387.229 218.536Z" fill="#605178"/>
<path d="M382.602 216.57L392.147 220.68C394.493 221.69 395.666 222.195 396.325 223.196C396.983 224.197 396.983 225.474 396.983 228.028V239.172L387.438 235.062C385.092 234.052 383.919 233.547 383.26 232.546C382.602 231.545 382.602 230.268 382.602 227.714V216.57Z" fill="#9286A4"/>
<path d="M350.461 209.319C350.461 206.588 350.461 205.222 351.357 204.629C352.253 204.036 353.51 204.57 356.024 205.637L365.837 209.802C368.201 210.806 369.383 211.307 370.047 212.311C370.712 213.315 370.712 214.599 370.712 217.166V228.323C370.712 231.054 370.712 232.42 369.815 233.013C368.919 233.606 367.662 233.073 365.149 232.006L355.335 227.84C352.972 226.837 351.79 226.335 351.125 225.331C350.461 224.327 350.461 223.043 350.461 220.476V209.319Z" fill="#524668"/>
<path d="M360.959 207.665L356.106 205.571C353.584 204.483 352.323 203.939 351.422 204.532C350.521 205.125 350.521 206.498 350.521 209.244V222.059C350.521 223.45 350.521 224.146 350.978 224.442C351.434 224.737 352.069 224.453 353.339 223.884L356.49 222.472C357.767 221.901 358.405 221.615 359.013 221.276C359.482 221.015 359.938 220.73 360.378 220.423C360.949 220.025 361.486 219.577 362.559 218.68L362.559 218.68C365.352 216.348 366.749 215.181 367.053 213.878C367.282 212.897 367.132 211.865 366.633 210.99C365.971 209.827 364.3 209.106 360.959 207.665Z" fill="#605178"/>
<path d="M356.33 205.699L365.876 209.809C368.221 210.819 369.394 211.324 370.053 212.325C370.712 213.326 370.712 214.603 370.712 217.157V228.301L361.166 224.191C358.821 223.181 357.648 222.676 356.989 221.675C356.33 220.674 356.33 219.397 356.33 216.843V205.699Z" fill="#9286A4"/>
<path d="M350.46 281.265C350.46 278.528 350.46 277.16 351.358 276.567C352.256 275.974 353.514 276.511 356.031 277.586L392.124 292.999C394.48 294.005 395.658 294.508 396.32 295.511C396.982 296.514 396.982 297.795 396.982 300.356V314.381C396.982 317.117 396.982 318.485 396.084 319.078C395.186 319.671 393.928 319.134 391.411 318.059L355.318 302.646C352.962 301.64 351.784 301.137 351.122 300.134C350.46 299.132 350.46 297.851 350.46 295.289V281.265Z" fill="#524668"/>
<path d="M368.19 282.778L356.031 277.586C353.514 276.511 352.256 275.974 351.358 276.567C350.46 277.16 350.46 278.528 350.46 281.265V297.484C350.46 298.876 350.46 299.571 350.916 299.867C351.373 300.163 352.008 299.878 353.278 299.309L355.241 298.429C357.331 297.493 358.376 297.025 359.468 296.712C360.017 296.554 360.574 296.427 361.136 296.329C362.256 296.134 363.4 296.099 365.689 296.029C375.891 295.718 380.992 295.562 382.125 293.745C382.654 292.896 382.846 291.879 382.663 290.896C382.27 288.791 377.577 286.787 368.19 282.778Z" fill="#605178"/>
<path d="M359.024 278.889L392.125 293.02C394.481 294.026 395.659 294.529 396.322 295.532C396.984 296.534 396.984 297.816 396.984 300.378V312.394L363.883 298.262C361.527 297.256 360.349 296.753 359.687 295.751C359.024 294.748 359.024 293.467 359.024 290.905V278.889Z" fill="#9286A4"/>
<path d="M361.824 170.875C360.008 170.09 359.101 169.697 359.1 169.04C359.1 168.383 360.008 167.99 361.823 167.204L405.679 148.219C407.244 147.541 408.027 147.202 408.856 147.202C409.684 147.202 410.467 147.541 412.033 148.218L455.745 167.123C457.556 167.906 458.461 168.298 458.462 168.954C458.463 169.61 457.558 170.004 455.75 170.792L412.034 189.839C410.464 190.522 409.68 190.864 408.849 190.865C408.018 190.866 407.232 190.526 405.661 189.846L361.824 170.875Z" fill="#3B304F"/>
<mask id="mask2" mask-type="alpha" maskUnits="userSpaceOnUse" x="359" y="147" width="100" height="44">
<path d="M361.824 170.875C360.008 170.09 359.101 169.697 359.1 169.04C359.1 168.383 360.008 167.99 361.823 167.204L405.679 148.219C407.244 147.541 408.027 147.202 408.856 147.202C409.684 147.202 410.467 147.541 412.033 148.218L455.745 167.123C457.556 167.906 458.461 168.298 458.462 168.954C458.463 169.61 457.558 170.004 455.75 170.792L412.034 189.839C410.464 190.522 409.68 190.864 408.849 190.865C408.018 190.866 407.232 190.526 405.661 189.846L361.824 170.875Z" fill="#403453"/>
</mask>
<g mask="url(#mask2)">
<path d="M358.973 175.387V165.342L408.769 143.697L458.528 165.342V175.387L408.769 153.842L358.973 175.387Z" fill="#1C122D"/>
</g>
<path d="M197.746 140.809C195.931 140.024 195.023 139.631 195.023 138.974C195.023 138.317 195.931 137.924 197.746 137.139L275.81 103.344C277.376 102.666 278.159 102.327 278.987 102.327C279.815 102.327 280.598 102.666 282.164 103.343L359.981 136.998C361.792 137.781 362.698 138.173 362.699 138.829C362.7 139.485 361.795 139.879 359.986 140.667L282.161 174.575C280.591 175.259 279.807 175.601 278.976 175.602C278.145 175.603 277.359 175.263 275.788 174.583L197.746 140.809Z" fill="#403453"/>
<path d="M195.066 138.834V372.134L278.858 408.556L362.587 372.134V138.834L278.858 175.087L195.066 138.834Z" fill="#241838"/>
<g filter="url(#filter10_d)">
<path d="M210.637 164.062V256.718C210.637 257.991 210.637 258.627 210.964 259.126C211.292 259.626 211.875 259.879 213.042 260.387L270.877 285.526C274.807 287.234 276.772 288.088 278.852 288.088C280.932 288.088 282.897 287.233 286.827 285.523L344.613 260.387C345.78 259.88 346.363 259.626 346.69 259.127C347.018 258.627 347.018 257.991 347.018 256.719V164.063C347.018 162.688 347.018 162.001 346.567 161.704C346.116 161.408 345.485 161.681 344.223 162.228L286.796 187.092C282.881 188.787 280.924 189.635 278.852 189.635C276.781 189.635 274.823 188.788 270.908 187.094L270.908 187.094L213.431 162.226C212.169 161.681 211.539 161.408 211.088 161.704C210.637 162 210.637 162.688 210.637 164.062Z" fill="#F6F0FF"/>
</g>
<path d="M278.827 203.686V271.963" stroke="#EDE6F7" stroke-width="2" stroke-linecap="round" stroke-linejoin="round"/>
<path d="M347.017 280.794C347.017 278.057 347.017 276.689 346.119 276.096C345.221 275.503 343.962 276.041 341.446 277.115L299.168 295.169C296.812 296.175 295.634 296.679 294.972 297.681C294.31 298.684 294.31 299.965 294.31 302.527V319.922C294.31 322.659 294.31 324.027 295.208 324.62C296.106 325.213 297.364 324.676 299.881 323.601L342.158 305.547C344.514 304.541 345.692 304.038 346.355 303.035C347.017 302.032 347.017 300.752 347.017 298.19V280.794Z" fill="#544769"/>
<path d="M326.93 283.314L341.446 277.115C343.962 276.041 345.221 275.503 346.119 276.096C347.017 276.689 347.017 278.057 347.017 280.794V300.385C347.017 301.776 347.017 302.472 346.56 302.768C346.104 303.063 345.469 302.779 344.199 302.21L341.6 301.046C338.848 299.813 337.473 299.197 336.016 298.849C335.926 298.827 335.836 298.807 335.745 298.787C334.283 298.464 332.776 298.418 329.763 298.326C316.202 297.912 309.421 297.705 308.683 294.776C308.644 294.621 308.614 294.462 308.594 294.303C308.213 291.307 314.452 288.643 326.93 283.314L326.93 283.314Z" fill="#605277"/>
<path d="M337.316 278.908L299.17 295.194C296.814 296.2 295.636 296.703 294.973 297.706C294.311 298.708 294.311 299.989 294.311 302.551V316.867L332.458 300.582C334.814 299.576 335.992 299.073 336.654 298.07C337.316 297.067 337.316 295.786 337.316 293.224V278.908Z" fill="#9286A4"/>
<path d="M210.636 280.794C210.636 278.057 210.636 276.689 211.534 276.096C212.432 275.503 213.69 276.041 216.207 277.115L258.484 295.169C260.84 296.175 262.018 296.679 262.68 297.681C263.342 298.684 263.342 299.965 263.342 302.527V319.922C263.342 322.659 263.342 324.027 262.444 324.62C261.546 325.213 260.288 324.676 257.771 323.601L215.494 305.547C213.138 304.541 211.96 304.038 211.298 303.035C210.636 302.032 210.636 300.752 210.636 298.19V280.794Z" fill="#544769"/>
<path d="M230.723 283.314L216.207 277.115C213.69 276.041 212.432 275.503 211.534 276.096C210.636 276.689 210.636 278.057 210.636 280.794V300.385C210.636 301.776 210.636 302.472 211.092 302.768C211.548 303.063 212.183 302.779 213.453 302.21L216.053 301.046C218.804 299.813 220.18 299.197 221.636 298.849C221.726 298.827 221.817 298.807 221.907 298.787C223.369 298.464 224.876 298.418 227.889 298.326C241.451 297.912 248.231 297.705 248.969 294.776C249.008 294.621 249.038 294.462 249.058 294.303C249.439 291.307 243.2 288.643 230.723 283.314L230.723 283.314Z" fill="#605277"/>
<path d="M220.336 278.908L258.482 295.194C260.839 296.2 262.017 296.703 262.679 297.706C263.341 298.708 263.341 299.989 263.341 302.551V316.867L225.195 300.582C222.838 299.576 221.66 299.073 220.998 298.07C220.336 297.067 220.336 295.786 220.336 293.224V278.908Z" fill="#9286A4"/>
<path d="M347.017 324.073C347.017 321.337 347.017 319.968 346.119 319.375C345.221 318.783 343.962 319.32 341.446 320.395L299.168 338.449C296.812 339.455 295.634 339.958 294.972 340.96C294.31 341.963 294.31 343.244 294.31 345.806V363.202C294.31 365.938 294.31 367.306 295.208 367.899C296.106 368.492 297.364 367.955 299.881 366.88L342.158 348.826C344.514 347.82 345.692 347.317 346.355 346.314C347.017 345.312 347.017 344.031 347.017 341.469V324.073Z" fill="#544769"/>
<path d="M326.93 326.594L341.446 320.395C343.962 319.32 345.221 318.783 346.119 319.375C347.017 319.968 347.017 321.337 347.017 324.073V343.664C347.017 345.056 347.017 345.752 346.56 346.047C346.104 346.343 345.469 346.058 344.199 345.489L341.6 344.325C338.848 343.092 337.473 342.476 336.016 342.128C335.926 342.107 335.836 342.086 335.745 342.066C334.283 341.743 332.776 341.697 329.763 341.605C316.202 341.191 309.421 340.985 308.683 338.056C308.644 337.9 308.614 337.742 308.594 337.582C308.213 334.586 314.452 331.922 326.93 326.594L326.93 326.594Z" fill="#605277"/>
<path d="M337.316 322.188L299.17 338.473C296.814 339.479 295.636 339.982 294.973 340.985C294.311 341.987 294.311 343.269 294.311 345.831V360.146L332.458 343.861C334.814 342.855 335.992 342.352 336.654 341.349C337.316 340.346 337.316 339.065 337.316 336.503V322.188Z" fill="#9286A4"/>
<path d="M210.637 324.073C210.637 321.337 210.637 319.968 211.535 319.375C212.433 318.783 213.691 319.32 216.208 320.395L258.485 338.449C260.841 339.455 262.019 339.958 262.681 340.96C263.343 341.963 263.343 343.244 263.343 345.806V363.202C263.343 365.938 263.343 367.306 262.445 367.899C261.547 368.492 260.289 367.955 257.772 366.88L215.495 348.826C213.139 347.82 211.961 347.317 211.299 346.314C210.637 345.312 210.637 344.031 210.637 341.469V324.073Z" fill="#544769"/>
<path d="M230.724 326.594L216.208 320.395C213.691 319.32 212.433 318.783 211.535 319.375C210.637 319.968 210.637 321.337 210.637 324.073V343.664C210.637 345.056 210.637 345.752 211.093 346.047C211.549 346.343 212.184 346.058 213.454 345.489L216.054 344.325C218.805 343.092 220.181 342.476 221.637 342.128C221.727 342.107 221.818 342.086 221.908 342.066C223.37 341.743 224.877 341.697 227.89 341.605C241.452 341.191 248.232 340.985 248.97 338.056C249.009 337.9 249.039 337.742 249.059 337.582C249.44 334.586 243.201 331.922 230.724 326.594L230.724 326.594Z" fill="#605277"/>
<path d="M220.337 322.188L258.483 338.473C260.84 339.479 262.018 339.982 262.68 340.985C263.342 341.987 263.342 343.269 263.342 345.831V360.146L225.196 343.861C222.839 342.855 221.661 342.352 220.999 341.349C220.337 340.346 220.337 339.065 220.337 336.503V322.188Z" fill="#9286A4"/>
<path d="M221.954 139.725C220.138 138.939 219.23 138.546 219.23 137.889C219.23 137.233 220.138 136.84 221.953 136.054L275.774 112.754C277.34 112.076 278.123 111.737 278.951 111.737C279.779 111.737 280.562 112.076 282.128 112.753L335.775 135.955C337.586 136.738 338.492 137.13 338.493 137.786C338.494 138.442 337.589 138.836 335.78 139.624L282.128 163C280.558 163.684 279.774 164.026 278.943 164.027C278.112 164.028 277.326 163.688 275.755 163.008L221.954 139.725Z" fill="#403453"/>
<mask id="mask3" mask-type="alpha" maskUnits="userSpaceOnUse" x="219" y="111" width="120" height="54">
<path d="M221.954 139.725C220.138 138.939 219.23 138.546 219.23 137.889C219.23 137.233 220.138 136.84 221.953 136.054L275.774 112.754C277.34 112.076 278.123 111.737 278.951 111.737C279.779 111.737 280.562 112.076 282.128 112.753L335.775 135.955C337.586 136.738 338.492 137.13 338.493 137.786C338.494 138.442 337.589 138.836 335.78 139.624L282.128 163C280.558 163.684 279.774 164.026 278.943 164.027C278.112 164.028 277.326 163.688 275.755 163.008L221.954 139.725Z" fill="#403453"/>
</mask>
<g mask="url(#mask3)">
<path d="M219.374 145.469V133.471L278.849 107.619L338.28 133.471V145.469L278.849 119.737L219.374 145.469Z" fill="#241838"/>
</g>
<g filter="url(#filter11_d)">
<circle cx="628.144" cy="433.061" r="24.649" fill="url(#paint6_linear)"/>
</g>
<path d="M627.688 493.314V455.427M627.688 417.541V442.19M627.688 455.427L643.208 442.19M627.688 455.427V442.19M627.688 442.19L616.276 428.496" stroke="url(#paint7_linear)" stroke-width="2" stroke-linecap="round" stroke-linejoin="round"/>
<g filter="url(#filter12_d)">
<circle cx="628.144" cy="402.934" r="26.4749" fill="url(#paint8_linear)"/>
</g>
<g filter="url(#filter13_d)">
<circle cx="605.321" cy="423.018" r="18.2585" fill="url(#paint9_linear)"/>
</g>
<g filter="url(#filter14_d)">
<circle cx="651.88" cy="439.452" r="13.6939" fill="url(#paint10_linear)"/>
</g>
<g filter="url(#filter15_d)">
<circle r="14.6068" transform="matrix(-1 0 0 1 614.653 481.413)" fill="url(#paint11_linear)"/>
</g>
<path d="M614.924 517.117V494.666M614.924 472.215V486.822M614.924 494.666L605.727 486.822M614.924 494.666V486.822M614.924 486.822L621.687 478.707" stroke="url(#paint12_linear)" stroke-width="2" stroke-linecap="round" stroke-linejoin="round"/>
<g filter="url(#filter16_d)">
<circle r="15.6888" transform="matrix(-1 0 0 1 614.653 463.56)" fill="url(#paint13_linear)"/>
</g>
<g filter="url(#filter17_d)">
<circle r="10.8199" transform="matrix(-1 0 0 1 628.178 475.462)" fill="url(#paint14_linear)"/>
</g>
<g filter="url(#filter18_d)">
<circle r="8.1149" transform="matrix(-1 0 0 1 600.587 485.199)" fill="url(#paint15_linear)"/>
</g>
<path fill-rule="evenodd" clip-rule="evenodd" d="M284.981 408.203H271.092V424.341H271.092C271.092 424.351 271.092 424.361 271.092 424.371V424.697H271.112C271.167 425.192 271.339 425.678 271.62 426.138C271.969 426.708 272.481 427.226 273.126 427.662C273.771 428.098 274.536 428.444 275.379 428.68C276.221 428.916 277.124 429.037 278.036 429.037C278.948 429.037 279.851 428.916 280.694 428.68C281.537 428.444 282.302 428.098 282.947 427.662C283.592 427.226 284.103 426.708 284.452 426.138C284.734 425.678 284.906 425.192 284.961 424.697H284.981V408.203Z" fill="#202037"/>
<g filter="url(#filter19_d)">
<path fill-rule="evenodd" clip-rule="evenodd" d="M278.13 353.568C276.393 353.568 275.237 355.581 272.926 359.608L252.644 394.942C250.387 398.874 249.24 400.872 250.031 402.361C250.232 404.25 250.935 406.11 252.113 407.864C253.528 409.971 255.602 411.885 258.217 413.497C260.831 415.109 263.935 416.388 267.351 417.26C270.767 418.133 274.429 418.582 278.126 418.582C281.824 418.582 285.485 418.133 288.901 417.26C292.318 416.388 295.421 415.109 298.036 413.497C300.651 411.885 302.725 409.971 304.14 407.864C305.315 406.115 306.017 404.261 306.22 402.376C307.027 400.886 305.881 398.888 303.616 394.942L283.333 359.608C281.022 355.581 279.867 353.568 278.13 353.568Z" fill="#33334C"/>
</g>
<g filter="url(#filter20_d)">
<path fill-rule="evenodd" clip-rule="evenodd" d="M278.123 340.439C276.392 340.439 275.238 342.436 272.929 346.429L255.389 376.765C253.087 380.745 251.93 382.746 252.771 384.244C252.985 385.871 253.608 387.471 254.622 388.984C255.899 390.891 257.772 392.623 260.132 394.082C262.492 395.541 265.294 396.699 268.378 397.489C271.461 398.278 274.766 398.685 278.104 398.685C281.442 398.685 284.747 398.278 287.831 397.489C290.915 396.699 293.717 395.541 296.077 394.082C298.437 392.623 300.309 390.891 301.587 388.984C302.583 387.496 303.203 385.925 303.427 384.326C303.438 384.307 303.45 384.287 303.462 384.267C304.327 382.767 303.171 380.766 300.857 376.765L283.317 346.429C281.008 342.436 279.854 340.439 278.123 340.439Z" fill="#515170"/>
</g>
<g filter="url(#filter21_d)">
<path fill-rule="evenodd" clip-rule="evenodd" d="M278.131 333.102C277.562 333.102 277.179 333.746 276.412 335.035L262.205 358.912C259.812 362.935 258.615 364.946 259.478 366.463C259.494 366.491 259.511 366.519 259.528 366.547C259.731 367.6 260.165 368.633 260.821 369.617C261.763 371.031 263.143 372.315 264.883 373.398C266.623 374.48 268.689 375.338 270.963 375.924C273.237 376.509 275.674 376.811 278.135 376.811C280.596 376.811 283.033 376.509 285.306 375.924C287.58 375.338 289.646 374.48 291.386 373.398C293.126 372.315 294.507 371.031 295.449 369.617C296.108 368.627 296.543 367.587 296.745 366.528C296.758 366.506 296.771 366.485 296.783 366.463C297.646 364.946 296.449 362.935 294.056 358.912L279.849 335.035C279.083 333.746 278.699 333.102 278.131 333.102Z" fill="#68688E"/>
</g>
<path fill-rule="evenodd" clip-rule="evenodd" d="M521.062 421.904H503.75V489.627H521.062V421.904ZM520.403 491.867C520.838 491.156 521.062 490.395 521.062 489.627H512.406H503.75C503.75 490.395 503.974 491.156 504.409 491.867C504.844 492.577 505.482 493.222 506.285 493.765C507.089 494.309 508.043 494.74 509.094 495.034C510.144 495.328 511.269 495.479 512.406 495.479C513.543 495.479 514.668 495.328 515.719 495.034C516.769 494.74 517.723 494.309 518.527 493.765C519.331 493.222 519.968 492.577 520.403 491.867Z" fill="#241838"/>
<path d="M469.243 316.658C470.525 316.267 471.166 316.072 471.824 316.092C472.482 316.112 473.11 316.345 474.367 316.813L573.198 353.614C575.717 354.552 576.977 355.021 577.692 356.05C578.407 357.079 578.407 358.423 578.407 361.111V437.886C578.407 439.061 578.407 439.648 578.119 440.124C577.832 440.601 577.313 440.875 576.274 441.423L559.726 450.157C559.334 450.364 559.139 450.467 558.925 450.48C558.711 450.494 558.504 450.416 558.09 450.261L533.759 441.137C531.201 440.178 529.921 439.698 528.714 439.065C527.507 438.433 526.384 437.655 524.138 436.098L461.253 392.497C454.509 387.821 451.136 385.483 449.311 381.997C447.486 378.511 447.486 374.407 447.486 366.2V352.116L448.446 324.409C448.469 323.72 448.481 323.375 448.677 323.121C448.872 322.867 449.202 322.767 449.861 322.565L469.243 316.658Z" fill="#241838"/>
<g filter="url(#filter22_d)">
<path d="M447.486 327.644C447.486 325.001 447.486 323.68 448.354 323.084C449.222 322.488 450.455 322.962 452.922 323.911L554.885 363.127C557.367 364.082 558.607 364.559 559.31 365.582C560.013 366.606 560.013 367.935 560.013 370.594V445.835C560.013 448.478 560.013 449.799 559.145 450.395C558.277 450.991 557.044 450.517 554.577 449.568L452.614 410.352C450.133 409.397 448.892 408.92 448.189 407.897C447.486 406.873 447.486 405.544 447.486 402.885V327.644Z" fill="#F6F0FF"/>
</g>
<path fill-rule="evenodd" clip-rule="evenodd" d="M529.607 560.031H512.295V580.589H512.32C512.389 581.206 512.603 581.813 512.954 582.386C513.389 583.096 514.027 583.741 514.83 584.285C515.634 584.828 516.588 585.259 517.639 585.553C518.689 585.848 519.814 585.999 520.951 585.999C522.088 585.999 523.213 585.848 524.264 585.553C525.314 585.259 526.268 584.828 527.072 584.285C527.876 583.741 528.513 583.096 528.948 582.386C529.299 581.813 529.513 581.206 529.582 580.589H529.607V580.193C529.607 580.178 529.607 580.162 529.607 580.146H529.607V560.031Z" fill="#202037"/>
<g filter="url(#filter23_d)">
<path fill-rule="evenodd" clip-rule="evenodd" d="M521.068 491.188C519.331 491.188 518.175 493.201 515.864 497.227L488.031 545.717C485.75 549.69 484.603 551.688 485.443 553.182C485.705 555.523 486.593 557.827 488.079 560.001C489.874 562.626 492.504 565.012 495.819 567.021C499.135 569.031 503.071 570.625 507.403 571.712C511.735 572.8 516.378 573.359 521.067 573.359C525.756 573.359 530.399 572.8 534.731 571.712C539.063 570.625 542.999 569.031 546.315 567.021C549.63 565.012 552.26 562.626 554.055 560.001C555.539 557.828 556.428 555.526 556.69 553.186C557.535 551.692 556.388 549.694 554.105 545.717L526.272 497.227C523.96 493.201 522.805 491.188 521.068 491.188Z" fill="#33334C"/>
</g>
<g filter="url(#filter24_d)">
<path fill-rule="evenodd" clip-rule="evenodd" d="M521.06 474.828C519.329 474.828 518.174 476.825 515.865 480.818L491.44 523.061C489.157 527.011 488 529.011 488.803 530.505C489.014 532.687 489.825 534.835 491.209 536.859C492.833 539.235 495.213 541.395 498.214 543.213C501.215 545.032 504.778 546.475 508.699 547.459C512.62 548.444 516.823 548.95 521.067 548.95C525.311 548.95 529.514 548.444 533.435 547.459C537.356 546.475 540.918 545.032 543.919 543.213C546.92 541.395 549.301 539.235 550.925 536.859C552.316 534.825 553.128 532.665 553.333 530.472C554.102 528.981 552.945 526.981 550.679 523.061L526.254 480.818C523.945 476.825 522.79 474.828 521.06 474.828Z" fill="#515170"/>
</g>
<g filter="url(#filter25_d)">
<path fill-rule="evenodd" clip-rule="evenodd" d="M521.067 466.186C520.498 466.186 520.115 466.83 519.348 468.119L499.888 500.826C497.494 504.849 496.298 506.86 497.16 508.377C497.177 508.406 497.193 508.434 497.211 508.461C497.437 509.893 498.014 511.299 498.926 512.633C500.13 514.395 501.895 515.997 504.121 517.345C506.346 518.694 508.988 519.764 511.896 520.494C514.804 521.224 517.92 521.6 521.068 521.6C524.215 521.6 527.331 521.224 530.239 520.494C533.147 519.764 535.789 518.694 538.014 517.345C540.24 515.997 542.005 514.395 543.209 512.633C544.121 511.299 544.698 509.892 544.925 508.459C544.941 508.432 544.958 508.405 544.974 508.377C545.836 506.86 544.64 504.849 542.246 500.826L522.786 468.119C522.019 466.83 521.636 466.186 521.067 466.186Z" fill="#68688E"/>
</g>
<defs>
<filter id="filter0_d" x="94.4365" y="204.902" width="89.298" height="89.298" filterUnits="userSpaceOnUse" color-interpolation-filters="sRGB">
<feFlood flood-opacity="0" result="BackgroundImageFix"/>
<feColorMatrix in="SourceAlpha" type="matrix" values="0 0 0 0 0 0 0 0 0 0 0 0 0 0 0 0 0 0 127 0"/>
<feOffset dy="8"/>
<feGaussianBlur stdDeviation="10"/>
<feColorMatrix type="matrix" values="0 0 0 0 0.0509804 0 0 0 0 0.0627451 0 0 0 0 0.121569 0 0 0 0.4 0"/>
<feBlend mode="normal" in2="BackgroundImageFix" result="effect1_dropShadow"/>
<feBlend mode="normal" in="SourceGraphic" in2="effect1_dropShadow" result="shape"/>
</filter>
<filter id="filter1_d" x="92.6104" y="172.949" width="92.9497" height="92.9497" filterUnits="userSpaceOnUse" color-interpolation-filters="sRGB">
<feFlood flood-opacity="0" result="BackgroundImageFix"/>
<feColorMatrix in="SourceAlpha" type="matrix" values="0 0 0 0 0 0 0 0 0 0 0 0 0 0 0 0 0 0 127 0"/>
<feOffset dy="8"/>
<feGaussianBlur stdDeviation="10"/>
<feColorMatrix type="matrix" values="0 0 0 0 0.0509804 0 0 0 0 0.0627451 0 0 0 0 0.121569 0 0 0 0.4 0"/>
<feBlend mode="normal" in2="BackgroundImageFix" result="effect1_dropShadow"/>
<feBlend mode="normal" in="SourceGraphic" in2="effect1_dropShadow" result="shape"/>
</filter>
<filter id="filter2_d" x="78.0039" y="201.25" width="76.5171" height="76.5171" filterUnits="userSpaceOnUse" color-interpolation-filters="sRGB">
<feFlood flood-opacity="0" result="BackgroundImageFix"/>
<feColorMatrix in="SourceAlpha" type="matrix" values="0 0 0 0 0 0 0 0 0 0 0 0 0 0 0 0 0 0 127 0"/>
<feOffset dy="8"/>
<feGaussianBlur stdDeviation="10"/>
<feColorMatrix type="matrix" values="0 0 0 0 0.0509804 0 0 0 0 0.0627451 0 0 0 0 0.121569 0 0 0 0.4 0"/>
<feBlend mode="normal" in2="BackgroundImageFix" result="effect1_dropShadow"/>
<feBlend mode="normal" in="SourceGraphic" in2="effect1_dropShadow" result="shape"/>
</filter>
<filter id="filter3_d" x="129.128" y="222.248" width="67.3878" height="67.3878" filterUnits="userSpaceOnUse" color-interpolation-filters="sRGB">
<feFlood flood-opacity="0" result="BackgroundImageFix"/>
<feColorMatrix in="SourceAlpha" type="matrix" values="0 0 0 0 0 0 0 0 0 0 0 0 0 0 0 0 0 0 127 0"/>
<feOffset dy="8"/>
<feGaussianBlur stdDeviation="10"/>
<feColorMatrix type="matrix" values="0 0 0 0 0.0509804 0 0 0 0 0.0627451 0 0 0 0 0.121569 0 0 0 0.4 0"/>
<feBlend mode="normal" in2="BackgroundImageFix" result="effect1_dropShadow"/>
<feBlend mode="normal" in="SourceGraphic" in2="effect1_dropShadow" result="shape"/>
</filter>
<filter id="filter4_d" x="67.0938" y="249.6" width="96.697" height="105.014" filterUnits="userSpaceOnUse" color-interpolation-filters="sRGB">
<feFlood flood-opacity="0" result="BackgroundImageFix"/>
<feColorMatrix in="SourceAlpha" type="matrix" values="0 0 0 0 0 0 0 0 0 0 0 0 0 0 0 0 0 0 127 0"/>
<feOffset dy="8"/>
<feGaussianBlur stdDeviation="10"/>
<feColorMatrix type="matrix" values="0 0 0 0 0.0509804 0 0 0 0 0.0627451 0 0 0 0 0.121569 0 0 0 0.4 0"/>
<feBlend mode="normal" in2="BackgroundImageFix" result="effect1_dropShadow"/>
<feBlend mode="normal" in="SourceGraphic" in2="effect1_dropShadow" result="shape"/>
</filter>
<filter id="filter5_d" x="69.8105" y="236.471" width="91.2516" height="98.2455" filterUnits="userSpaceOnUse" color-interpolation-filters="sRGB">
<feFlood flood-opacity="0" result="BackgroundImageFix"/>
<feColorMatrix in="SourceAlpha" type="matrix" values="0 0 0 0 0 0 0 0 0 0 0 0 0 0 0 0 0 0 127 0"/>
<feOffset dy="8"/>
<feGaussianBlur stdDeviation="10"/>
<feColorMatrix type="matrix" values="0 0 0 0 0.0509804 0 0 0 0 0.0627451 0 0 0 0 0.121569 0 0 0 0.4 0"/>
<feBlend mode="normal" in2="BackgroundImageFix" result="effect1_dropShadow"/>
<feBlend mode="normal" in="SourceGraphic" in2="effect1_dropShadow" result="shape"/>
</filter>
<filter id="filter6_d" x="76.5107" y="229.133" width="77.8646" height="83.7092" filterUnits="userSpaceOnUse" color-interpolation-filters="sRGB">
<feFlood flood-opacity="0" result="BackgroundImageFix"/>
<feColorMatrix in="SourceAlpha" type="matrix" values="0 0 0 0 0 0 0 0 0 0 0 0 0 0 0 0 0 0 127 0"/>
<feOffset dy="8"/>
<feGaussianBlur stdDeviation="10"/>
<feColorMatrix type="matrix" values="0 0 0 0 0.0509804 0 0 0 0 0.0627451 0 0 0 0 0.121569 0 0 0 0.4 0"/>
<feBlend mode="normal" in2="BackgroundImageFix" result="effect1_dropShadow"/>
<feBlend mode="normal" in="SourceGraphic" in2="effect1_dropShadow" result="shape"/>
</filter>
<filter id="filter7_d" x="96.9023" y="257.379" width="111.8" height="122.172" filterUnits="userSpaceOnUse" color-interpolation-filters="sRGB">
<feFlood flood-opacity="0" result="BackgroundImageFix"/>
<feColorMatrix in="SourceAlpha" type="matrix" values="0 0 0 0 0 0 0 0 0 0 0 0 0 0 0 0 0 0 127 0"/>
<feOffset dy="8"/>
<feGaussianBlur stdDeviation="10"/>
<feColorMatrix type="matrix" values="0 0 0 0 0.0509804 0 0 0 0 0.0627451 0 0 0 0 0.121569 0 0 0 0.4 0"/>
<feBlend mode="normal" in2="BackgroundImageFix" result="effect1_dropShadow"/>
<feBlend mode="normal" in="SourceGraphic" in2="effect1_dropShadow" result="shape"/>
</filter>
<filter id="filter8_d" x="100.284" y="241.02" width="105.022" height="114.122" filterUnits="userSpaceOnUse" color-interpolation-filters="sRGB">
<feFlood flood-opacity="0" result="BackgroundImageFix"/>
<feColorMatrix in="SourceAlpha" type="matrix" values="0 0 0 0 0 0 0 0 0 0 0 0 0 0 0 0 0 0 127 0"/>
<feOffset dy="8"/>
<feGaussianBlur stdDeviation="10"/>
<feColorMatrix type="matrix" values="0 0 0 0 0.0509804 0 0 0 0 0.0627451 0 0 0 0 0.121569 0 0 0 0.4 0"/>
<feBlend mode="normal" in2="BackgroundImageFix" result="effect1_dropShadow"/>
<feBlend mode="normal" in="SourceGraphic" in2="effect1_dropShadow" result="shape"/>
</filter>
<filter id="filter9_d" x="108.616" y="232.377" width="88.3722" height="95.4141" filterUnits="userSpaceOnUse" color-interpolation-filters="sRGB">
<feFlood flood-opacity="0" result="BackgroundImageFix"/>
<feColorMatrix in="SourceAlpha" type="matrix" values="0 0 0 0 0 0 0 0 0 0 0 0 0 0 0 0 0 0 127 0"/>
<feOffset dy="8"/>
<feGaussianBlur stdDeviation="10"/>
<feColorMatrix type="matrix" values="0 0 0 0 0.0509804 0 0 0 0 0.0627451 0 0 0 0 0.121569 0 0 0 0.4 0"/>
<feBlend mode="normal" in2="BackgroundImageFix" result="effect1_dropShadow"/>
<feBlend mode="normal" in="SourceGraphic" in2="effect1_dropShadow" result="shape"/>
</filter>
<filter id="filter10_d" x="130.637" y="105.582" width="296.381" height="286.505" filterUnits="userSpaceOnUse" color-interpolation-filters="sRGB">
<feFlood flood-opacity="0" result="BackgroundImageFix"/>
<feColorMatrix in="SourceAlpha" type="matrix" values="0 0 0 0 0 0 0 0 0 0 0 0 0 0 0 0 0 0 127 0"/>
<feOffset dy="24"/>
<feGaussianBlur stdDeviation="40"/>
<feColorMatrix type="matrix" values="0 0 0 0 1 0 0 0 0 1 0 0 0 0 1 0 0 0 0.5 0"/>
<feBlend mode="normal" in2="BackgroundImageFix" result="effect1_dropShadow"/>
<feBlend mode="normal" in="SourceGraphic" in2="effect1_dropShadow" result="shape"/>
</filter>
<filter id="filter11_d" x="583.495" y="396.412" width="89.298" height="89.298" filterUnits="userSpaceOnUse" color-interpolation-filters="sRGB">
<feFlood flood-opacity="0" result="BackgroundImageFix"/>
<feColorMatrix in="SourceAlpha" type="matrix" values="0 0 0 0 0 0 0 0 0 0 0 0 0 0 0 0 0 0 127 0"/>
<feOffset dy="8"/>
<feGaussianBlur stdDeviation="10"/>
<feColorMatrix type="matrix" values="0 0 0 0 0.0509804 0 0 0 0 0.0627451 0 0 0 0 0.121569 0 0 0 0.4 0"/>
<feBlend mode="normal" in2="BackgroundImageFix" result="effect1_dropShadow"/>
<feBlend mode="normal" in="SourceGraphic" in2="effect1_dropShadow" result="shape"/>
</filter>
<filter id="filter12_d" x="581.669" y="364.459" width="92.9497" height="92.9497" filterUnits="userSpaceOnUse" color-interpolation-filters="sRGB">
<feFlood flood-opacity="0" result="BackgroundImageFix"/>
<feColorMatrix in="SourceAlpha" type="matrix" values="0 0 0 0 0 0 0 0 0 0 0 0 0 0 0 0 0 0 127 0"/>
<feOffset dy="8"/>
<feGaussianBlur stdDeviation="10"/>
<feColorMatrix type="matrix" values="0 0 0 0 0.0509804 0 0 0 0 0.0627451 0 0 0 0 0.121569 0 0 0 0.4 0"/>
<feBlend mode="normal" in2="BackgroundImageFix" result="effect1_dropShadow"/>
<feBlend mode="normal" in="SourceGraphic" in2="effect1_dropShadow" result="shape"/>
</filter>
<filter id="filter13_d" x="567.062" y="392.76" width="76.5171" height="76.5171" filterUnits="userSpaceOnUse" color-interpolation-filters="sRGB">
<feFlood flood-opacity="0" result="BackgroundImageFix"/>
<feColorMatrix in="SourceAlpha" type="matrix" values="0 0 0 0 0 0 0 0 0 0 0 0 0 0 0 0 0 0 127 0"/>
<feOffset dy="8"/>
<feGaussianBlur stdDeviation="10"/>
<feColorMatrix type="matrix" values="0 0 0 0 0.0509804 0 0 0 0 0.0627451 0 0 0 0 0.121569 0 0 0 0.4 0"/>
<feBlend mode="normal" in2="BackgroundImageFix" result="effect1_dropShadow"/>
<feBlend mode="normal" in="SourceGraphic" in2="effect1_dropShadow" result="shape"/>
</filter>
<filter id="filter14_d" x="618.187" y="413.758" width="67.3878" height="67.3878" filterUnits="userSpaceOnUse" color-interpolation-filters="sRGB">
<feFlood flood-opacity="0" result="BackgroundImageFix"/>
<feColorMatrix in="SourceAlpha" type="matrix" values="0 0 0 0 0 0 0 0 0 0 0 0 0 0 0 0 0 0 127 0"/>
<feOffset dy="8"/>
<feGaussianBlur stdDeviation="10"/>
<feColorMatrix type="matrix" values="0 0 0 0 0.0509804 0 0 0 0 0.0627451 0 0 0 0 0.121569 0 0 0 0.4 0"/>
<feBlend mode="normal" in2="BackgroundImageFix" result="effect1_dropShadow"/>
<feBlend mode="normal" in="SourceGraphic" in2="effect1_dropShadow" result="shape"/>
</filter>
<filter id="filter15_d" x="580.046" y="454.807" width="69.2136" height="69.2136" filterUnits="userSpaceOnUse" color-interpolation-filters="sRGB">
<feFlood flood-opacity="0" result="BackgroundImageFix"/>
<feColorMatrix in="SourceAlpha" type="matrix" values="0 0 0 0 0 0 0 0 0 0 0 0 0 0 0 0 0 0 127 0"/>
<feOffset dy="8"/>
<feGaussianBlur stdDeviation="10"/>
<feColorMatrix type="matrix" values="0 0 0 0 0.0509804 0 0 0 0 0.0627451 0 0 0 0 0.121569 0 0 0 0.4 0"/>
<feBlend mode="normal" in2="BackgroundImageFix" result="effect1_dropShadow"/>
<feBlend mode="normal" in="SourceGraphic" in2="effect1_dropShadow" result="shape"/>
</filter>
<filter id="filter16_d" x="578.964" y="435.871" width="71.3776" height="71.3776" filterUnits="userSpaceOnUse" color-interpolation-filters="sRGB">
<feFlood flood-opacity="0" result="BackgroundImageFix"/>
<feColorMatrix in="SourceAlpha" type="matrix" values="0 0 0 0 0 0 0 0 0 0 0 0 0 0 0 0 0 0 127 0"/>
<feOffset dy="8"/>
<feGaussianBlur stdDeviation="10"/>
<feColorMatrix type="matrix" values="0 0 0 0 0.0509804 0 0 0 0 0.0627451 0 0 0 0 0.121569 0 0 0 0.4 0"/>
<feBlend mode="normal" in2="BackgroundImageFix" result="effect1_dropShadow"/>
<feBlend mode="normal" in="SourceGraphic" in2="effect1_dropShadow" result="shape"/>
</filter>
<filter id="filter17_d" x="597.358" y="452.643" width="61.6397" height="61.6397" filterUnits="userSpaceOnUse" color-interpolation-filters="sRGB">
<feFlood flood-opacity="0" result="BackgroundImageFix"/>
<feColorMatrix in="SourceAlpha" type="matrix" values="0 0 0 0 0 0 0 0 0 0 0 0 0 0 0 0 0 0 127 0"/>
<feOffset dy="8"/>
<feGaussianBlur stdDeviation="10"/>
<feColorMatrix type="matrix" values="0 0 0 0 0.0509804 0 0 0 0 0.0627451 0 0 0 0 0.121569 0 0 0 0.4 0"/>
<feBlend mode="normal" in2="BackgroundImageFix" result="effect1_dropShadow"/>
<feBlend mode="normal" in="SourceGraphic" in2="effect1_dropShadow" result="shape"/>
</filter>
<filter id="filter18_d" x="572.473" y="465.084" width="56.2298" height="56.2298" filterUnits="userSpaceOnUse" color-interpolation-filters="sRGB">
<feFlood flood-opacity="0" result="BackgroundImageFix"/>
<feColorMatrix in="SourceAlpha" type="matrix" values="0 0 0 0 0 0 0 0 0 0 0 0 0 0 0 0 0 0 127 0"/>
<feOffset dy="8"/>
<feGaussianBlur stdDeviation="10"/>
<feColorMatrix type="matrix" values="0 0 0 0 0.0509804 0 0 0 0 0.0627451 0 0 0 0 0.121569 0 0 0 0.4 0"/>
<feBlend mode="normal" in2="BackgroundImageFix" result="effect1_dropShadow"/>
<feBlend mode="normal" in="SourceGraphic" in2="effect1_dropShadow" result="shape"/>
</filter>
<filter id="filter19_d" x="229.781" y="341.568" width="96.697" height="105.014" filterUnits="userSpaceOnUse" color-interpolation-filters="sRGB">
<feFlood flood-opacity="0" result="BackgroundImageFix"/>
<feColorMatrix in="SourceAlpha" type="matrix" values="0 0 0 0 0 0 0 0 0 0 0 0 0 0 0 0 0 0 127 0"/>
<feOffset dy="8"/>
<feGaussianBlur stdDeviation="10"/>
<feColorMatrix type="matrix" values="0 0 0 0 0.0509804 0 0 0 0 0.0627451 0 0 0 0 0.121569 0 0 0 0.4 0"/>
<feBlend mode="normal" in2="BackgroundImageFix" result="effect1_dropShadow"/>
<feBlend mode="normal" in="SourceGraphic" in2="effect1_dropShadow" result="shape"/>
</filter>
<filter id="filter20_d" x="232.497" y="328.439" width="91.2516" height="98.2455" filterUnits="userSpaceOnUse" color-interpolation-filters="sRGB">
<feFlood flood-opacity="0" result="BackgroundImageFix"/>
<feColorMatrix in="SourceAlpha" type="matrix" values="0 0 0 0 0 0 0 0 0 0 0 0 0 0 0 0 0 0 127 0"/>
<feOffset dy="8"/>
<feGaussianBlur stdDeviation="10"/>
<feColorMatrix type="matrix" values="0 0 0 0 0.0509804 0 0 0 0 0.0627451 0 0 0 0 0.121569 0 0 0 0.4 0"/>
<feBlend mode="normal" in2="BackgroundImageFix" result="effect1_dropShadow"/>
<feBlend mode="normal" in="SourceGraphic" in2="effect1_dropShadow" result="shape"/>
</filter>
<filter id="filter21_d" x="239.198" y="321.102" width="77.8646" height="83.7092" filterUnits="userSpaceOnUse" color-interpolation-filters="sRGB">
<feFlood flood-opacity="0" result="BackgroundImageFix"/>
<feColorMatrix in="SourceAlpha" type="matrix" values="0 0 0 0 0 0 0 0 0 0 0 0 0 0 0 0 0 0 127 0"/>
<feOffset dy="8"/>
<feGaussianBlur stdDeviation="10"/>
<feColorMatrix type="matrix" values="0 0 0 0 0.0509804 0 0 0 0 0.0627451 0 0 0 0 0.121569 0 0 0 0.4 0"/>
<feBlend mode="normal" in2="BackgroundImageFix" result="effect1_dropShadow"/>
<feBlend mode="normal" in="SourceGraphic" in2="effect1_dropShadow" result="shape"/>
</filter>
<filter id="filter22_d" x="367.486" y="242.82" width="272.527" height="287.839" filterUnits="userSpaceOnUse" color-interpolation-filters="sRGB">
<feFlood flood-opacity="0" result="BackgroundImageFix"/>
<feColorMatrix in="SourceAlpha" type="matrix" values="0 0 0 0 0 0 0 0 0 0 0 0 0 0 0 0 0 0 127 0"/>
<feOffset/>
<feGaussianBlur stdDeviation="40"/>
<feColorMatrix type="matrix" values="0 0 0 0 1 0 0 0 0 1 0 0 0 0 1 0 0 0 0.5 0"/>
<feBlend mode="normal" in2="BackgroundImageFix" result="effect1_dropShadow"/>
<feBlend mode="normal" in="SourceGraphic" in2="effect1_dropShadow" result="shape"/>
</filter>
<filter id="filter23_d" x="465.168" y="479.188" width="111.8" height="122.172" filterUnits="userSpaceOnUse" color-interpolation-filters="sRGB">
<feFlood flood-opacity="0" result="BackgroundImageFix"/>
<feColorMatrix in="SourceAlpha" type="matrix" values="0 0 0 0 0 0 0 0 0 0 0 0 0 0 0 0 0 0 127 0"/>
<feOffset dy="8"/>
<feGaussianBlur stdDeviation="10"/>
<feColorMatrix type="matrix" values="0 0 0 0 0.0509804 0 0 0 0 0.0627451 0 0 0 0 0.121569 0 0 0 0.4 0"/>
<feBlend mode="normal" in2="BackgroundImageFix" result="effect1_dropShadow"/>
<feBlend mode="normal" in="SourceGraphic" in2="effect1_dropShadow" result="shape"/>
</filter>
<filter id="filter24_d" x="468.549" y="462.828" width="105.022" height="114.122" filterUnits="userSpaceOnUse" color-interpolation-filters="sRGB">
<feFlood flood-opacity="0" result="BackgroundImageFix"/>
<feColorMatrix in="SourceAlpha" type="matrix" values="0 0 0 0 0 0 0 0 0 0 0 0 0 0 0 0 0 0 127 0"/>
<feOffset dy="8"/>
<feGaussianBlur stdDeviation="10"/>
<feColorMatrix type="matrix" values="0 0 0 0 0.0509804 0 0 0 0 0.0627451 0 0 0 0 0.121569 0 0 0 0.4 0"/>
<feBlend mode="normal" in2="BackgroundImageFix" result="effect1_dropShadow"/>
<feBlend mode="normal" in="SourceGraphic" in2="effect1_dropShadow" result="shape"/>
</filter>
<filter id="filter25_d" x="476.881" y="454.186" width="88.3722" height="95.4141" filterUnits="userSpaceOnUse" color-interpolation-filters="sRGB">
<feFlood flood-opacity="0" result="BackgroundImageFix"/>
<feColorMatrix in="SourceAlpha" type="matrix" values="0 0 0 0 0 0 0 0 0 0 0 0 0 0 0 0 0 0 127 0"/>
<feOffset dy="8"/>
<feGaussianBlur stdDeviation="10"/>
<feColorMatrix type="matrix" values="0 0 0 0 0.0509804 0 0 0 0 0.0627451 0 0 0 0 0.121569 0 0 0 0.4 0"/>
<feBlend mode="normal" in2="BackgroundImageFix" result="effect1_dropShadow"/>
<feBlend mode="normal" in="SourceGraphic" in2="effect1_dropShadow" result="shape"/>
</filter>
<linearGradient id="paint0_linear" x1="284.001" y1="508.999" x2="681.001" y2="322.999" gradientUnits="userSpaceOnUse">
<stop stop-color="#1C122D" stop-opacity="0"/>
<stop offset="0.509773" stop-color="#1C122D"/>
<stop offset="1" stop-color="#1C122D" stop-opacity="0"/>
</linearGradient>
<linearGradient id="paint1_linear" x1="132.424" y1="216.902" x2="146.747" y2="266.2" gradientUnits="userSpaceOnUse">
<stop stop-color="#68688E"/>
<stop offset="1" stop-color="#31314A"/>
</linearGradient>
<linearGradient id="paint2_linear" x1="140.683" y1="226.031" x2="140.683" y2="301.804" gradientUnits="userSpaceOnUse">
<stop stop-color="#3A3A63"/>
<stop offset="1" stop-color="#202037"/>
</linearGradient>
<linearGradient id="paint3_linear" x1="131.93" y1="184.949" x2="147.314" y2="237.899" gradientUnits="userSpaceOnUse">
<stop stop-color="#8686AF"/>
<stop offset="1" stop-color="#424262"/>
</linearGradient>
<linearGradient id="paint4_linear" x1="111.328" y1="213.25" x2="121.937" y2="249.767" gradientUnits="userSpaceOnUse">
<stop stop-color="#8686AF"/>
<stop offset="1" stop-color="#424262"/>
</linearGradient>
<linearGradient id="paint5_linear" x1="159.121" y1="234.248" x2="167.078" y2="261.636" gradientUnits="userSpaceOnUse">
<stop stop-color="#8686AF"/>
<stop offset="1" stop-color="#424262"/>
</linearGradient>
<linearGradient id="paint6_linear" x1="621.482" y1="408.412" x2="635.805" y2="457.71" gradientUnits="userSpaceOnUse">
<stop stop-color="#68688E"/>
<stop offset="1" stop-color="#31314A"/>
</linearGradient>
<linearGradient id="paint7_linear" x1="629.742" y1="417.541" x2="629.742" y2="493.314" gradientUnits="userSpaceOnUse">
<stop stop-color="#3A3A63"/>
<stop offset="1" stop-color="#202037"/>
</linearGradient>
<linearGradient id="paint8_linear" x1="620.988" y1="376.459" x2="636.372" y2="429.409" gradientUnits="userSpaceOnUse">
<stop stop-color="#8686AF"/>
<stop offset="1" stop-color="#424262"/>
</linearGradient>
<linearGradient id="paint9_linear" x1="600.386" y1="404.76" x2="610.996" y2="441.277" gradientUnits="userSpaceOnUse">
<stop stop-color="#8686AF"/>
<stop offset="1" stop-color="#424262"/>
</linearGradient>
<linearGradient id="paint10_linear" x1="648.179" y1="425.758" x2="656.137" y2="453.146" gradientUnits="userSpaceOnUse">
<stop stop-color="#8686AF"/>
<stop offset="1" stop-color="#424262"/>
</linearGradient>
<linearGradient id="paint11_linear" x1="10.659" y1="1.40707e-07" x2="19.1468" y2="29.2136" gradientUnits="userSpaceOnUse">
<stop stop-color="#68688E"/>
<stop offset="1" stop-color="#31314A"/>
</linearGradient>
<linearGradient id="paint12_linear" x1="613.707" y1="472.215" x2="613.707" y2="517.117" gradientUnits="userSpaceOnUse">
<stop stop-color="#3A3A63"/>
<stop offset="1" stop-color="#202037"/>
</linearGradient>
<linearGradient id="paint13_linear" x1="11.4486" y1="1.5113e-07" x2="20.5651" y2="31.3776" gradientUnits="userSpaceOnUse">
<stop stop-color="#8686AF"/>
<stop offset="1" stop-color="#424262"/>
</linearGradient>
<linearGradient id="paint14_linear" x1="7.89558" y1="1.04227e-07" x2="14.1828" y2="21.6397" gradientUnits="userSpaceOnUse">
<stop stop-color="#8686AF"/>
<stop offset="1" stop-color="#424262"/>
</linearGradient>
<linearGradient id="paint15_linear" x1="5.92168" y1="7.81706e-08" x2="10.6371" y2="16.2298" gradientUnits="userSpaceOnUse">
<stop stop-color="#8686AF"/>
<stop offset="1" stop-color="#424262"/>
</linearGradient>
</defs>
</svg>
