<?xml version="1.0" encoding="utf-8"?>
<svg version="1.1" id="Layer_1" xmlns="http://www.w3.org/2000/svg" xmlns:xlink="http://www.w3.org/1999/xlink" x="0px" y="0px"
	 viewBox="0 0 48 48" width="48" height="48" xml:space="preserve">
<g>
	<g>
		<path d="M28.8,38.5c-0.2,0-0.4,0-0.6-0.1L24.6,37c-0.2-0.1-0.3-0.2-0.3-0.4c0-0.2,0.1-0.4,0.3-0.5l17.1-8.5
			c0.1,0,0.2-0.1,0.2-0.1c0.1,0,0.1,0,0.2,0l4.1,1.5c0.2,0.1,0.3,0.2,0.3,0.4c0,0.2-0.1,0.4-0.3,0.5l-16.6,8.3
			C29.4,38.4,29.1,38.5,28.8,38.5z M26,36.5l2.6,1c0.2,0.1,0.4,0.1,0.6,0l15.6-7.8l-2.9-1.1l-0.7,0.4l0.6,0.2
			c0.3,0.1,0.4,0.4,0.3,0.6s-0.4,0.4-0.6,0.3l-1-0.4c-0.1,0-0.2-0.1-0.3-0.3L38,30.5l0.5,0.2c0.3,0.1,0.4,0.4,0.3,0.6
			c-0.1,0.3-0.4,0.4-0.6,0.3l-1-0.4c-0.1,0-0.2-0.1-0.3-0.2l-2.1,1l0.5,0.2c0.3,0.1,0.4,0.4,0.3,0.6c-0.1,0.3-0.4,0.4-0.6,0.3
			l-1-0.4c-0.1,0-0.2-0.1-0.2-0.2l-2.1,1l0.4,0.1c0.3,0.1,0.4,0.4,0.3,0.6s-0.4,0.4-0.6,0.3l-1-0.4c-0.1,0-0.1-0.1-0.2-0.1l-2,1
			l0.3,0.1c0.3,0.1,0.4,0.4,0.3,0.6c-0.1,0.3-0.4,0.4-0.6,0.3l-1-0.4c0,0-0.1,0-0.1-0.1L26,36.5z M21.7,34.1c-0.8,0-1.7-0.4-3.2-0.9
			L6,28.5c-2.1-0.8-3.2-1.2-3.8-2.1l-0.1-0.1c-0.6-0.8-0.6-0.9-0.6-2.9v-1.2c0-2.2,0-3.4,0.9-4c0,0,0,0,0,0c0,0,0.1-0.1,0.1-0.1
			l17.3-8.2c0.5-0.2,0.6-0.3,1.2-0.3c0.6,0,0.8,0.1,1.3,0.3l13.8,5.1c2.1,0.8,3.2,1.2,3.8,2.1c0,0,0,0,0,0c0.7,0.9,0.7,2,0.7,4.2
			v1.3c0,0.9,0,1.4-0.3,1.9c-0.3,0.5-0.7,0.7-1.5,1.2L22.5,34c0,0-0.1,0-0.1,0C22.2,34.1,22,34.1,21.7,34.1z M3.5,18.8
			c-0.2,0-0.4,0-0.5,0.1c-0.5,0.3-0.5,1.2-0.5,3.2v1.2c0,1.8,0,1.8,0.4,2.4L3,25.8c0.5,0.7,1.4,1,3.4,1.8l12.6,4.7
			c1.8,0.7,2.8,1,3.3,0.7c0.5-0.3,0.5-1.2,0.5-3.1c0-1.9,0-3.1-0.5-3.8c0,0,0,0,0,0c-0.5-0.7-1.5-1-3.4-1.8L6.3,19.7
			C4.9,19.2,4,18.8,3.5,18.8z M23.7,30c0,0.9,0,1.7-0.1,2.3l14.9-7.5c0.7-0.4,1-0.6,1.1-0.8c0.1-0.2,0.1-0.6,0.1-1.4v-1.3
			c0-1.7,0-2.6-0.3-3.3L23.3,26c0.4,0.9,0.4,2,0.4,3.8c0,0,0,0,0,0V30C23.7,30,23.7,30,23.7,30z M4.8,18.1c0.5,0.2,1.1,0.4,1.8,0.6
			l12.6,4.7c1.8,0.7,2.9,1.1,3.6,1.8l16.1-8c-0.6-0.4-1.5-0.8-3-1.3l-13.8-5.1c-0.5-0.2-0.6-0.2-1-0.2c-0.4,0-0.4,0-0.8,0.2
			l-0.2,0.1L4.8,18.1z"/>
	</g>
</g>
</svg>
