<svg width="18" height="18" viewBox="0 0 18 18" fill="none" xmlns="http://www.w3.org/2000/svg">
<path d="M12.378 1.5H5.625C3.34704 1.5 1.5 3.34704 1.5 5.625V12.378C1.5 14.6545 3.34554 16.5 5.622 16.5H12.378C14.6544 16.5 16.5 14.6546 16.5 12.3787V5.622C16.5 3.34554 14.6545 1.5 12.378 1.5Z" stroke="#AB78FF" stroke-width="1.5" stroke-linecap="round" stroke-linejoin="round"/>
<path d="M8.03441 7H9.04436V11.5H9.0427C8.00283 11.5 6.85988 10.9371 6.04942 9.90026C4.83249 8.38051 4.5 7.23181 4.5 7.00074M13 11.4999C13 11.4999 12.6326 10.8097 11.887 10.0505C11.3899 9.53136 10.69 9.25067 10.0533 9.25067C10.69 9.25067 11.3899 8.96923 11.887 8.4508C12.6326 7.69093 13 7.00067 13 7.00067M10.0534 9.25146H9.04264" stroke="#AB78FF" stroke-width="1.5" stroke-linecap="round" stroke-linejoin="round"/>
</svg>
