<svg width="198" height="226" viewBox="0 0 198 226" fill="none" xmlns="http://www.w3.org/2000/svg">
<g filter="url(#filter0_ddddd)">
<path d="M50.6174 76.5047L64.4098 62.7251C65.3827 61.7479 66.5391 60.9725 67.8126 60.4436C69.0861 59.9146 70.4515 59.6425 71.8305 59.6428C74.6407 59.6428 77.2827 60.7436 79.2641 62.7251L94.1054 77.5667C95.0827 78.5396 95.858 79.6961 96.3869 80.9695C96.9159 82.243 97.188 83.6085 97.1877 84.9875C97.1877 87.7978 96.0869 90.4397 94.1054 92.4212L83.2529 103.274C85.7932 108.873 89.3251 113.967 93.6781 118.31C98.0201 122.673 103.114 126.218 108.714 128.774L119.566 117.921C120.539 116.944 121.696 116.169 122.969 115.64C124.243 115.111 125.608 114.839 126.987 114.839C129.797 114.839 132.439 115.94 134.421 117.921L149.275 132.75C150.253 133.725 151.029 134.883 151.558 136.159C152.087 137.435 152.359 138.803 152.357 140.184C152.357 142.994 151.256 145.636 149.275 147.617L135.508 161.384C132.348 164.557 127.984 166.357 123.503 166.357C122.558 166.357 121.651 166.279 120.758 166.124C103.3 163.249 85.9854 153.963 72.0118 140.002C58.0511 126.054 48.7785 108.752 45.8646 91.2427C44.9839 85.894 46.7582 80.3899 50.6174 76.5047Z" stroke="#F6F0FF" stroke-width="3" stroke-linecap="round" stroke-linejoin="round"/>
</g>
<defs>
<filter id="filter0_ddddd" x="0.142822" y="0.142822" width="197.714" height="225.714" filterUnits="userSpaceOnUse" color-interpolation-filters="sRGB">
<feFlood flood-opacity="0" result="BackgroundImageFix"/>
<feColorMatrix in="SourceAlpha" type="matrix" values="0 0 0 0 0 0 0 0 0 0 0 0 0 0 0 0 0 0 127 0"/>
<feOffset dx="6" dy="6"/>
<feGaussianBlur stdDeviation="15"/>
<feColorMatrix type="matrix" values="0 0 0 0 0 0 0 0 0 0.00784314 0 0 0 0 0.0470588 0 0 0 0.3 0"/>
<feBlend mode="normal" in2="BackgroundImageFix" result="effect1_dropShadow"/>
<feColorMatrix in="SourceAlpha" type="matrix" values="0 0 0 0 0 0 0 0 0 0 0 0 0 0 0 0 0 0 127 0"/>
<feOffset dx="-6" dy="-6"/>
<feGaussianBlur stdDeviation="15"/>
<feColorMatrix type="matrix" values="0 0 0 0 0.137255 0 0 0 0 0.129412 0 0 0 0 0.227451 0 0 0 0.15 0"/>
<feBlend mode="normal" in2="effect1_dropShadow" result="effect2_dropShadow"/>
<feColorMatrix in="SourceAlpha" type="matrix" values="0 0 0 0 0 0 0 0 0 0 0 0 0 0 0 0 0 0 127 0"/>
<feOffset dx="14" dy="28"/>
<feGaussianBlur stdDeviation="15"/>
<feColorMatrix type="matrix" values="0 0 0 0 0.0156863 0 0 0 0 0.0196078 0 0 0 0 0.054902 0 0 0 0.3 0"/>
<feBlend mode="normal" in2="effect2_dropShadow" result="effect3_dropShadow"/>
<feColorMatrix in="SourceAlpha" type="matrix" values="0 0 0 0 0 0 0 0 0 0 0 0 0 0 0 0 0 0 127 0"/>
<feOffset dx="-14" dy="-28"/>
<feGaussianBlur stdDeviation="15"/>
<feColorMatrix type="matrix" values="0 0 0 0 0.137255 0 0 0 0 0.129412 0 0 0 0 0.227451 0 0 0 0.15 0"/>
<feBlend mode="normal" in2="effect3_dropShadow" result="effect4_dropShadow"/>
<feColorMatrix in="SourceAlpha" type="matrix" values="0 0 0 0 0 0 0 0 0 0 0 0 0 0 0 0 0 0 127 0"/>
<feOffset/>
<feGaussianBlur stdDeviation="8"/>
<feColorMatrix type="matrix" values="0 0 0 0 1 0 0 0 0 1 0 0 0 0 1 0 0 0 0.48 0"/>
<feBlend mode="normal" in2="effect4_dropShadow" result="effect5_dropShadow"/>
<feBlend mode="normal" in="SourceGraphic" in2="effect5_dropShadow" result="shape"/>
</filter>
</defs>
</svg>
