<svg width="16" height="16" viewBox="0 0 16 16" fill="none" xmlns="http://www.w3.org/2000/svg">
<path d="M3.26627 13.5802L3.68849 13.3124H3.68849L3.26627 13.5802ZM12.7337 13.5802L12.3115 13.3124L12.7337 13.5802ZM5.85714 4.16667C5.581 4.16667 5.35714 4.39052 5.35714 4.66667C5.35714 4.94281 5.581 5.16667 5.85714 5.16667V4.16667ZM10.1429 5.16667C10.419 5.16667 10.6429 4.94281 10.6429 4.66667C10.6429 4.39052 10.419 4.16667 10.1429 4.16667V5.16667ZM4.81818 2.5H11.1818V1.5H4.81818V2.5ZM11.1818 2.5C11.6322 2.5 11.8915 2.50257 12.0757 2.54161C12.2149 2.57113 12.2623 2.61003 12.3115 2.6876L13.156 2.15196C12.9389 1.80975 12.6389 1.63876 12.283 1.56334C11.9721 1.49743 11.5885 1.5 11.1818 1.5V2.5ZM13.5 4.86642C13.5 4.19984 13.5004 3.66787 13.4649 3.25131C13.4294 2.83549 13.3542 2.46446 13.156 2.15196L12.3115 2.6876C12.3796 2.79488 12.4374 2.97154 12.4685 3.33629C12.4996 3.7003 12.5 4.18176 12.5 4.86642H13.5ZM4.81818 1.5C4.41148 1.5 4.02793 1.49743 3.71699 1.56334C3.36114 1.63876 3.06111 1.80975 2.84404 2.15196L3.68849 2.6876C3.73769 2.61003 3.78507 2.57113 3.92434 2.54161C4.10851 2.50257 4.36779 2.5 4.81818 2.5V1.5ZM3.5 4.86642C3.5 4.18176 3.50043 3.7003 3.53148 3.33629C3.56258 2.97154 3.62044 2.79488 3.68849 2.6876L2.84404 2.15196C2.64582 2.46446 2.57055 2.83549 2.53509 3.25131C2.49957 3.66787 2.5 4.19984 2.5 4.86642H3.5ZM11.1818 13.5H4.81818V14.5H11.1818V13.5ZM4.81818 13.5C4.36779 13.5 4.10851 13.4974 3.92434 13.4584C3.78507 13.4289 3.73769 13.39 3.68849 13.3124L2.84404 13.848C3.06111 14.1902 3.36114 14.3612 3.71699 14.4367C4.02793 14.5026 4.41148 14.5 4.81818 14.5V13.5ZM2.5 11.1336C2.5 11.8002 2.49957 12.3321 2.53509 12.7487C2.57055 13.1645 2.64583 13.5355 2.84404 13.848L3.68849 13.3124C3.62044 13.2051 3.56258 13.0285 3.53148 12.6637C3.50043 12.2997 3.5 11.8182 3.5 11.1336H2.5ZM11.1818 14.5C11.5885 14.5 11.9721 14.5026 12.283 14.4367C12.6389 14.3612 12.9389 14.1902 13.156 13.848L12.3115 13.3124C12.2623 13.39 12.2149 13.4289 12.0757 13.4584C11.8915 13.4974 11.6322 13.5 11.1818 13.5V14.5ZM12.5 11.1336C12.5 11.8182 12.4996 12.2997 12.4685 12.6637C12.4374 13.0285 12.3796 13.2051 12.3115 13.3124L13.156 13.848C13.3542 13.5355 13.4294 13.1645 13.4649 12.7487C13.5004 12.3321 13.5 11.8002 13.5 11.1336H12.5ZM2.5 4.86642V11.1336H3.5V4.86642H2.5ZM12.5 4.86642V11.1336H13.5V4.86642H12.5ZM5.85714 5.16667H10.1429V4.16667H5.85714V5.16667ZM9.78571 12.5C10.226 12.5 10.6429 12.1588 10.6429 11.6667H9.64286C9.64286 11.609 9.66882 11.5632 9.69709 11.5368C9.72477 11.511 9.75732 11.5 9.78571 11.5V12.5ZM8.92857 11.6667C8.92857 12.1588 9.34538 12.5 9.78571 12.5V11.5C9.81411 11.5 9.84665 11.511 9.87433 11.5368C9.90261 11.5632 9.92857 11.609 9.92857 11.6667H8.92857ZM9.78571 11.8333C9.75732 11.8333 9.72477 11.8223 9.69709 11.7965C9.66882 11.7701 9.64286 11.7243 9.64286 11.6667H10.6429C10.6429 11.1745 10.226 10.8333 9.78571 10.8333V11.8333ZM9.78571 10.8333C9.34538 10.8333 8.92857 11.1745 8.92857 11.6667H9.92857C9.92857 11.7243 9.90261 11.7701 9.87433 11.7965C9.84665 11.8223 9.81411 11.8333 9.78571 11.8333V10.8333ZM9.78571 9.16667C10.226 9.16667 10.6429 8.8255 10.6429 8.33333H9.64286C9.64286 8.27568 9.66882 8.2299 9.69709 8.20351C9.72477 8.17767 9.75732 8.16667 9.78571 8.16667V9.16667ZM8.92857 8.33333C8.92857 8.8255 9.34538 9.16667 9.78571 9.16667V8.16667C9.81411 8.16667 9.84665 8.17767 9.87434 8.20351C9.90261 8.2299 9.92857 8.27568 9.92857 8.33333H8.92857ZM9.78571 8.5C9.75732 8.5 9.72477 8.48899 9.69709 8.46316C9.66882 8.43677 9.64286 8.39098 9.64286 8.33333H10.6429C10.6429 7.84117 10.226 7.5 9.78571 7.5V8.5ZM9.78571 7.5C9.34538 7.5 8.92857 7.84117 8.92857 8.33333H9.92857C9.92857 8.39098 9.90261 8.43677 9.87434 8.46316C9.84665 8.48899 9.81411 8.5 9.78571 8.5V7.5ZM6.21429 12.5C6.65462 12.5 7.07143 12.1588 7.07143 11.6667H6.07143C6.07143 11.609 6.09739 11.5632 6.12566 11.5368C6.15335 11.511 6.18589 11.5 6.21429 11.5V12.5ZM5.35714 11.6667C5.35714 12.1588 5.77395 12.5 6.21429 12.5V11.5C6.24268 11.5 6.27522 11.511 6.30291 11.5368C6.33118 11.5632 6.35714 11.609 6.35714 11.6667H5.35714ZM6.21429 11.8333C6.18589 11.8333 6.15335 11.8223 6.12566 11.7965C6.09739 11.7701 6.07143 11.7243 6.07143 11.6667H7.07143C7.07143 11.1745 6.65462 10.8333 6.21429 10.8333V11.8333ZM6.21429 10.8333C5.77395 10.8333 5.35714 11.1745 5.35714 11.6667H6.35714C6.35714 11.7243 6.33118 11.7701 6.30291 11.7965C6.27522 11.8223 6.24268 11.8333 6.21429 11.8333V10.8333ZM6.21429 9.16667C6.65462 9.16667 7.07143 8.8255 7.07143 8.33333H6.07143C6.07143 8.27568 6.09739 8.2299 6.12566 8.20351C6.15335 8.17767 6.18589 8.16667 6.21429 8.16667V9.16667ZM5.35714 8.33333C5.35714 8.8255 5.77395 9.16667 6.21429 9.16667V8.16667C6.24268 8.16667 6.27523 8.17767 6.30291 8.20351C6.33118 8.2299 6.35714 8.27568 6.35714 8.33333H5.35714ZM6.21429 8.5C6.18589 8.5 6.15335 8.48899 6.12566 8.46316C6.09739 8.43677 6.07143 8.39098 6.07143 8.33333H7.07143C7.07143 7.84117 6.65462 7.5 6.21429 7.5V8.5ZM6.21429 7.5C5.77395 7.5 5.35714 7.84117 5.35714 8.33333H6.35714C6.35714 8.39098 6.33118 8.43677 6.30291 8.46316C6.27523 8.48899 6.24268 8.5 6.21429 8.5V7.5Z" fill="#AB78FF"/>
</svg>
