<?xml version="1.0" encoding="utf-8"?>
<svg version="1.1" id="Layer_1" xmlns="http://www.w3.org/2000/svg" xmlns:xlink="http://www.w3.org/1999/xlink" x="0px" y="0px"
	 viewBox="0 0 20 20" xml:space="preserve">
<g>
	<g>
		<path fill="#AB78FF" d="M7.2,18.5c-1.5,0-3-0.6-4-1.7c-1.1-1.1-1.7-2.5-1.7-4s0.6-3,1.7-4.1l0.9-0.9c0.2-0.2,0.5-0.2,0.7,0
			s0.2,0.5,0,0.7L3.9,9.4c-0.9,0.9-1.4,2.1-1.4,3.3s0.5,2.5,1.4,3.3C4.8,17,6,17.5,7.2,17.5c1.3,0,2.5-0.5,3.3-1.4l0.9-0.9
			c0.2-0.2,0.5-0.2,0.7,0s0.2,0.5,0,0.7l-0.9,0.9C10.2,17.9,8.8,18.5,7.2,18.5z M8.2,12.3c-0.1,0-0.3,0-0.4-0.1
			c-0.2-0.2-0.2-0.5,0-0.7l3.7-3.7c0.2-0.2,0.5-0.2,0.7,0s0.2,0.5,0,0.7l-3.7,3.7C8.4,12.3,8.3,12.3,8.2,12.3z M15.5,12.3
			c-0.1,0-0.3,0-0.4-0.1c-0.2-0.2-0.2-0.5,0-0.7l0.9-0.9c0.9-0.9,1.4-2.1,1.4-3.3c0-1.3-0.5-2.4-1.4-3.3C15.2,3,14,2.5,12.8,2.5
			S10.3,3,9.4,3.9L8.5,4.8C8.3,5,8,5,7.8,4.8s-0.2-0.5,0-0.7l0.9-0.9c1.1-1.1,2.5-1.7,4.1-1.7s3,0.6,4,1.7c1.1,1.1,1.7,2.5,1.7,4
			c0,1.5-0.6,3-1.7,4.1l-0.9,0.9C15.8,12.3,15.7,12.3,15.5,12.3z"/>
	</g>
</g>
</svg>
