<svg width="14" height="14" viewBox="0 0 14 14" fill="none" xmlns="http://www.w3.org/2000/svg">
<path d="M5 6.8708L6.99256 9M6.99256 9L9 6.88658M6.99256 9L6.99256 1M11 5C11 5 11.3978 5 11.7654 5.15224C12.2554 5.35523 12.6448 5.74458 12.8478 6.23463C13 6.60218 13 7.06812 13 8V9C13 10.8856 13 11.8284 12.4142 12.4142C11.8284 13 10.8856 13 9 13H5C3.11438 13 2.17157 13 1.58579 12.4142C1 11.8284 1 10.8856 1 9V8C1 7.06812 1 6.60218 1.15224 6.23463C1.35523 5.74458 1.74458 5.35523 2.23463 5.15224C2.60218 5 3 5 3 5" stroke="#AB78FF" stroke-linecap="round" stroke-linejoin="round"/>
</svg>
