<svg width="24" height="25" viewBox="0 0 24 25" fill="none" xmlns="http://www.w3.org/2000/svg">
<path d="M16 4.5C17.8856 4.5 18.8284 4.5 19.4142 5.08579C20 5.67157 20 6.61438 20 8.5V18.5C20 20.3856 20 21.3284 19.4142 21.9142C18.8284 22.5 17.8856 22.5 16 22.5H8C6.11438 22.5 5.17157 22.5 4.58579 21.9142C4 21.3284 4 20.3856 4 18.5V8.5C4 6.61438 4 5.67157 4.58579 5.08579C5.17157 4.5 6.11438 4.5 8 4.5M16 4.5C16 5.44281 16 5.91421 15.7071 6.20711C15.4142 6.5 14.9428 6.5 14 6.5H10C9.05719 6.5 8.58579 6.5 8.29289 6.20711C8 5.91421 8 5.44281 8 4.5M16 4.5C16 3.55719 16 3.08579 15.7071 2.79289C15.4142 2.5 14.9428 2.5 14 2.5H10C9.05719 2.5 8.58579 2.5 8.29289 2.79289C8 3.08579 8 3.55719 8 4.5M16 10.5H8M16 14.5H8" stroke="#AB78FF" stroke-linecap="round" stroke-linejoin="round"/>
</svg>
