<?xml version="1.0" encoding="utf-8"?>
<svg version="1.1" id="Layer_1" xmlns="http://www.w3.org/2000/svg" xmlns:xlink="http://www.w3.org/1999/xlink" x="0px" y="0px"
	 viewBox="0 0 16 16" xml:space="preserve">
	<g>
		<g>
			<path fill="#F6F0FF" d="M6.3,12.5c-0.1,0-0.2,0-0.3-0.1l-4.3-4c0,0,0,0,0,0c0,0-0.1-0.1-0.1-0.1c0,0,0,0,0,0c0,0,0-0.1,0-0.1
				c0,0,0,0,0,0l0,0c0,0,0,0,0,0l0,0c0,0,0,0,0,0c0-0.1,0-0.1,0-0.1c0,0,0,0,0,0c0-0.1,0.1-0.1,0.1-0.1c0,0,0,0,0,0l4.3-4
				c0.2-0.2,0.5-0.2,0.7,0c0.2,0.2,0.2,0.5,0,0.7L3.3,7.5H14c0.3,0,0.5,0.2,0.5,0.5S14.3,8.5,14,8.5H3.3l3.4,3.1
				c0.2,0.2,0.2,0.5,0,0.7C6.6,12.4,6.4,12.5,6.3,12.5z"/>
		</g>
	</g>
</svg>
