<svg width="16" height="16" viewBox="0 0 16 16" fill="none" xmlns="http://www.w3.org/2000/svg">
<path d="M5.5 2C5.5 1.72386 5.27614 1.5 5 1.5C4.72386 1.5 4.5 1.72386 4.5 2H5.5ZM4.5 6C4.5 6.27614 4.72386 6.5 5 6.5C5.27614 6.5 5.5 6.27614 5.5 6H4.5ZM11.5 2C11.5 1.72386 11.2761 1.5 11 1.5C10.7239 1.5 10.5 1.72386 10.5 2H11.5ZM10.5 6C10.5 6.27614 10.7239 6.5 11 6.5C11.2761 6.5 11.5 6.27614 11.5 6H10.5ZM1.5 6V12H2.5V6H1.5ZM4 14.5H12V13.5H4V14.5ZM14.5 12V6H13.5V12H14.5ZM12 3.5H4V4.5H12V3.5ZM14.5 6C14.5 4.61929 13.3807 3.5 12 3.5V4.5C12.8284 4.5 13.5 5.17157 13.5 6H14.5ZM12 14.5C13.3807 14.5 14.5 13.3807 14.5 12H13.5C13.5 12.8284 12.8284 13.5 12 13.5V14.5ZM1.5 12C1.5 13.3807 2.61929 14.5 4 14.5V13.5C3.17157 13.5 2.5 12.8284 2.5 12H1.5ZM2.5 6C2.5 5.17157 3.17157 4.5 4 4.5V3.5C2.61929 3.5 1.5 4.61929 1.5 6H2.5ZM4.5 2V6H5.5V2H4.5ZM10.5 2V6H11.5V2H10.5Z" fill="#AB78FF"/>
<path d="M2.5 6C2.5 5.17157 3.17157 4.5 4 4.5H12C12.8284 4.5 13.5 5.17157 13.5 6V7.5H2.5V6Z" fill="#AB78FF" stroke="#AB78FF"/>
</svg>
