<svg width="24" height="24" viewBox="0 0 24 24" fill="none" xmlns="http://www.w3.org/2000/svg">
<path d="M16.505 2.25H7.496C4.59768 2.25 2.25 4.59889 2.25 7.496V16.504C2.25 19.4023 4.59889 21.75 7.496 21.75H16.504C19.4022 21.75 21.75 19.4012 21.75 16.505V7.496C21.75 4.59779 19.4012 2.25 16.505 2.25Z" stroke="#AB78FF" stroke-width="1.5" stroke-linecap="round" stroke-linejoin="round"/>
<path d="M16.949 6.71328C16.763 6.71428 16.612 6.86528 16.612 7.05128C16.612 7.23728 16.764 7.38828 16.95 7.38828C17.136 7.38828 17.287 7.23728 17.287 7.05128C17.288 6.86428 17.136 6.71328 16.949 6.71328" stroke="#AB78FF" stroke-width="1.5" stroke-linecap="round" stroke-linejoin="round"/>
<path d="M14.5457 9.45286C15.9516 10.8587 15.9516 13.1381 14.5457 14.544C13.1398 15.9499 10.8605 15.9499 9.45456 14.544C8.04867 13.1381 8.04867 10.8587 9.45456 9.45286C10.8605 8.04696 13.1398 8.04696 14.5457 9.45286" stroke="#AB78FF" stroke-width="1.5" stroke-linecap="round" stroke-linejoin="round"/>
</svg>
