<?xml version="1.0" encoding="utf-8"?>
<svg version="1.1" id="Layer_1" xmlns="http://www.w3.org/2000/svg" xmlns:xlink="http://www.w3.org/1999/xlink" x="0px" y="0px"
	 viewBox="0 0 24 24" xml:space="preserve">
<g>
	<g>
		<path class="st0" d="M15.3,20.5H8.7c-3.3,0-4.9,0-6-1.1c-1.1-1.1-1.1-2.7-1.1-5.8v-3.2c0-3.2,0-4.7,1.1-5.8c1.1-1.1,2.8-1.1,6-1.1
			h6.7c3.3,0,4.9,0,6,1.1c1.1,1.1,1.1,2.7,1.1,5.8v3.2c0,3.2,0,4.7-1.1,5.8C20.2,20.5,18.6,20.5,15.3,20.5z M8.7,4.5
			c-3,0-4.5,0-5.3,0.8c-0.8,0.8-0.8,2.2-0.8,5.1v3.2c0,2.9,0,4.3,0.8,5.1c0.8,0.8,2.3,0.8,5.3,0.8h6.7c3,0,4.5,0,5.3-0.8
			c0.8-0.8,0.8-2.2,0.8-5.1v-3.2c0-2.9,0-4.3-0.8-5.1c-0.8-0.8-2.3-0.8-5.3-0.8H8.7z M12,13.3c-1.3,0-2.3-0.7-4.3-2.2L5,9.2
			C4.8,9,4.8,8.7,4.9,8.5c0.2-0.2,0.5-0.3,0.7-0.1l2.7,1.9c3.7,2.6,3.7,2.6,7.4,0l2.7-1.9c0.2-0.2,0.5-0.1,0.7,0.1
			C19.2,8.7,19.2,9,19,9.2l-2.7,1.9C14.3,12.6,13.3,13.3,12,13.3z"/>
	</g>
</g>
</svg>
