<?xml version="1.0" encoding="utf-8"?>
<svg version="1.1" id="Layer_1" xmlns="http://www.w3.org/2000/svg" xmlns:xlink="http://www.w3.org/1999/xlink" x="0px" y="0px"
	 viewBox="0 0 48 48" width="48" height="48" xml:space="preserve">
<g>
	<g>
		<path d="M23.3,44.5c-0.3,0-0.6,0-0.9-0.1c-0.3-0.1-0.5-0.2-0.7-0.4c-0.2-0.2-0.4-0.4-0.5-0.6C21,43.1,21,42.8,21,42.5
			v-15c0,0,0,0,0,0l-6-2.3c-2.4-0.9-3.6-1.4-4.3-2.4S10,20.5,10,18v-7.9c0-2.6,0-3.9,1-4.6c0,0,0,0,0,0c0,0,0.1-0.1,0.1-0.1L14.4,4
			c0.7-0.3,1.1-0.5,1.6-0.5c0.4,0,0.9,0.1,1.6,0.4L33,9.8c2.4,0.9,3.6,1.4,4.3,2.4c0.7,1.1,0.7,2.3,0.7,4.9v9.4c0,1,0,1.6-0.3,2.1
			c-0.3,0.5-0.8,0.8-1.7,1.4l-2.2,1.4c0,0,0,0-0.1,0c-0.1,0-0.1,0.1-0.2,0.1l0,0c0,0-0.1,0-0.1,0.1c-0.9,0.4-2.1-0.1-4.3-0.9
			l-3.5-1.3v13.2c0,0.3-0.1,0.5-0.2,0.8c-0.1,0.2-0.3,0.5-0.5,0.6c-0.2,0.2-0.5,0.3-0.7,0.4C23.9,44.5,23.6,44.5,23.3,44.5z M22,28
			v14.6c0,0.1,0,0.2,0.1,0.3c0.1,0.1,0.1,0.2,0.3,0.3c0.1,0.1,0.3,0.2,0.4,0.2c0.3,0.1,0.7,0.1,1.1,0c0.2-0.1,0.3-0.1,0.4-0.2
			c0.1-0.1,0.2-0.2,0.3-0.3c0.1-0.1,0.1-0.2,0.1-0.3V29L22,28z M12.1,6.2c-0.2,0-0.4,0-0.6,0.1C11,6.7,11,7.9,11,10.1V18
			c0,2.3,0,3.5,0.6,4.3c0.6,0.8,1.6,1.2,3.8,2.1l14.1,5.4c1.9,0.7,3,1.2,3.6,0.9l0.2-0.1c0.5-0.4,0.5-1.6,0.5-3.7v-7.9
			c0-2.3,0-3.5-0.6-4.3c-0.6-0.8-1.6-1.2-3.8-2.1L15.3,7.1C13.8,6.6,12.8,6.2,12.1,6.2z M13.6,5.4c0.6,0.2,1.3,0.4,2.1,0.8l14.1,5.4
			c2.4,0.9,3.6,1.4,4.3,2.4c0.7,1.1,0.7,2.3,0.7,4.9v7.9c0,1.2,0,2.1-0.1,2.8l0.8-0.5c0.8-0.5,1.2-0.7,1.3-1
			c0.2-0.3,0.2-0.7,0.2-1.7v-9.4c0-2.3,0-3.5-0.6-4.3c-0.6-0.8-1.6-1.2-3.8-2.1L17.2,4.9c-0.6-0.2-1-0.4-1.2-0.4
			c-0.3,0-0.5,0.1-1.2,0.4L13.6,5.4z M43.5,28.5c-0.1,0-0.3,0-0.4-0.1l-2-2c-0.2-0.2-0.2-0.5,0-0.7s0.5-0.2,0.7,0l2,2
			c0.2,0.2,0.2,0.5,0,0.7C43.8,28.5,43.6,28.5,43.5,28.5z M41.5,21.5c-0.1,0-0.3,0-0.4-0.1c-0.2-0.2-0.2-0.5,0-0.7l2-2
			c0.2-0.2,0.5-0.2,0.7,0s0.2,0.5,0,0.7l-2,2C41.8,21.5,41.6,21.5,41.5,21.5z M4.5,18.5c-0.1,0-0.3,0-0.4-0.1
			c-0.2-0.2-0.2-0.5,0-0.7l2-2c0.2-0.2,0.5-0.2,0.7,0s0.2,0.5,0,0.7l-2,2C4.8,18.5,4.6,18.5,4.5,18.5z M6.5,11.5
			c-0.1,0-0.3,0-0.4-0.1l-2-2C4,9.2,4,8.8,4.1,8.6s0.5-0.2,0.7,0l2,2c0.2,0.2,0.2,0.5,0,0.7C6.8,11.5,6.6,11.5,6.5,11.5z"/>
	</g>
</g>
</svg>
