<svg width="48" height="48" viewBox="0 0 48 48" fill="none" xmlns="http://www.w3.org/2000/svg">
<path d="M7 19.9794V10.8093C7 8.17205 7 6.85344 7.86578 6.25731C8.73155 5.66119 9.9634 6.13163 12.4271 7.07251L39.8542 17.5469C42.3442 18.4979 43.5892 18.9733 44.2947 19.9979C45.0001 21.0224 45.0001 22.3551 45.0001 25.0205V34.1906C45.0001 36.8279 45.0001 38.1465 44.1343 38.7426C43.2686 39.3387 42.0367 38.8683 39.5731 37.9274L39.573 37.9274L12.1459 27.453C9.65587 26.502 8.41087 26.0266 7.70544 25.002C7 23.9775 7 22.6448 7 19.9794Z" fill="#0B0D19" stroke="#F6F0FF"/>
<path d="M3 21.9794V12.8092C3 10.172 3 8.85341 3.86578 8.25728C4.73155 7.66116 5.9634 8.1316 8.42708 9.07248L35.8542 19.5469C38.3442 20.4978 39.5892 20.9733 40.2947 21.9978C41.0001 23.0224 41.0001 24.3551 41.0001 27.0205V36.1906C41.0001 38.8278 41.0001 40.1464 40.1343 40.7426C39.2686 41.3387 38.0367 40.8683 35.5731 39.9274L35.573 39.9274L8.14585 29.4529C5.65587 28.502 4.41087 28.0265 3.70544 27.002C3 25.9775 3 24.6448 3 21.9794Z" fill="#0B0D19" stroke="#F6F0FF"/>
<path d="M22.155 28.9478C22.5125 29.1141 22.8628 29.2179 23.1858 29.2533C23.5087 29.2886 23.7981 29.2549 24.0374 29.154C24.2767 29.053 24.4612 28.8869 24.5803 28.665C24.6995 28.4431 24.754 28.2194 24.7318 27.8608C24.5342 24.6671 19.1934 23.8154 18.9958 20.6217C18.9766 20.3126 19.0281 20.0394 19.1473 19.8175C19.2664 19.5956 19.4509 19.4295 19.6902 19.3285C19.9295 19.2276 20.2188 19.1938 20.5418 19.2292C20.8648 19.2646 21.2151 19.3684 21.5726 19.5347M22.155 28.9478C21.7975 28.7815 21.4397 28.556 21.1021 28.2841C20.7645 28.0122 20.4537 27.6993 20.1873 27.3632C19.921 27.027 19.7044 26.6743 19.5499 26.3252C19.3955 25.976 19.3061 25.6373 19.287 25.3282M22.155 28.9478L22.2278 30.1245M24.4406 23.1542C24.4406 23.1542 24.3321 22.5064 24.1776 22.1573C24.0232 21.8081 23.8066 21.4554 23.5403 21.1193C23.2739 20.7832 22.9631 20.4703 22.6255 20.1984C22.2879 19.9265 21.9301 19.701 21.5726 19.5347M21.5726 19.5347L21.4998 18.358" stroke="#F6F0FF" stroke-linecap="round" stroke-linejoin="round"/>
</svg>
