<svg width="52" height="52" viewBox="0 0 52 52" fill="none" xmlns="http://www.w3.org/2000/svg">
<g filter="url(#filter0_ddi)">
<path d="M26 14C32.6274 14 38 19.3726 38 26C38 32.6274 32.6274 38 26 38C19.3726 38 14 32.6274 14 26C14 19.3726 19.3726 14 26 14ZM26 16.25C20.6152 16.25 16.25 20.6152 16.25 26C16.25 31.3848 20.6152 35.75 26 35.75C31.3848 35.75 35.75 31.3848 35.75 26C35.75 20.6152 31.3848 16.25 26 16.25ZM29.5218 28.5163C29.8829 28.0108 30.5856 27.8938 31.0911 28.2549C31.5967 28.6161 31.7137 29.3188 31.3525 29.8243C31.1419 30.1191 30.9062 30.3974 30.6469 30.6568C28.0774 33.2262 23.9114 33.2262 21.342 30.6568C21.083 30.3977 20.8475 30.1198 20.6371 29.8254C20.2758 29.32 20.3927 28.6173 20.8982 28.256C21.4037 27.8947 22.1063 28.0116 22.4676 28.5171C22.6062 28.7109 22.7615 28.8943 22.933 29.0658C24.6238 30.7566 27.3651 30.7566 29.0559 29.0658C29.2275 28.8941 29.3831 28.7105 29.5218 28.5163ZM22.0625 21.879C22.9945 21.879 23.75 22.6345 23.75 23.5665C23.75 24.4985 22.9945 25.254 22.0625 25.254C21.1305 25.254 20.375 24.4985 20.375 23.5665C20.375 22.6345 21.1305 21.879 22.0625 21.879ZM29.93 21.879C30.862 21.879 31.625 22.6345 31.625 23.5665C31.625 24.4985 30.8695 25.254 29.9375 25.254C29.0055 25.254 28.25 24.4985 28.25 23.5665C28.25 22.6345 28.998 21.879 29.93 21.879Z" fill="#AB78FF"/>
</g>
<defs>
<filter id="filter0_ddi" x="0" y="0" width="52" height="52" filterUnits="userSpaceOnUse" color-interpolation-filters="sRGB">
<feFlood flood-opacity="0" result="BackgroundImageFix"/>
<feColorMatrix in="SourceAlpha" type="matrix" values="0 0 0 0 0 0 0 0 0 0 0 0 0 0 0 0 0 0 127 0"/>
<feOffset dx="4" dy="4"/>
<feGaussianBlur stdDeviation="5"/>
<feColorMatrix type="matrix" values="0 0 0 0 0.014375 0 0 0 0 0.0279514 0 0 0 0 0.0958333 0 0 0 0.8 0"/>
<feBlend mode="normal" in2="BackgroundImageFix" result="effect1_dropShadow"/>
<feColorMatrix in="SourceAlpha" type="matrix" values="0 0 0 0 0 0 0 0 0 0 0 0 0 0 0 0 0 0 127 0"/>
<feOffset dx="-4" dy="-4"/>
<feGaussianBlur stdDeviation="5"/>
<feColorMatrix type="matrix" values="0 0 0 0 0.0838542 0 0 0 0 0.093151 0 0 0 0 0.145833 0 0 0 0.6 0"/>
<feBlend mode="normal" in2="effect1_dropShadow" result="effect2_dropShadow"/>
<feBlend mode="normal" in="SourceGraphic" in2="effect2_dropShadow" result="shape"/>
<feColorMatrix in="SourceAlpha" type="matrix" values="0 0 0 0 0 0 0 0 0 0 0 0 0 0 0 0 0 0 127 0" result="hardAlpha"/>
<feOffset dx="-1" dy="-1"/>
<feGaussianBlur stdDeviation="1"/>
<feComposite in2="hardAlpha" operator="arithmetic" k2="-1" k3="1"/>
<feColorMatrix type="matrix" values="0 0 0 0 0.0509804 0 0 0 0 0.0627451 0 0 0 0 0.121569 0 0 0 0.2 0"/>
<feBlend mode="normal" in2="shape" result="effect3_innerShadow"/>
</filter>
</defs>
</svg>
