<svg width="24" height="25" viewBox="0 0 24 25" fill="none" xmlns="http://www.w3.org/2000/svg">
<path d="M3 11.6407C3 10.5928 3 10.0688 3.23665 9.62665C3.4733 9.18447 3.90927 8.89382 4.7812 8.31253L9.7812 4.9792C10.8567 4.2622 11.3944 3.9037 12 3.9037C12.6056 3.9037 13.1433 4.2622 14.2188 4.9792L19.2188 8.31253C20.0907 8.89382 20.5267 9.18447 20.7633 9.62665C21 10.0688 21 10.5928 21 11.6407V17.5C21 19.3856 21 20.3284 20.4142 20.9142C19.8284 21.5 18.8856 21.5 17 21.5V21.5C16.0572 21.5 15.5858 21.5 15.2929 21.2071C15 20.9142 15 20.4428 15 19.5V17.5C15 16.5572 15 16.0858 14.7071 15.7929C14.4142 15.5 13.9428 15.5 13 15.5H11C10.0572 15.5 9.58579 15.5 9.29289 15.7929C9 16.0858 9 16.5572 9 17.5V19.5C9 20.4428 9 20.9142 8.70711 21.2071C8.41421 21.5 7.94281 21.5 7 21.5V21.5C5.11438 21.5 4.17157 21.5 3.58579 20.9142C3 20.3284 3 19.3856 3 17.5V11.6407Z" stroke="#AB78FF" stroke-linecap="round" stroke-linejoin="round"/>
</svg>
