<?xml version="1.0" encoding="utf-8"?>
<svg version="1.1" id="Layer_1" xmlns="http://www.w3.org/2000/svg" xmlns:xlink="http://www.w3.org/1999/xlink" x="0px" y="0px"
	 viewBox="0 0 24 24" xml:space="preserve">
<g>
	<g>
		<path d="M16.1,21.5c-0.2,0-0.4,0-0.5,0c-3-0.5-6.1-2.1-8.5-4.5c-2.4-2.4-4-5.4-4.5-8.5C2.4,7.4,2.7,6.3,3.5,5.5
			c0,0,0,0,0,0l2.3-2.3C6,3,6.3,2.8,6.5,2.7C7.4,2.3,8.4,2.5,9,3.2l2.5,2.5c0.2,0.2,0.4,0.5,0.5,0.7c0.1,0.3,0.2,0.6,0.2,0.9
			c0,0.6-0.2,1.2-0.7,1.6l-1.6,1.6c0.4,0.8,0.9,1.5,1.5,2.1c0.6,0.6,1.3,1.1,2.1,1.5l1.6-1.6c0.2-0.2,0.5-0.4,0.7-0.5
			c0.8-0.3,1.8-0.1,2.5,0.5l2.5,2.5c0.2,0.2,0.4,0.5,0.5,0.7c0.1,0.3,0.2,0.6,0.2,0.9c0,0.6-0.2,1.2-0.7,1.6l-2.3,2.3
			C17.9,21.1,17,21.5,16.1,21.5z M4.2,6.2C3.7,6.7,3.4,7.5,3.5,8.2c0.5,2.9,2,5.7,4.3,8c2.3,2.3,5.1,3.8,7.9,4.3
			c0.7,0.1,1.5-0.1,2.1-0.7l2.3-2.3c0.2-0.2,0.4-0.6,0.4-0.9c0-0.2,0-0.3-0.1-0.5c-0.1-0.2-0.2-0.3-0.3-0.4l-2.5-2.5
			c-0.4-0.4-0.9-0.5-1.4-0.3c-0.2,0.1-0.3,0.2-0.4,0.3L14,15c-0.1,0.1-0.4,0.2-0.6,0.1c-1-0.5-1.9-1.1-2.7-1.9
			c-0.8-0.8-1.4-1.7-1.9-2.7c-0.1-0.2,0-0.4,0.1-0.6l1.8-1.8c0.2-0.2,0.4-0.6,0.4-0.9c0-0.2,0-0.3-0.1-0.5c-0.1-0.2-0.2-0.3-0.3-0.4
			L8.3,3.9C8,3.5,7.4,3.4,6.9,3.6C6.8,3.7,6.6,3.8,6.5,3.9L4.2,6.2z"/>
	</g>
</g>
</svg>
