<?xml version="1.0" encoding="utf-8"?>
<svg version="1.1" id="Layer_1" xmlns="http://www.w3.org/2000/svg" xmlns:xlink="http://www.w3.org/1999/xlink" x="0px" y="0px"
	 viewBox="0 0 48 48" width="48" height="48" xml:space="preserve">
<g>
	<g>
		<path d="M24.5,40.5c-0.7,0-1.5-0.3-2.7-0.8l-10.5-4c-1.8-0.7-2.7-1-3.2-1.8c-0.6-0.8-0.6-1.8-0.6-3.6v-12
			c0-1.9,0-2.9,0.8-3.5c0,0,0,0,0,0c0,0,0.1-0.1,0.1-0.1l5.7-2.7c0.1-0.1,0.1-0.1,0.2-0.1l8.6-4.1c0.4-0.2,0.6-0.2,1-0.2
			c0.5,0,0.7,0.1,1.1,0.2l11.6,4.3c1.8,0.7,2.7,1,3.3,1.8c0.6,0.8,0.6,1.8,0.6,3.6v13.1c0,0.8,0,1.2-0.2,1.6
			c-0.2,0.4-0.6,0.6-1.3,1.1l-13.8,7c0,0-0.1,0-0.1,0C24.9,40.5,24.7,40.5,24.5,40.5z M9.2,15.5c-0.1,0-0.3,0-0.4,0.1
			c-0.4,0.3-0.4,1.1-0.4,2.6v12c0,1.7,0,2.5,0.4,3.1c0.4,0.6,1.2,0.9,2.8,1.5l10.5,4c1.4,0.5,2.3,0.9,2.7,0.6
			c0.4-0.3,0.4-1.1,0.4-2.6V31c0-7.9-0.3-9.1-0.4-9.3c-0.4-0.5-1.2-0.8-2.8-1.4l-10.5-4C10.4,15.8,9.7,15.5,9.2,15.5z M10.5,14.8
			c0.4,0.1,0.8,0.3,1.3,0.5l10.5,4c1.8,0.7,2.7,1,3.2,1.8c0.2,0.3,0.6,0.8,0.6,9.9v5.8c0,0.8,0,1.5-0.1,2l12.3-6.3
			c0.6-0.3,0.8-0.5,0.9-0.7c0.1-0.2,0.1-0.5,0.1-1.1V17.5c0-1.7,0-2.5-0.4-3.1c-0.4-0.6-1.2-0.9-2.8-1.5L24.9,8.7
			c-0.5-0.2-0.5-0.2-0.9-0.2c-0.3,0-0.3,0-0.7,0.2l-0.2,0.1L20.5,10l10.7,4c1.8,0.7,2.7,1,3.3,1.8c0.6,0.8,0.6,1.8,0.6,3.6v11.3
			c0,0.3-0.1,0.5-0.4,0.6c-0.2,0.1-0.5,0.1-0.7-0.1l-1.2-1l-1.4,2.3c-0.2,0.3-0.4,0.4-0.7,0.3c-0.3-0.1-0.5-0.3-0.5-0.6v-10
			c0-1.7,0-2.5-0.4-3.1c-0.4-0.6-1.2-0.9-2.8-1.5l-12.5-4.8L10.5,14.8z M15.7,12.3l11.6,4.5c1.8,0.7,2.7,1,3.2,1.8
			c0.6,0.8,0.6,1.8,0.6,3.6v8.8l1-1.6c0.1-0.2,0.3-0.3,0.4-0.3c0.2,0,0.4,0,0.5,0.1l0.9,0.8V19.5c0-1.7,0-2.5-0.4-3.1
			c-0.4-0.6-1.2-0.9-2.8-1.5l-11.5-4.3c0,0-0.1,0-0.1,0L15.7,12.3z M34.6,30.5L34.6,30.5C34.6,30.5,34.6,30.5,34.6,30.5z M32.5,30.1
			C32.5,30.1,32.5,30.1,32.5,30.1L32.5,30.1z M33,30L33,30C33,30,33,30,33,30z"/>
	</g>
</g>
</svg>
