<svg width="40" height="68" viewBox="0 0 40 68" fill="none" xmlns="http://www.w3.org/2000/svg">
<g filter="url(#filter0_ii)">
<mask id="path-1-inside-1" fill="white">
<path d="M29.0155 31.8C32.4698 33.2667 35.1641 35.4667 37.0984 38.4C39.0328 41.3333 40 44.8 40 48.8C40 54.5333 38.1347 59.2 34.4041 62.8C30.6736 66.2667 25.9067 68 20.1036 68C14.3005 68 9.46459 66.2 5.59585 62.6C1.86529 59 0 54.4 0 48.8C0 46.1333 0.345423 43.4667 1.03627 40.8C1.72712 38.1333 3.24698 34.1333 5.59585 28.8L17.6166 0H38.1347L29.0155 31.8Z"/>
</mask>
<path d="M29.0155 31.8L-17.1248 18.5685C-23.8083 41.875 -12.0616 66.5063 10.2558 75.9823L29.0155 31.8ZM34.4041 62.8L67.0788 97.962C67.2996 97.7568 67.5185 97.5495 67.7354 97.3402L34.4041 62.8ZM5.59585 62.6L-27.7354 97.1402C-27.5264 97.3419 -27.3155 97.5417 -27.1029 97.7396L5.59585 62.6ZM1.03627 40.8L-45.4297 28.7621L-45.4298 28.7622L1.03627 40.8ZM5.59585 28.8L49.5243 48.1467C49.6497 47.8619 49.7724 47.5759 49.8922 47.2887L5.59585 28.8ZM17.6166 0V-48C-1.75035 -48 -19.22 -36.3613 -26.6798 -18.4887L17.6166 0ZM38.1347 0L84.275 13.2315C88.4292 -1.2548 85.5388 -16.8511 76.4695 -28.8867C67.4002 -40.9224 53.2049 -48 38.1347 -48V0ZM10.2558 75.9823C5.63418 74.0199 0.653349 70.3241 -2.97305 64.8249L77.1699 11.9751C69.6748 0.609256 59.3054 -7.48659 47.7753 -12.3823L10.2558 75.9823ZM-2.97305 64.8249C-6.90151 58.8677 -8 52.8552 -8 48.8H88C88 36.7448 84.9671 23.799 77.1699 11.9751L-2.97305 64.8249ZM-8 48.8C-8 46.4163 -7.5988 42.8587 -5.97039 38.7846C-4.30148 34.6092 -1.79136 31.0238 1.07288 28.2598L67.7354 97.3402C81.8814 83.6893 88 66.0383 88 48.8H-8ZM1.72949 27.638C4.54849 25.0184 7.95169 22.9265 11.6279 21.5897C15.2008 20.2906 18.206 20 20.1036 20V116C36.2101 116 53.2205 110.84 67.0788 97.962L1.72949 27.638ZM20.1036 20C22.2115 20 25.3043 20.3385 28.8684 21.6651C32.5084 23.02 35.7237 25.068 38.2946 27.4603L-27.1029 97.7396C-13.4476 110.446 3.46145 116 20.1036 116V20ZM38.9272 28.0598C41.6724 30.709 44.1794 34.2162 45.881 38.4127C47.5509 42.5308 48 46.206 48 48.8H-48C-48 66.2669 -41.6431 83.7193 -27.7354 97.1402L38.9272 28.0598ZM48 48.8C48 50.3271 47.7962 51.7032 47.5023 52.8378L-45.4298 28.7622C-47.1054 35.2301 -48 41.9396 -48 48.8H48ZM47.5023 52.8378C47.3465 53.4392 47.2436 53.7382 47.2702 53.6581C47.2899 53.5987 47.378 53.3398 47.5644 52.8491C47.9471 51.842 48.5733 50.3058 49.5243 48.1467L-38.3326 9.45329C-40.8396 15.1458 -43.7085 22.1181 -45.4297 28.7621L47.5023 52.8378ZM49.8922 47.2887L61.9129 18.4887L-26.6798 -18.4887L-38.7005 10.3113L49.8922 47.2887ZM17.6166 48H38.1347V-48H17.6166V48ZM-8.00559 -13.2315L-17.1248 18.5685L75.1558 45.0315L84.275 13.2315L-8.00559 -13.2315Z" fill="#8356CC" mask="url(#path-1-inside-1)"/>
</g>
<defs>
<filter id="filter0_ii" x="-2" y="-2" width="47" height="74" filterUnits="userSpaceOnUse" color-interpolation-filters="sRGB">
<feFlood flood-opacity="0" result="BackgroundImageFix"/>
<feBlend mode="normal" in="SourceGraphic" in2="BackgroundImageFix" result="shape"/>
<feColorMatrix in="SourceAlpha" type="matrix" values="0 0 0 0 0 0 0 0 0 0 0 0 0 0 0 0 0 0 127 0" result="hardAlpha"/>
<feOffset dx="-2" dy="-2"/>
<feGaussianBlur stdDeviation="15"/>
<feComposite in2="hardAlpha" operator="arithmetic" k2="-1" k3="1"/>
<feColorMatrix type="matrix" values="0 0 0 0 1 0 0 0 0 1 0 0 0 0 1 0 0 0 0.2 0"/>
<feBlend mode="normal" in2="shape" result="effect1_innerShadow"/>
<feColorMatrix in="SourceAlpha" type="matrix" values="0 0 0 0 0 0 0 0 0 0 0 0 0 0 0 0 0 0 127 0" result="hardAlpha"/>
<feOffset dx="5" dy="4"/>
<feGaussianBlur stdDeviation="5"/>
<feComposite in2="hardAlpha" operator="arithmetic" k2="-1" k3="1"/>
<feColorMatrix type="matrix" values="0 0 0 0 0.191667 0 0 0 0 0.014375 0 0 0 0 0.149999 0 0 0 0.5 0"/>
<feBlend mode="normal" in2="effect1_innerShadow" result="effect2_innerShadow"/>
</filter>
</defs>
</svg>
