<svg width="20" height="16" viewBox="0 0 20 16" fill="none" xmlns="http://www.w3.org/2000/svg">
<path d="M4 5.2L6.4 6.88C8.13333 8.09333 9 8.7 10 8.7C11 8.7 11.8667 8.09333 13.6 6.88L16 5.2M7 15H13C15.8284 15 17.2426 15 18.1213 14.1799C19 13.3598 19 12.0399 19 9.4V6.6C19 3.96013 19 2.6402 18.1213 1.8201C17.2426 1 15.8284 1 13 1H7C4.17157 1 2.75736 1 1.87868 1.8201C1 2.6402 1 3.96013 1 6.6V9.4C1 12.0399 1 13.3598 1.87868 14.1799C2.75736 15 4.17157 15 7 15Z" stroke="#AB78FF" stroke-width="1.5" stroke-linecap="round" stroke-linejoin="round"/>
</svg>
