<svg width="18" height="18" viewBox="0 0 18 18" fill="none" xmlns="http://www.w3.org/2000/svg">
<path d="M12.3787 1.25H5.622C3.20657 1.25 1.25 3.20761 1.25 5.622V12.378C1.25 14.7934 3.20761 16.75 5.622 16.75H12.378C14.7933 16.75 16.75 14.7925 16.75 12.3787V5.622C16.75 3.20672 14.7925 1.25 12.3787 1.25Z" stroke="#80758F" stroke-width="2" stroke-linecap="round" stroke-linejoin="round"/>
<path d="M12.7118 5.03496C12.5723 5.03571 12.459 5.14896 12.459 5.28846C12.459 5.42796 12.573 5.54121 12.7125 5.54121C12.852 5.54121 12.9653 5.42796 12.9653 5.28846C12.966 5.14821 12.852 5.03496 12.7118 5.03496" stroke="#80758F" stroke-width="2" stroke-linecap="round" stroke-linejoin="round"/>
<path d="M10.9092 7.09062C11.9637 8.14504 11.9637 9.85458 10.9092 10.909C9.85482 11.9634 8.14528 11.9634 7.09086 10.909C6.03644 9.85458 6.03644 8.14504 7.09086 7.09062C8.14528 6.0362 9.85482 6.0362 10.9092 7.09062" stroke="#80758F" stroke-width="2" stroke-linecap="round" stroke-linejoin="round"/>
</svg>
