<svg width="106" height="132" viewBox="0 0 106 132" fill="none" xmlns="http://www.w3.org/2000/svg">
<g filter="url(#filter0_ddddd)">
<path d="M51.168 60.6189C51.9798 59.2063 52.3857 58.5 53 58.5C53.6143 58.5 54.0202 59.2063 54.832 60.6189L55.5311 61.8355C55.7637 62.2402 55.8799 62.4425 56.0653 62.5747C56.2508 62.7068 56.4829 62.7527 56.9472 62.8446L58.3428 63.1208C59.9634 63.4416 60.7737 63.6019 60.9635 64.175C61.1534 64.7481 60.5939 65.345 59.4751 66.5387L58.5115 67.5668C58.1909 67.9088 58.0307 68.0798 57.9598 68.2936C57.889 68.5074 57.9162 68.7381 57.9706 69.1996L58.134 70.5869C58.3238 72.1977 58.4187 73.0032 57.9217 73.3573C57.4247 73.7115 56.6731 73.3741 55.1698 72.6993L53.8752 72.1181C53.4445 71.9248 53.2292 71.8281 53 71.8281C52.7708 71.8281 52.5555 71.9248 52.1248 72.1181L50.8302 72.6993C49.3269 73.3741 48.5753 73.7115 48.0783 73.3573C47.5813 73.0032 47.6762 72.1977 47.866 70.5869L48.0294 69.1996C48.0838 68.7381 48.111 68.5074 48.0402 68.2936C47.9693 68.0798 47.8091 67.9088 47.4885 67.5668L46.5249 66.5387C45.4061 65.345 44.8466 64.7481 45.0365 64.175C45.2263 63.6019 46.0366 63.4416 47.6572 63.1208L49.0528 62.8446C49.5171 62.7527 49.7492 62.7068 49.9347 62.5747C50.1201 62.4425 50.2363 62.2402 50.4689 61.8355L51.168 60.6189Z" stroke="#F6F0FF" stroke-linecap="round" stroke-linejoin="round"/>
</g>
<defs>
<filter id="filter0_ddddd" x="0.499512" y="0" width="105.001" height="132" filterUnits="userSpaceOnUse" color-interpolation-filters="sRGB">
<feFlood flood-opacity="0" result="BackgroundImageFix"/>
<feColorMatrix in="SourceAlpha" type="matrix" values="0 0 0 0 0 0 0 0 0 0 0 0 0 0 0 0 0 0 127 0"/>
<feOffset dx="6" dy="6"/>
<feGaussianBlur stdDeviation="15"/>
<feColorMatrix type="matrix" values="0 0 0 0 0 0 0 0 0 0.00784314 0 0 0 0 0.0470588 0 0 0 0.3 0"/>
<feBlend mode="normal" in2="BackgroundImageFix" result="effect1_dropShadow"/>
<feColorMatrix in="SourceAlpha" type="matrix" values="0 0 0 0 0 0 0 0 0 0 0 0 0 0 0 0 0 0 127 0"/>
<feOffset dx="-6" dy="-6"/>
<feGaussianBlur stdDeviation="15"/>
<feColorMatrix type="matrix" values="0 0 0 0 0.137255 0 0 0 0 0.129412 0 0 0 0 0.227451 0 0 0 0.15 0"/>
<feBlend mode="normal" in2="effect1_dropShadow" result="effect2_dropShadow"/>
<feColorMatrix in="SourceAlpha" type="matrix" values="0 0 0 0 0 0 0 0 0 0 0 0 0 0 0 0 0 0 127 0"/>
<feOffset dx="14" dy="28"/>
<feGaussianBlur stdDeviation="15"/>
<feColorMatrix type="matrix" values="0 0 0 0 0.0156863 0 0 0 0 0.0196078 0 0 0 0 0.054902 0 0 0 0.3 0"/>
<feBlend mode="normal" in2="effect2_dropShadow" result="effect3_dropShadow"/>
<feColorMatrix in="SourceAlpha" type="matrix" values="0 0 0 0 0 0 0 0 0 0 0 0 0 0 0 0 0 0 127 0"/>
<feOffset dx="-14" dy="-28"/>
<feGaussianBlur stdDeviation="15"/>
<feColorMatrix type="matrix" values="0 0 0 0 0.137255 0 0 0 0 0.129412 0 0 0 0 0.227451 0 0 0 0.15 0"/>
<feBlend mode="normal" in2="effect3_dropShadow" result="effect4_dropShadow"/>
<feColorMatrix in="SourceAlpha" type="matrix" values="0 0 0 0 0 0 0 0 0 0 0 0 0 0 0 0 0 0 127 0"/>
<feOffset/>
<feGaussianBlur stdDeviation="8"/>
<feColorMatrix type="matrix" values="0 0 0 0 1 0 0 0 0 1 0 0 0 0 1 0 0 0 0.48 0"/>
<feBlend mode="normal" in2="effect4_dropShadow" result="effect5_dropShadow"/>
<feBlend mode="normal" in="SourceGraphic" in2="effect5_dropShadow" result="shape"/>
</filter>
</defs>
</svg>
