<svg width="48" height="48" viewBox="0 0 48 48" fill="none" xmlns="http://www.w3.org/2000/svg">
<path d="M15 30.1458V6.80246C15 4.1755 15 2.86202 15.8631 2.26617C16.7262 1.67032 17.9558 2.13495 20.415 3.06422L31.8299 7.37771C34.3312 8.32287 35.5818 8.79545 36.2909 9.82091C37 10.8464 37 12.1823 37 14.8542V38.1975C37 40.8245 37 42.138 36.1369 42.7338C35.2738 43.3297 34.0442 42.865 31.585 41.9358L20.1701 37.6223C17.6688 36.6771 16.4182 36.2046 15.7091 35.1791C15 34.1536 15 32.8177 15 30.1458Z" fill="#0B0D19"/>
<path d="M20.1701 37.6223L19.9933 38.09L20.1701 37.6223ZM31.585 41.9358L31.4083 42.4035L31.585 41.9358ZM31.8299 7.37771L31.6532 7.84543L31.8299 7.37771ZM20.415 3.06422L20.5917 2.5965L20.415 3.06422ZM36.2909 9.82091L35.8796 10.1053V10.1053L36.2909 9.82091ZM36.1369 42.7338L36.4209 43.1453H36.4209L36.1369 42.7338ZM14.5 6.80246V30.1458H15.5V6.80246H14.5ZM19.9933 38.09L31.4083 42.4035L31.7618 41.4681L20.3468 37.1546L19.9933 38.09ZM37.5 38.1975V14.8542H36.5V38.1975H37.5ZM32.0067 6.90999L20.5917 2.5965L20.2382 3.53194L31.6532 7.84543L32.0067 6.90999ZM37.5 14.8542C37.5 13.5294 37.5007 12.495 37.4083 11.6648C37.3145 10.8222 37.1207 10.1418 36.7021 9.53652L35.8796 10.1053C36.1702 10.5255 36.331 11.0258 36.4144 11.7755C36.4993 12.5376 36.5 13.5071 36.5 14.8542H37.5ZM31.6532 7.84543C32.9143 8.32196 33.8216 8.6656 34.5051 9.01452C35.1775 9.35777 35.5891 9.68509 35.8796 10.1053L36.7021 9.53652C36.2836 8.93126 35.7153 8.50957 34.9598 8.12387C34.2154 7.74386 33.2469 7.37862 32.0067 6.90999L31.6532 7.84543ZM31.4083 42.4035C32.6226 42.8624 33.5856 43.2277 34.3528 43.3952C35.1305 43.5651 35.822 43.5588 36.4209 43.1453L35.8528 42.3224C35.5887 42.5047 35.2338 42.5641 34.5662 42.4182C33.888 42.2701 33.0066 41.9385 31.7618 41.4681L31.4083 42.4035ZM36.5 38.1975C36.5 39.5274 36.4987 40.4683 36.3975 41.1544C36.2978 41.8297 36.1168 42.1401 35.8528 42.3224L36.4209 43.1453C37.0201 42.7317 37.2706 42.0875 37.3868 41.3003C37.5013 40.524 37.5 39.4947 37.5 38.1975H36.5ZM14.5 30.1458C14.5 31.4706 14.4993 32.505 14.5917 33.3352C14.6855 34.1778 14.8793 34.8582 15.2979 35.4635L16.1204 34.8947C15.8298 34.4746 15.669 33.9742 15.5856 33.2245C15.5007 32.4624 15.5 31.4929 15.5 30.1458H14.5ZM20.3468 37.1546C19.0857 36.678 18.1784 36.3344 17.4949 35.9855C16.8225 35.6422 16.4109 35.3149 16.1204 34.8947L15.2979 35.4635C15.7164 36.0687 16.2847 36.4904 17.0402 36.8761C17.7846 37.2561 18.7531 37.6214 19.9933 38.09L20.3468 37.1546ZM15.5 6.80246C15.5 5.47262 15.5013 4.53172 15.6025 3.84563C15.7022 3.17031 15.8832 2.8599 16.1472 2.67764L15.5791 1.8547C14.9799 2.26829 14.7294 2.91255 14.6132 3.69967C14.4987 4.47602 14.5 5.50534 14.5 6.80246H15.5ZM20.5917 2.5965C19.3774 2.13764 18.4144 1.77235 17.6472 1.60479C16.8695 1.43494 16.178 1.44119 15.5791 1.8547L16.1472 2.67764C16.4113 2.4953 16.7662 2.43594 17.4338 2.58176C18.112 2.72988 18.9934 3.06153 20.2382 3.53194L20.5917 2.5965Z" fill="#F6F0FF"/>
<path d="M11 32.1458V8.80246C11 6.1755 11 4.86202 11.8631 4.26617C12.7262 3.67032 13.9558 4.13495 16.415 5.06422L27.8299 9.37771C30.3312 10.3229 31.5818 10.7955 32.2909 11.8209C33 12.8464 33 14.1823 33 16.8542V40.1975C33 42.8245 33 44.138 32.1369 44.7338C31.2738 45.3297 30.0442 44.865 27.585 43.9358L16.1701 39.6223C13.6688 38.6771 12.4182 38.2046 11.7091 37.1791C11 36.1536 11 34.8177 11 32.1458Z" fill="#0B0D19"/>
<path d="M16.1701 39.6223L15.9933 40.09L16.1701 39.6223ZM27.585 43.9358L27.4083 44.4035L27.585 43.9358ZM27.8299 9.37771L27.6532 9.84543L27.8299 9.37771ZM16.415 5.06422L16.5917 4.5965L16.415 5.06422ZM32.2909 11.8209L31.8796 12.1053V12.1053L32.2909 11.8209ZM32.1369 44.7338L32.4209 45.1453H32.4209L32.1369 44.7338ZM29.8233 16.5259C30.0816 16.6236 30.3701 16.4933 30.4677 16.235C30.5653 15.9767 30.4351 15.6881 30.1767 15.5905L29.8233 16.5259ZM14.1767 9.54443C13.9184 9.44682 13.6299 9.57709 13.5323 9.83541C13.4347 10.0937 13.5649 10.3823 13.8233 10.4799L14.1767 9.54443ZM29.8233 20.5226C30.0816 20.6202 30.3701 20.4899 30.4677 20.2316C30.5653 19.9733 30.4351 19.6848 30.1767 19.5872L29.8233 20.5226ZM14.1767 13.5411C13.9184 13.4435 13.6299 13.5737 13.5323 13.8321C13.4347 14.0904 13.5649 14.3789 13.8233 14.4765L14.1767 13.5411ZM29.8233 24.5192C30.0816 24.6169 30.3701 24.4866 30.4677 24.2283C30.5653 23.9699 30.4351 23.6814 30.1767 23.5838L29.8233 24.5192ZM14.1767 17.5377C13.9184 17.4401 13.6299 17.5704 13.5323 17.8287C13.4347 18.087 13.5649 18.3756 13.8233 18.4732L14.1767 17.5377ZM23.8233 26.2486C24.0816 26.3462 24.3701 26.216 24.4677 25.9576C24.5653 25.6993 24.4351 25.4108 24.1767 25.3132L23.8233 26.2486ZM14.1767 21.5344C13.9184 21.4368 13.6299 21.567 13.5323 21.8254C13.4347 22.0837 13.5649 22.3722 13.8233 22.4698L14.1767 21.5344ZM10.5 8.80246V32.1458H11.5V8.80246H10.5ZM15.9933 40.09L27.4083 44.4035L27.7618 43.4681L16.3468 39.1546L15.9933 40.09ZM33.5 40.1975V16.8542H32.5V40.1975H33.5ZM28.0067 8.90999L16.5917 4.5965L16.2382 5.53194L27.6532 9.84543L28.0067 8.90999ZM33.5 16.8542C33.5 15.5294 33.5007 14.495 33.4083 13.6648C33.3145 12.8222 33.1207 12.1418 32.7021 11.5365L31.8796 12.1053C32.1702 12.5255 32.331 13.0258 32.4144 13.7755C32.4993 14.5376 32.5 15.5071 32.5 16.8542H33.5ZM27.6532 9.84543C28.9143 10.322 29.8216 10.6656 30.5051 11.0145C31.1775 11.3578 31.5891 11.6851 31.8796 12.1053L32.7021 11.5365C32.2836 10.9313 31.7153 10.5096 30.9598 10.1239C30.2154 9.74386 29.2469 9.37862 28.0067 8.90999L27.6532 9.84543ZM27.4083 44.4035C28.6226 44.8624 29.5856 45.2277 30.3528 45.3952C31.1305 45.5651 31.822 45.5588 32.4209 45.1453L31.8528 44.3224C31.5887 44.5047 31.2338 44.5641 30.5662 44.4182C29.888 44.2701 29.0066 43.9385 27.7618 43.4681L27.4083 44.4035ZM32.5 40.1975C32.5 41.5274 32.4987 42.4683 32.3975 43.1544C32.2978 43.8297 32.1168 44.1401 31.8528 44.3224L32.4209 45.1453C33.0201 44.7317 33.2706 44.0875 33.3868 43.3003C33.5013 42.524 33.5 41.4947 33.5 40.1975H32.5ZM10.5 32.1458C10.5 33.4706 10.4993 34.505 10.5917 35.3352C10.6855 36.1778 10.8793 36.8582 11.2979 37.4635L12.1204 36.8947C11.8298 36.4746 11.669 35.9742 11.5856 35.2245C11.5007 34.4624 11.5 33.4929 11.5 32.1458H10.5ZM16.3468 39.1546C15.0857 38.678 14.1784 38.3344 13.4949 37.9855C12.8225 37.6422 12.4109 37.3149 12.1204 36.8947L11.2979 37.4635C11.7164 38.0687 12.2847 38.4904 13.0402 38.8761C13.7846 39.2561 14.7531 39.6214 15.9933 40.09L16.3468 39.1546ZM11.5 8.80246C11.5 7.47262 11.5013 6.53172 11.6025 5.84563C11.7022 5.17031 11.8832 4.8599 12.1472 4.67764L11.5791 3.8547C10.9799 4.26829 10.7294 4.91255 10.6132 5.69967C10.4987 6.47602 10.5 7.50534 10.5 8.80246H11.5ZM16.5917 4.5965C15.3774 4.13764 14.4144 3.77235 13.6472 3.60479C12.8695 3.43494 12.178 3.44119 11.5791 3.8547L12.1472 4.67764C12.4113 4.4953 12.7662 4.43594 13.4338 4.58176C14.112 4.72988 14.9934 5.06153 16.2382 5.53194L16.5917 4.5965ZM30.1767 15.5905L14.1767 9.54443L13.8233 10.4799L29.8233 16.5259L30.1767 15.5905ZM30.1767 19.5872L14.1767 13.5411L13.8233 14.4765L29.8233 20.5226L30.1767 19.5872ZM30.1767 23.5838L14.1767 17.5377L13.8233 18.4732L29.8233 24.5192L30.1767 23.5838ZM24.1767 25.3132L14.1767 21.5344L13.8233 22.4698L23.8233 26.2486L24.1767 25.3132Z" fill="#F6F0FF"/>
</svg>
