<svg width="240" height="254" viewBox="0 0 240 254" fill="none" xmlns="http://www.w3.org/2000/svg">
    <path id="num1" d="M126 111V144H116.881V117.129H109V111H126Z" fill="transparent"/>
    <path id="num2" d="M133 135.882V142H108.483V137.133L120.996 125.315C122.325 124.048 123.221 122.966 123.684 122.07C124.148 121.143 124.38 120.232 124.38 119.336C124.38 118.038 123.932 117.049 123.036 116.369C122.171 115.659 120.888 115.303 119.189 115.303C117.768 115.303 116.485 115.581 115.342 116.138C114.199 116.663 113.241 117.466 112.469 118.548L107 115.025C108.267 113.14 110.012 111.673 112.237 110.622C114.462 109.541 117.011 109 119.884 109C122.294 109 124.395 109.402 126.187 110.205C128.01 110.978 129.416 112.09 130.405 113.542C131.424 114.963 131.934 116.647 131.934 118.594C131.934 120.355 131.563 122.008 130.822 123.553C130.08 125.098 128.643 126.86 126.512 128.837L119.05 135.882H133Z"
          fill="transparent"/>
    <path id="num3" d="M123.131 123.209C125.994 123.673 128.188 124.739 129.713 126.407C131.238 128.045 132 130.084 132 132.525C132 134.41 131.502 136.156 130.506 137.763C129.51 139.338 127.986 140.605 125.932 141.563C123.909 142.521 121.42 143 118.463 143C116.16 143 113.889 142.706 111.648 142.119C109.439 141.501 107.556 140.636 106 139.524L108.941 133.777C110.186 134.704 111.617 135.43 113.235 135.955C114.885 136.449 116.565 136.697 118.276 136.697C120.175 136.697 121.668 136.341 122.758 135.631C123.847 134.889 124.391 133.854 124.391 132.525C124.391 129.868 122.353 128.539 118.276 128.539H114.822V123.58L121.544 116.025H107.634V110H130.506V114.867L123.131 123.209Z"
          fill="transparent"/>
    <path id="num4" d="M134 136.07H128.555V143H121.008V136.07H103V130.931L118.763 110H126.883L112.267 129.847H121.247V123.671H128.555V129.847H134V136.07Z"
          fill="transparent"/>
    <path id="num5" d="M118.534 123.19C123.131 123.19 126.517 124.101 128.692 125.924C130.897 127.747 132 130.188 132 133.247C132 135.225 131.503 137.032 130.509 138.67C129.515 140.277 127.993 141.574 125.943 142.563C123.924 143.521 121.423 144 118.441 144C116.142 144 113.875 143.706 111.638 143.119C109.432 142.501 107.553 141.636 106 140.524L108.982 134.777C110.225 135.704 111.654 136.43 113.269 136.955C114.884 137.449 116.546 137.697 118.254 137.697C120.149 137.697 121.64 137.326 122.728 136.584C123.815 135.843 124.358 134.808 124.358 133.479C124.358 132.088 123.784 131.038 122.634 130.327C121.516 129.617 119.559 129.261 116.763 129.261H108.423L110.1 111H129.996V117.025H116.391L115.878 123.19H118.534Z"
          fill="transparent"/>
    <path id="num6" d="M120.742 122.443C122.829 122.443 124.728 122.854 126.441 123.674C128.154 124.494 129.509 125.664 130.505 127.184C131.502 128.673 132 130.405 132 132.38C132 134.507 131.455 136.376 130.365 137.986C129.275 139.597 127.78 140.843 125.881 141.724C124.012 142.575 121.926 143 119.621 143C115.043 143 111.462 141.633 108.877 138.898C106.292 136.163 105 132.258 105 127.184C105 123.568 105.701 120.468 107.102 117.885C108.503 115.302 110.45 113.343 112.941 112.006C115.464 110.669 118.375 110 121.676 110C123.42 110 125.087 110.198 126.675 110.593C128.294 110.957 129.664 111.489 130.785 112.188L127.983 117.612C126.363 116.548 124.324 116.017 121.863 116.017C119.092 116.017 116.896 116.807 115.277 118.387C113.657 119.967 112.785 122.261 112.661 125.269C114.592 123.385 117.285 122.443 120.742 122.443ZM119.201 137.485C120.82 137.485 122.128 137.059 123.125 136.209C124.152 135.358 124.666 134.203 124.666 132.744C124.666 131.286 124.152 130.131 123.125 129.28C122.128 128.399 120.789 127.959 119.107 127.959C117.457 127.959 116.102 128.414 115.043 129.326C113.984 130.207 113.455 131.347 113.455 132.744C113.455 134.142 113.969 135.282 114.997 136.163C116.024 137.044 117.426 137.485 119.201 137.485Z"
          fill="transparent"/>
</svg>
