<svg width="344" height="210" viewBox="0 0 344 210" fill="none" xmlns="http://www.w3.org/2000/svg">
<path d="M86.7552 95H91.6152V112.04H102.145V116H86.7552V95ZM115.279 116.36C113.099 116.36 111.129 115.89 109.369 114.95C107.629 114.01 106.259 112.72 105.259 111.08C104.279 109.42 103.789 107.56 103.789 105.5C103.789 103.44 104.279 101.59 105.259 99.95C106.259 98.29 107.629 96.99 109.369 96.05C111.129 95.11 113.099 94.64 115.279 94.64C117.459 94.64 119.419 95.11 121.159 96.05C122.899 96.99 124.269 98.29 125.269 99.95C126.269 101.59 126.769 103.44 126.769 105.5C126.769 107.56 126.269 109.42 125.269 111.08C124.269 112.72 122.899 114.01 121.159 114.95C119.419 115.89 117.459 116.36 115.279 116.36ZM115.279 112.22C116.519 112.22 117.639 111.94 118.639 111.38C119.639 110.8 120.419 110 120.979 108.98C121.559 107.96 121.849 106.8 121.849 105.5C121.849 104.2 121.559 103.04 120.979 102.02C120.419 101 119.639 100.21 118.639 99.65C117.639 99.07 116.519 98.78 115.279 98.78C114.039 98.78 112.919 99.07 111.919 99.65C110.919 100.21 110.129 101 109.549 102.02C108.989 103.04 108.709 104.2 108.709 105.5C108.709 106.8 108.989 107.96 109.549 108.98C110.129 110 110.919 110.8 111.919 111.38C112.919 111.94 114.039 112.22 115.279 112.22ZM145.212 105.17H149.652V113.69C148.512 114.55 147.192 115.21 145.692 115.67C144.192 116.13 142.682 116.36 141.162 116.36C138.982 116.36 137.022 115.9 135.282 114.98C133.542 114.04 132.172 112.75 131.172 111.11C130.192 109.45 129.702 107.58 129.702 105.5C129.702 103.42 130.192 101.56 131.172 99.92C132.172 98.26 133.552 96.97 135.312 96.05C137.072 95.11 139.052 94.64 141.252 94.64C143.092 94.64 144.762 94.95 146.262 95.57C147.762 96.19 149.022 97.09 150.042 98.27L146.922 101.15C145.422 99.57 143.612 98.78 141.492 98.78C140.152 98.78 138.962 99.06 137.922 99.62C136.882 100.18 136.072 100.97 135.492 101.99C134.912 103.01 134.622 104.18 134.622 105.5C134.622 106.8 134.912 107.96 135.492 108.98C136.072 110 136.872 110.8 137.892 111.38C138.932 111.94 140.112 112.22 141.432 112.22C142.832 112.22 144.092 111.92 145.212 111.32V105.17ZM164.936 116.36C162.756 116.36 160.786 115.89 159.026 114.95C157.286 114.01 155.916 112.72 154.916 111.08C153.936 109.42 153.446 107.56 153.446 105.5C153.446 103.44 153.936 101.59 154.916 99.95C155.916 98.29 157.286 96.99 159.026 96.05C160.786 95.11 162.756 94.64 164.936 94.64C167.116 94.64 169.076 95.11 170.816 96.05C172.556 96.99 173.926 98.29 174.926 99.95C175.926 101.59 176.426 103.44 176.426 105.5C176.426 107.56 175.926 109.42 174.926 111.08C173.926 112.72 172.556 114.01 170.816 114.95C169.076 115.89 167.116 116.36 164.936 116.36ZM164.936 112.22C166.176 112.22 167.296 111.94 168.296 111.38C169.296 110.8 170.076 110 170.636 108.98C171.216 107.96 171.506 106.8 171.506 105.5C171.506 104.2 171.216 103.04 170.636 102.02C170.076 101 169.296 100.21 168.296 99.65C167.296 99.07 166.176 98.78 164.936 98.78C163.696 98.78 162.576 99.07 161.576 99.65C160.576 100.21 159.786 101 159.206 102.02C158.646 103.04 158.366 104.2 158.366 105.5C158.366 106.8 158.646 107.96 159.206 108.98C159.786 110 160.576 110.8 161.576 111.38C162.576 111.94 163.696 112.22 164.936 112.22ZM184.736 98.96H178.016V95H196.316V98.96H189.596V116H184.736V98.96ZM209.23 108.56V116H204.37V108.5L196.24 95H201.4L207.01 104.33L212.62 95H217.39L209.23 108.56ZM228.908 95C230.768 95 232.378 95.31 233.738 95.93C235.118 96.55 236.178 97.43 236.918 98.57C237.658 99.71 238.028 101.06 238.028 102.62C238.028 104.16 237.658 105.51 236.918 106.67C236.178 107.81 235.118 108.69 233.738 109.31C232.378 109.91 230.768 110.21 228.908 110.21H224.678V116H219.818V95H228.908ZM228.638 106.25C230.098 106.25 231.208 105.94 231.968 105.32C232.728 104.68 233.108 103.78 233.108 102.62C233.108 101.44 232.728 100.54 231.968 99.92C231.208 99.28 230.098 98.96 228.638 98.96H224.678V106.25H228.638ZM258.358 112.1V116H242.098V95H257.968V98.9H246.928V103.46H256.678V107.24H246.928V112.1H258.358Z" fill="#A3A3A3"/>
</svg>
