<svg width="782" height="602" fill="none" xmlns="http://www.w3.org/2000/svg"><path d="M609.243 305.049h186.102L276.532 538.217H90.431l518.812-233.168z" fill="url(#paint0_linear)"/><g filter="url(#filter0_d)"><circle cx="139.086" cy="241.551" r="24.649" fill="url(#paint1_linear)"/></g><path d="M138.629 301.804v-37.886m0-37.887v24.649m0 13.238l15.52-13.238m-15.52 13.238V250.68m0 0l-11.411-13.694" stroke="url(#paint2_linear)" stroke-width="2" stroke-linecap="round" stroke-linejoin="round"/><g filter="url(#filter1_d)"><circle cx="139.085" cy="211.424" r="26.475" fill="url(#paint3_linear)"/></g><g filter="url(#filter2_d)"><circle cx="116.262" cy="231.509" r="18.259" fill="url(#paint4_linear)"/></g><g filter="url(#filter3_d)"><circle cx="162.822" cy="247.942" r="13.694" fill="url(#paint5_linear)"/></g><path d="M162.426 141.795c-1.815-.785-2.723-1.178-2.723-1.835s.908-1.05 2.723-1.836l64.153-27.772c1.566-.678 2.349-1.017 3.177-1.017.828 0 1.611.338 3.177 1.016l63.949 27.657c1.811.783 2.716 1.175 2.717 1.831.001.656-.903 1.05-2.712 1.838l-63.955 27.864c-1.57.684-2.355 1.026-3.186 1.027-.83.001-1.616-.339-3.187-1.019l-64.133-27.754z" fill="#3B304F"/><path d="M159.493 139.842v151.85l70.156 30.495 70.104-30.495v-151.85l-70.104 30.353-70.156-30.353z" fill="#1C122D"/><path d="M262.837 262.674c0-2.731 0-4.096-.896-4.689s-2.153-.06-4.667 1.007l-9.814 4.166c-2.363 1.003-3.545 1.505-4.209 2.509-.665 1.003-.665 2.287-.665 4.855v11.157c0 2.731 0 4.096.896 4.689.897.594 2.153.06 4.667-1.007l9.814-4.166c2.363-1.003 3.545-1.505 4.209-2.508.665-1.004.665-2.288.665-4.856v-11.157z" fill="#524668"/><path d="M252.339 261.02l4.853-2.093c2.522-1.088 3.782-1.632 4.683-1.039.901.592.901 1.965.901 4.711v12.815c0 1.392 0 2.088-.456 2.383-.456.296-1.091.011-2.361-.557l-3.151-1.412c-1.277-.572-1.915-.858-2.523-1.197a15.881 15.881 0 01-1.365-.852c-.572-.399-1.108-.847-2.182-1.743-2.792-2.333-4.189-3.499-4.493-4.803a3.998 3.998 0 01.42-2.888c.662-1.163 2.333-1.884 5.674-3.325z" fill="#605178"/><path d="M256.968 259.055l-9.546 4.11c-2.345 1.01-3.518 1.515-4.177 2.516-.659 1-.659 2.277-.659 4.831v11.144l9.545-4.109c2.346-1.01 3.519-1.516 4.178-2.516.659-1.001.659-2.278.659-4.832v-11.144z" fill="#9286A4"/><path d="M289.108 251.803c0-2.731 0-4.096-.896-4.689s-2.153-.06-4.667 1.007l-9.813 4.166c-2.364 1.003-3.545 1.505-4.21 2.509-.664 1.003-.664 2.287-.664 4.855v11.157c0 2.731 0 4.096.896 4.689s2.153.06 4.667-1.007l9.813-4.166c2.364-1.003 3.545-1.505 4.21-2.509.664-1.003.664-2.287.664-4.855v-11.157z" fill="#524668"/><path d="M278.61 250.149l4.853-2.094c2.522-1.087 3.783-1.631 4.684-1.039.901.593.901 1.966.901 4.712v12.815c0 1.392 0 2.088-.456 2.383-.457.296-1.092.011-2.362-.558l-3.151-1.411c-1.276-.572-1.914-.858-2.523-1.197a16.048 16.048 0 01-1.365-.853c-.571-.398-1.108-.846-2.181-1.742-2.793-2.333-4.189-3.499-4.493-4.803a4.002 4.002 0 01.419-2.888c.663-1.163 2.333-1.884 5.674-3.325z" fill="#605178"/><path d="M283.239 248.184l-9.545 4.109c-2.346 1.01-3.519 1.516-4.178 2.516-.658 1.001-.658 2.278-.658 4.832v11.144l9.545-4.11c2.346-1.01 3.519-1.515 4.177-2.516.659-1 .659-2.277.659-4.831v-11.144z" fill="#9286A4"/><path d="M262.837 226.438c0-2.731 0-4.096-.896-4.69-.896-.593-2.153-.059-4.667 1.008l-9.814 4.166c-2.363 1.003-3.545 1.504-4.209 2.508-.665 1.004-.665 2.288-.665 4.856v11.157c0 2.731 0 4.096.896 4.689.897.593 2.153.06 4.667-1.007l9.814-4.166c2.363-1.003 3.545-1.505 4.209-2.509.665-1.004.665-2.287.665-4.855v-11.157z" fill="#524668"/><path d="M252.339 224.784l4.853-2.094c2.522-1.088 3.782-1.631 4.683-1.039.901.593.901 1.966.901 4.712v12.815c0 1.392 0 2.087-.456 2.383-.456.296-1.091.011-2.361-.558l-3.151-1.411c-1.277-.572-1.915-.858-2.523-1.197a15.892 15.892 0 01-1.365-.853c-.572-.398-1.108-.846-2.182-1.743-2.792-2.332-4.189-3.498-4.493-4.802a3.997 3.997 0 01.42-2.888c.662-1.163 2.333-1.884 5.674-3.325z" fill="#605178"/><path d="M256.968 222.818l-9.546 4.11c-2.345 1.01-3.518 1.515-4.177 2.516-.659 1.001-.659 2.278-.659 4.832v11.144l9.545-4.11c2.346-1.01 3.519-1.515 4.178-2.516.659-1.001.659-2.278.659-4.832v-11.144z" fill="#9286A4"/><path d="M289.108 215.567c0-2.731 0-4.097-.896-4.69s-2.153-.059-4.667 1.008l-9.813 4.165c-2.364 1.004-3.545 1.505-4.21 2.509-.664 1.004-.664 2.288-.664 4.855v11.158c0 2.73 0 4.096.896 4.689s2.153.06 4.667-1.007l9.813-4.166c2.364-1.003 3.545-1.505 4.21-2.509.664-1.004.664-2.288.664-4.855v-11.157z" fill="#524668"/><path d="M278.61 213.913l4.853-2.094c2.522-1.088 3.783-1.632 4.684-1.039.901.593.901 1.966.901 4.712v12.815c0 1.391 0 2.087-.456 2.383-.457.295-1.092.011-2.362-.558l-3.151-1.412c-1.276-.571-1.914-.857-2.523-1.196a16.048 16.048 0 01-1.365-.853c-.571-.398-1.108-.846-2.181-1.743-2.793-2.332-4.189-3.499-4.493-4.802a4.002 4.002 0 01.419-2.888c.663-1.163 2.333-1.884 5.674-3.325z" fill="#605178"/><path d="M283.239 211.947l-9.545 4.11c-2.346 1.01-3.519 1.515-4.178 2.516-.658 1.001-.658 2.278-.658 4.832v11.144l9.545-4.11c2.346-1.01 3.519-1.515 4.177-2.516.659-1.001.659-2.278.659-4.832v-11.144z" fill="#9286A4"/><path d="M262.837 190.202c0-2.731 0-4.097-.896-4.69s-2.153-.06-4.667 1.008l-9.814 4.165c-2.363 1.003-3.545 1.505-4.209 2.509-.665 1.004-.665 2.288-.665 4.855v11.157c0 2.731 0 4.097.896 4.69.897.593 2.153.059 4.667-1.008l9.814-4.165c2.363-1.004 3.545-1.505 4.209-2.509.665-1.004.665-2.288.665-4.855v-11.157z" fill="#524668"/><path d="M252.339 188.547l4.853-2.093c2.522-1.088 3.782-1.632 4.683-1.039.901.592.901 1.966.901 4.712v12.815c0 1.391 0 2.087-.456 2.383-.456.295-1.091.011-2.361-.558l-3.151-1.412c-1.277-.571-1.915-.857-2.523-1.196a15.892 15.892 0 01-1.365-.853c-.572-.398-1.108-.847-2.182-1.743-2.792-2.333-4.189-3.499-4.493-4.802a3.996 3.996 0 01.42-2.888c.662-1.164 2.333-1.884 5.674-3.326z" fill="#605178"/><path d="M256.968 186.582l-9.546 4.11c-2.345 1.01-3.518 1.515-4.177 2.516-.659 1.001-.659 2.278-.659 4.832v11.144l9.545-4.11c2.346-1.01 3.519-1.515 4.178-2.516.659-1.001.659-2.278.659-4.832v-11.144z" fill="#9286A4"/><path d="M289.108 179.33c0-2.73 0-4.096-.896-4.689s-2.153-.06-4.667 1.007l-9.813 4.166c-2.364 1.003-3.545 1.505-4.21 2.509-.664 1.004-.664 2.288-.664 4.855v11.157c0 2.731 0 4.097.896 4.69s2.153.059 4.667-1.008l9.813-4.165c2.364-1.004 3.545-1.505 4.21-2.509.664-1.004.664-2.288.664-4.855V179.33z" fill="#524668"/><path d="M278.61 177.676l4.853-2.093c2.522-1.088 3.783-1.632 4.684-1.039.901.592.901 1.965.901 4.712v12.815c0 1.391 0 2.087-.456 2.383-.457.295-1.092.011-2.362-.558l-3.151-1.412c-1.276-.572-1.914-.857-2.523-1.196a16.305 16.305 0 01-1.365-.853c-.571-.399-1.108-.847-2.181-1.743-2.793-2.333-4.189-3.499-4.493-4.802a4.004 4.004 0 01.419-2.889c.663-1.163 2.333-1.883 5.674-3.325z" fill="#605178"/><path d="M283.239 175.711l-9.545 4.11c-2.346 1.01-3.519 1.515-4.178 2.516-.658 1.001-.658 2.278-.658 4.832v11.144l9.545-4.11c2.346-1.01 3.519-1.515 4.177-2.516.659-1.001.659-2.278.659-4.832v-11.144z" fill="#9286A4"/><path d="M197.602 226.438c0-2.731 0-4.096.896-4.69.896-.593 2.153-.059 4.666 1.008l9.814 4.166c2.364 1.003 3.545 1.504 4.21 2.508.664 1.004.664 2.288.664 4.856v11.157c0 2.731 0 4.096-.896 4.689s-2.153.06-4.667-1.007l-9.813-4.166c-2.364-1.003-3.546-1.505-4.21-2.509-.664-1.004-.664-2.287-.664-4.855v-11.157z" fill="#524668"/><path d="M208.099 224.784l-4.853-2.094c-2.522-1.088-3.783-1.631-4.684-1.039-.901.593-.901 1.966-.901 4.712v12.815c0 1.392 0 2.087.456 2.383.457.296 1.092.011 2.362-.558l3.151-1.411c1.276-.572 1.914-.858 2.523-1.197.469-.261.924-.546 1.365-.853.571-.398 1.108-.846 2.181-1.743 2.793-2.332 4.189-3.498 4.493-4.802a4.002 4.002 0 00-.419-2.888c-.663-1.163-2.333-1.884-5.674-3.325z" fill="#605178"/><path d="M203.471 222.818l9.545 4.11c2.346 1.01 3.519 1.515 4.178 2.516.658 1.001.658 2.278.658 4.832v11.144l-9.545-4.11c-2.346-1.01-3.519-1.515-4.178-2.516-.658-1.001-.658-2.278-.658-4.832v-11.144z" fill="#9286A4"/><path d="M171.331 215.567c0-2.731 0-4.097.896-4.69s2.153-.059 4.667 1.008l9.814 4.165c2.363 1.004 3.545 1.505 4.209 2.509.665 1.004.665 2.288.665 4.855v11.158c0 2.73 0 4.096-.896 4.689-.897.593-2.153.06-4.667-1.007l-9.814-4.166c-2.363-1.003-3.545-1.505-4.209-2.509-.665-1.004-.665-2.288-.665-4.855v-11.157z" fill="#524668"/><path d="M181.829 213.913l-4.853-2.094c-2.522-1.088-3.782-1.632-4.683-1.039-.901.593-.901 1.966-.901 4.712v12.815c0 1.391 0 2.087.456 2.383.456.295 1.091.011 2.361-.558l3.151-1.412c1.277-.571 1.915-.857 2.523-1.196.469-.261.925-.546 1.365-.853.572-.398 1.108-.846 2.182-1.743 2.792-2.332 4.189-3.499 4.493-4.802a3.997 3.997 0 00-.42-2.888c-.662-1.163-2.333-1.884-5.674-3.325z" fill="#605178"/><path d="M177.2 211.947l9.546 4.11c2.345 1.01 3.518 1.515 4.177 2.516.659 1.001.659 2.278.659 4.832v11.144l-9.545-4.11c-2.346-1.01-3.519-1.515-4.178-2.516-.659-1.001-.659-2.278-.659-4.832v-11.144z" fill="#9286A4"/><path d="M197.602 190.202c0-2.731 0-4.097.896-4.69s2.153-.06 4.666 1.008l9.814 4.165c2.364 1.003 3.545 1.505 4.21 2.509.664 1.004.664 2.288.664 4.855v11.157c0 2.731 0 4.097-.896 4.69s-2.153.059-4.667-1.008l-9.813-4.165c-2.364-1.004-3.546-1.505-4.21-2.509-.664-1.004-.664-2.288-.664-4.855v-11.157z" fill="#524668"/><path d="M208.099 188.547l-4.853-2.093c-2.522-1.088-3.783-1.632-4.684-1.039-.901.592-.901 1.966-.901 4.712v12.815c0 1.391 0 2.087.456 2.383.457.295 1.092.011 2.362-.558l3.151-1.412c1.276-.571 1.914-.857 2.523-1.196.469-.261.924-.546 1.365-.853.571-.398 1.108-.847 2.181-1.743 2.793-2.333 4.189-3.499 4.493-4.802a4 4 0 00-.419-2.888c-.663-1.164-2.333-1.884-5.674-3.326z" fill="#605178"/><path d="M203.471 186.582l9.545 4.11c2.346 1.01 3.519 1.515 4.178 2.516.658 1.001.658 2.278.658 4.832v11.144l-9.545-4.11c-2.346-1.01-3.519-1.515-4.178-2.516-.658-1.001-.658-2.278-.658-4.832v-11.144z" fill="#9286A4"/><path d="M171.331 179.33c0-2.73 0-4.096.896-4.689s2.153-.06 4.667 1.007l9.814 4.166c2.363 1.003 3.545 1.505 4.209 2.509.665 1.004.665 2.288.665 4.855v11.157c0 2.731 0 4.097-.896 4.69-.897.593-2.153.059-4.667-1.008l-9.814-4.165c-2.363-1.004-3.545-1.505-4.209-2.509-.665-1.004-.665-2.288-.665-4.855V179.33z" fill="#524668"/><path d="M181.829 177.676l-4.853-2.093c-2.522-1.088-3.782-1.632-4.683-1.039-.901.592-.901 1.965-.901 4.712v12.815c0 1.391 0 2.087.456 2.383.456.295 1.091.011 2.361-.558l3.151-1.412c1.277-.572 1.915-.857 2.523-1.196.469-.262.925-.546 1.365-.853.572-.399 1.108-.847 2.182-1.743 2.792-2.333 4.189-3.499 4.493-4.802a4 4 0 00-.42-2.889c-.662-1.163-2.333-1.883-5.674-3.325z" fill="#605178"/><path d="M177.2 175.711l9.546 4.11c2.345 1.01 3.518 1.515 4.177 2.516.659 1.001.659 2.278.659 4.832v11.144l-9.545-4.11c-2.346-1.01-3.519-1.515-4.178-2.516-.659-1.001-.659-2.278-.659-4.832v-11.144z" fill="#9286A4"/><path d="M171.33 251.276c0-2.736 0-4.104.898-4.697s2.156-.056 4.673 1.019l36.093 15.413c2.356 1.006 3.534 1.509 4.196 2.512.662 1.002.662 2.283.662 4.845v14.024c0 2.737 0 4.105-.897 4.698-.898.593-2.157.056-4.673-1.019l-36.094-15.413c-2.356-1.006-3.534-1.509-4.196-2.512-.662-1.003-.662-2.284-.662-4.846v-14.024z" fill="#524668"/><path d="M189.06 252.79l-12.159-5.192c-2.517-1.075-3.775-1.612-4.673-1.019-.898.593-.898 1.961-.898 4.697v16.22c0 1.391 0 2.087.456 2.383.457.295 1.092.011 2.362-.558l1.963-.88c2.09-.936 3.135-1.404 4.228-1.717a15.804 15.804 0 011.668-.384c1.119-.195 2.264-.229 4.552-.299 10.203-.312 15.304-.467 16.436-2.284a4.003 4.003 0 00.538-2.849c-.393-2.105-5.086-4.109-14.473-8.118z" fill="#605178"/><path d="M179.895 248.9l33.1 14.132c2.356 1.006 3.534 1.509 4.197 2.511.662 1.003.662 2.284.662 4.846v12.017l-33.101-14.132c-2.356-1.006-3.534-1.509-4.196-2.512-.662-1.002-.662-2.283-.662-4.845V248.9z" fill="#9286A4"/><path d="M182.694 140.887c-1.816-.786-2.723-1.178-2.723-1.835s.907-1.05 2.723-1.836l43.855-18.985c1.566-.678 2.348-1.017 3.177-1.017.828 0 1.611.338 3.177 1.016l43.712 18.905c1.811.783 2.716 1.175 2.717 1.831.001.656-.903 1.05-2.712 1.838l-43.716 19.046c-1.57.684-2.354 1.026-3.185 1.027-.831.001-1.617-.339-3.188-1.019l-43.837-18.971z" fill="#3B304F"/><mask id="a" maskUnits="userSpaceOnUse" x="179" y="117" width="101" height="44"><path d="M182.694 140.887c-1.816-.786-2.723-1.178-2.723-1.835s.907-1.05 2.723-1.836l43.855-18.985c1.566-.678 2.348-1.017 3.177-1.017.828 0 1.611.338 3.177 1.016l43.712 18.905c1.811.783 2.716 1.175 2.717 1.831.001.656-.903 1.05-2.712 1.838l-43.716 19.046c-1.57.684-2.354 1.026-3.185 1.027-.831.001-1.617-.339-3.188-1.019l-43.837-18.971z" fill="#403453"/></mask><g mask="url(#a)"><path d="M179.843 145.398v-10.045l49.796-21.645 49.759 21.645v10.045l-49.759-21.544-49.796 21.544z" fill="#1C122D"/></g><path fill-rule="evenodd" clip-rule="evenodd" d="M122.294 316.234h-13.89v16.494h.021c.055.495.227.982.508 1.442.349.569.861 1.087 1.506 1.523.645.436 1.41.782 2.253 1.018a9.894 9.894 0 002.657.357c.912 0 1.815-.121 2.658-.357a7.767 7.767 0 002.253-1.018c.645-.436 1.156-.954 1.505-1.523.282-.46.454-.947.509-1.442h.02v-16.494z" fill="#202037"/><g filter="url(#filter4_d)"><path fill-rule="evenodd" clip-rule="evenodd" d="M115.442 261.6c-1.737 0-2.892 2.013-5.203 6.039l-20.282 35.334c-2.258 3.933-3.404 5.93-2.614 7.419.202 1.89.904 3.749 2.083 5.504 1.415 2.106 3.489 4.02 6.103 5.632 2.615 1.612 5.719 2.891 9.135 3.764 3.416.872 7.077 1.321 10.775 1.321 3.697 0 7.359-.449 10.775-1.321 3.416-.873 6.52-2.152 9.135-3.764 2.614-1.612 4.688-3.526 6.103-5.632 1.175-1.75 1.877-3.604 2.081-5.488.807-1.491-.34-3.489-2.605-7.435l-20.282-35.334c-2.311-4.026-3.467-6.039-5.204-6.039z" fill="#33334C"/></g><g filter="url(#filter5_d)"><path fill-rule="evenodd" clip-rule="evenodd" d="M115.436 248.471c-1.73 0-2.885 1.996-5.194 5.99l-17.54 30.335c-2.302 3.981-3.458 5.981-2.618 7.479.214 1.628.838 3.227 1.852 4.74 1.277 1.907 3.149 3.639 5.51 5.098 2.36 1.46 5.161 2.617 8.245 3.407 3.084.79 6.389 1.196 9.727 1.196s6.643-.406 9.726-1.196c3.084-.79 5.886-1.947 8.246-3.407 2.361-1.459 4.233-3.191 5.51-5.098.997-1.488 1.616-3.059 1.84-4.658l.035-.058c.866-1.501-.291-3.502-2.604-7.503l-17.54-30.335c-2.309-3.994-3.464-5.99-5.195-5.99z" fill="#515170"/></g><g filter="url(#filter6_d)"><path fill-rule="evenodd" clip-rule="evenodd" d="M115.443 241.133c-.569 0-.952.644-1.719 1.933l-14.206 23.877c-2.394 4.023-3.59 6.034-2.728 7.551.016.029.033.057.05.084.204 1.053.638 2.086 1.293 3.07.942 1.414 2.323 2.699 4.063 3.781 1.74 1.082 3.806 1.94 6.08 2.526 2.273.586 4.71.887 7.171.887 2.461 0 4.898-.301 7.172-.887 2.273-.586 4.339-1.444 6.08-2.526 1.74-1.082 3.12-2.367 4.062-3.781.659-.99 1.095-2.029 1.297-3.089l.038-.065c.862-1.517-.334-3.528-2.728-7.551l-14.206-23.877c-.767-1.289-1.15-1.933-1.719-1.933z" fill="#68688E"/></g><path fill-rule="evenodd" clip-rule="evenodd" d="M161.342 338.223H144.03v20.557h.025c.069.617.283 1.224.634 1.798.435.71 1.073 1.355 1.877 1.898.803.544 1.758.975 2.808 1.269 1.05.294 2.175.445 3.312.445s2.262-.151 3.313-.445c1.05-.294 2.004-.725 2.808-1.269.804-.543 1.441-1.188 1.876-1.898a4.374 4.374 0 00.634-1.798h.025v-20.557z" fill="#202037"/><g filter="url(#filter7_d)"><path fill-rule="evenodd" clip-rule="evenodd" d="M152.802 269.379c-1.737 0-2.892 2.013-5.203 6.039l-27.834 48.49c-2.281 3.974-3.428 5.971-2.588 7.465.262 2.342 1.151 4.645 2.637 6.819 1.794 2.626 4.424 5.011 7.74 7.021 3.315 2.009 7.251 3.603 11.583 4.69 4.332 1.088 8.975 1.648 13.664 1.648s9.332-.56 13.664-1.648c4.332-1.087 8.268-2.681 11.584-4.69 3.315-2.01 5.946-4.395 7.74-7.021 1.485-2.173 2.373-4.474 2.636-6.814.844-1.495-.303-3.493-2.586-7.47l-27.833-48.49c-2.311-4.026-3.467-6.039-5.204-6.039z" fill="#33334C"/></g><g filter="url(#filter8_d)"><path fill-rule="evenodd" clip-rule="evenodd" d="M152.795 253.02c-1.731 0-2.885 1.996-5.194 5.99l-24.425 42.243c-2.284 3.949-3.441 5.949-2.637 7.444.21 2.182 1.022 4.329 2.405 6.353 1.624 2.377 4.005 4.536 7.006 6.355 3.001 1.819 6.563 3.261 10.485 4.246 3.921.984 8.123 1.491 12.367 1.491 4.244 0 8.447-.507 12.368-1.491 3.921-.985 7.484-2.427 10.485-4.246 3.001-1.819 5.381-3.978 7.006-6.355 1.39-2.034 2.203-4.194 2.408-6.387.768-1.491-.388-3.491-2.655-7.41l-24.425-42.243c-2.309-3.994-3.463-5.99-5.194-5.99z" fill="#515170"/></g><g filter="url(#filter9_d)"><path fill-rule="evenodd" clip-rule="evenodd" d="M152.802 244.377c-.568 0-.952.644-1.718 1.933l-19.461 32.708c-2.393 4.022-3.59 6.033-2.727 7.551l.05.084c.227 1.432.803 2.838 1.715 4.172 1.204 1.762 2.97 3.363 5.195 4.712 2.226 1.349 4.868 2.418 7.775 3.148 2.908.73 6.025 1.106 9.172 1.106 3.147 0 6.264-.376 9.171-1.106 2.908-.73 5.55-1.799 7.776-3.148 2.225-1.349 3.99-2.95 5.195-4.712.912-1.335 1.489-2.742 1.715-4.175.017-.026.033-.054.049-.081.863-1.518-.334-3.529-2.727-7.551l-19.461-32.708c-.767-1.289-1.15-1.933-1.719-1.933z" fill="#68688E"/></g><g opacity=".6"><path d="M260.867 43.219c-1.816-.786-2.724-1.178-2.724-1.835s.908-1.05 2.723-1.836l88.408-38.272c1.565-.678 2.348-1.017 3.176-1.017.829 0 1.612.338 3.178 1.015l88.129 38.116c1.811.783 2.717 1.175 2.718 1.83.001.657-.904 1.05-2.713 1.839L355.623 81.46c-1.569.684-2.354 1.026-3.185 1.027-.831 0-1.616-.34-3.188-1.02L260.867 43.22z" fill="#3B304F"/><path d="M258.377 41.227v203.31l93.93 40.829 93.861-40.829V41.227l-93.861 40.64-93.93-40.64z" fill="#1C122D"/><path d="M396.741 203.635c0-2.731 0-4.096-.896-4.689s-2.153-.06-4.667 1.007l-16.676 7.079c-2.363 1.003-3.545 1.505-4.21 2.509-.664 1.003-.664 2.287-.664 4.855v18.78c0 2.731 0 4.097.896 4.69s2.153.059 4.667-1.008l16.676-7.078c2.364-1.004 3.545-1.505 4.21-2.509.664-1.004.664-2.288.664-4.855v-18.781z" fill="#524668"/><path d="M381.568 203.95l9.508-4.102c2.521-1.087 3.782-1.631 4.683-1.039.901.593.901 1.966.901 4.712v20.265c0 1.392 0 2.088-.456 2.383-.456.296-1.091.011-2.361-.558l-5.552-2.487c-2.015-.902-3.022-1.353-3.956-1.936-.933-.584-1.78-1.291-3.474-2.706l-1.253-1.046c-4.47-3.734-6.706-5.601-6.384-7.813.321-2.212 2.995-3.366 8.344-5.673z" fill="#605178"/><path d="M388.884 200.838l-14.419 6.208c-2.346 1.01-3.519 1.515-4.178 2.516-.659 1.001-.659 2.278-.659 4.832v16.705l14.419-6.208c2.346-1.01 3.519-1.515 4.178-2.516.659-1.001.659-2.278.659-4.832v-16.705z" fill="#9286A4"/><path d="M431.915 189.08c0-2.73 0-4.096-.896-4.689s-2.153-.06-4.667 1.007l-16.676 7.079c-2.364 1.003-3.545 1.505-4.21 2.509-.664 1.004-.664 2.288-.664 4.855v18.781c0 2.731 0 4.096.896 4.689s2.153.06 4.667-1.007l16.676-7.079c2.363-1.003 3.545-1.505 4.21-2.509.664-1.004.664-2.287.664-4.855V189.08z" fill="#524668"/><path d="M416.742 189.395l9.508-4.101c2.521-1.088 3.782-1.632 4.683-1.039.901.592.901 1.965.901 4.712v20.265c0 1.391 0 2.087-.456 2.383-.457.295-1.092.011-2.362-.558l-5.551-2.487h-.001c-2.014-.903-3.022-1.354-3.955-1.937-.933-.583-1.78-1.291-3.475-2.706l-1.252-1.046c-4.47-3.734-6.706-5.6-6.384-7.813.321-2.212 2.995-3.365 8.344-5.673z" fill="#605178"/><path d="M424.058 186.283l-14.42 6.209c-2.345 1.01-3.518 1.515-4.177 2.515-.659 1.001-.659 2.278-.659 4.832v16.705l14.419-6.208c2.346-1.01 3.519-1.515 4.178-2.516.659-1.001.659-2.278.659-4.832v-16.705z" fill="#9286A4"/><path d="M396.741 155.12c0-2.731 0-4.097-.896-4.69s-2.153-.06-4.667 1.008l-16.676 7.078c-2.363 1.003-3.545 1.505-4.21 2.509-.664 1.004-.664 2.288-.664 4.855v18.781c0 2.731 0 4.096.896 4.689s2.153.06 4.667-1.007l16.676-7.079c2.364-1.003 3.545-1.505 4.21-2.509.664-1.004.664-2.287.664-4.855v-18.78z" fill="#524668"/><path d="M381.568 155.434l9.508-4.101c2.521-1.088 3.782-1.632 4.683-1.039.901.592.901 1.965.901 4.712v20.265c0 1.391 0 2.087-.456 2.383-.456.295-1.091.011-2.361-.558l-5.552-2.487c-2.015-.903-3.022-1.354-3.956-1.937-.933-.583-1.78-1.291-3.474-2.706l-1.253-1.046c-4.47-3.733-6.706-5.6-6.384-7.813.321-2.212 2.995-3.365 8.344-5.673z" fill="#605178"/><path d="M388.884 152.322l-14.419 6.209c-2.346 1.01-3.519 1.515-4.178 2.516-.659 1-.659 2.277-.659 4.831v16.705l14.419-6.208c2.346-1.01 3.519-1.515 4.178-2.516.659-1.001.659-2.278.659-4.832v-16.705z" fill="#9286A4"/><path d="M431.915 140.565c0-2.731 0-4.096-.896-4.69-.896-.593-2.153-.059-4.667 1.008l-16.676 7.079c-2.364 1.003-3.545 1.504-4.21 2.508-.664 1.004-.664 2.288-.664 4.856v18.78c0 2.731 0 4.096.896 4.689.896.594 2.153.06 4.667-1.007l16.676-7.079c2.363-1.003 3.545-1.505 4.21-2.508.664-1.004.664-2.288.664-4.856v-18.78z" fill="#524668"/><path d="M416.742 140.88l9.508-4.102c2.521-1.088 3.782-1.632 4.683-1.039.901.593.901 1.966.901 4.712v20.265c0 1.392 0 2.087-.456 2.383-.457.296-1.092.011-2.362-.558l-5.551-2.487h-.001c-2.014-.902-3.022-1.354-3.955-1.937-.933-.583-1.78-1.29-3.475-2.706l-1.252-1.045c-4.47-3.734-6.706-5.601-6.384-7.813.321-2.213 2.995-3.366 8.344-5.673z" fill="#605178"/><path d="M424.058 137.768l-14.42 6.208c-2.345 1.01-3.518 1.515-4.177 2.516-.659 1.001-.659 2.278-.659 4.832v16.705l14.419-6.209c2.346-1.01 3.519-1.515 4.178-2.516.659-1 .659-2.277.659-4.832v-16.704z" fill="#9286A4"/><path d="M396.741 106.604c0-2.731 0-4.096-.896-4.69-.896-.593-2.153-.059-4.667 1.008l-16.676 7.079c-2.363 1.003-3.545 1.504-4.21 2.508-.664 1.004-.664 2.288-.664 4.856v18.78c0 2.731 0 4.096.896 4.69.896.593 2.153.059 4.667-1.008l16.676-7.079c2.364-1.003 3.545-1.504 4.21-2.508.664-1.004.664-2.288.664-4.856v-18.78z" fill="#524668"/><path d="M381.568 106.919l9.508-4.102c2.521-1.088 3.782-1.631 4.683-1.039.901.593.901 1.966.901 4.712v20.265c0 1.392 0 2.087-.456 2.383-.456.296-1.091.011-2.361-.558l-5.552-2.487c-2.015-.902-3.022-1.354-3.956-1.937-.933-.583-1.78-1.29-3.474-2.706l-1.253-1.045c-4.47-3.734-6.706-5.601-6.384-7.813.321-2.212 2.995-3.366 8.344-5.673z" fill="#605178"/><path d="M388.884 103.807l-14.419 6.208c-2.346 1.01-3.519 1.515-4.178 2.516-.659 1.001-.659 2.278-.659 4.832v16.705l14.419-6.209c2.346-1.01 3.519-1.515 4.178-2.516.659-1 .659-2.277.659-4.831v-16.705z" fill="#9286A4"/><path d="M431.915 92.05c0-2.732 0-4.097-.896-4.69s-2.153-.06-4.667 1.007l-16.676 7.079c-2.364 1.003-3.545 1.505-4.21 2.509-.664 1.004-.664 2.287-.664 4.855v18.78c0 2.731 0 4.097.896 4.69s2.153.059 4.667-1.008l16.676-7.078c2.363-1.004 3.545-1.505 4.21-2.509.664-1.004.664-2.288.664-4.855V92.05z" fill="#524668"/><path d="M416.742 92.364l9.508-4.102c2.521-1.087 3.782-1.631 4.683-1.039.901.593.901 1.966.901 4.712V112.2c0 1.392 0 2.088-.456 2.383-.457.296-1.092.011-2.362-.557l-5.551-2.487-.001-.001c-2.014-.902-3.022-1.353-3.955-1.936-.933-.583-1.78-1.291-3.475-2.706l-1.252-1.046c-4.47-3.734-6.706-5.601-6.384-7.813.321-2.212 2.995-3.366 8.344-5.673z" fill="#605178"/><path d="M424.058 89.252l-14.42 6.208c-2.345 1.01-3.518 1.515-4.177 2.516-.659 1.001-.659 2.278-.659 4.832v16.705l14.419-6.208c2.346-1.01 3.519-1.515 4.178-2.516.659-1.001.659-2.278.659-4.832V89.252z" fill="#9286A4"/><path d="M309.401 155.12c0-2.731 0-4.097.896-4.69.897-.593 2.154-.06 4.667 1.008l16.677 7.078c2.363 1.003 3.545 1.505 4.209 2.509.665 1.004.665 2.288.665 4.855v18.781c0 2.731 0 4.096-.896 4.689-.897.593-2.153.06-4.667-1.007l-16.676-7.079c-2.364-1.003-3.546-1.505-4.21-2.509-.665-1.004-.665-2.287-.665-4.855v-18.78z" fill="#524668"/><path d="M324.573 155.434l-9.508-4.101c-2.522-1.088-3.783-1.632-4.684-1.039-.901.592-.901 1.965-.901 4.712v20.265c0 1.391 0 2.087.457 2.383.456.295 1.091.011 2.361-.558l5.552-2.487c2.015-.903 3.022-1.354 3.955-1.937.933-.583 1.781-1.291 3.475-2.706l1.252-1.046c4.471-3.733 6.706-5.6 6.385-7.813-.322-2.212-2.996-3.365-8.344-5.673z" fill="#605178"/><path d="M317.259 152.322l14.419 6.209c2.346 1.01 3.519 1.515 4.178 2.516.658 1 .658 2.277.658 4.831v16.705l-14.419-6.208c-2.346-1.01-3.519-1.515-4.177-2.516-.659-1.001-.659-2.278-.659-4.832v-16.705z" fill="#9286A4"/><path d="M274.228 140.565c0-2.731 0-4.096.896-4.69.896-.593 2.153-.059 4.666 1.008l16.677 7.079c2.363 1.003 3.545 1.504 4.209 2.508.665 1.004.665 2.288.665 4.856v18.78c0 2.731 0 4.096-.896 4.689-.896.594-2.153.06-4.667-1.007l-16.676-7.079c-2.364-1.003-3.546-1.505-4.21-2.508-.664-1.004-.664-2.288-.664-4.856v-18.78z" fill="#524668"/><path d="M289.401 140.88l-9.508-4.102c-2.522-1.088-3.782-1.632-4.683-1.039-.901.593-.901 1.966-.901 4.712v20.265c0 1.392 0 2.087.456 2.383.456.296 1.091.011 2.361-.558l5.552-2.487c2.015-.902 3.022-1.354 3.955-1.937.934-.583 1.781-1.29 3.475-2.706l1.252-1.045c4.471-3.734 6.706-5.601 6.385-7.813-.321-2.213-2.996-3.366-8.344-5.673z" fill="#605178"/><path d="M282.085 137.768l14.419 6.208c2.346 1.01 3.519 1.515 4.178 2.516.658 1.001.658 2.278.658 4.832v16.705l-14.419-6.209c-2.346-1.01-3.518-1.515-4.177-2.516-.659-1-.659-2.277-.659-4.832v-16.704z" fill="#9286A4"/><path d="M309.401 106.604c0-2.731 0-4.096.896-4.69.897-.593 2.154-.059 4.667 1.008l16.677 7.079c2.363 1.003 3.545 1.504 4.209 2.508.665 1.004.665 2.288.665 4.856v18.78c0 2.731 0 4.096-.896 4.69-.897.593-2.153.059-4.667-1.008l-16.676-7.079c-2.364-1.003-3.546-1.504-4.21-2.508-.665-1.004-.665-2.288-.665-4.856v-18.78z" fill="#524668"/><path d="M324.573 106.919l-9.508-4.102c-2.522-1.088-3.783-1.631-4.684-1.039-.901.593-.901 1.966-.901 4.712v20.265c0 1.392 0 2.087.457 2.383.456.296 1.091.011 2.361-.558l5.552-2.487c2.015-.902 3.022-1.354 3.955-1.937.933-.583 1.781-1.29 3.475-2.706l1.252-1.045c4.471-3.734 6.706-5.601 6.385-7.813-.322-2.212-2.996-3.366-8.344-5.673z" fill="#605178"/><path d="M317.259 103.807l14.419 6.208c2.346 1.01 3.519 1.515 4.178 2.516.658 1.001.658 2.278.658 4.832v16.705l-14.419-6.209c-2.346-1.01-3.519-1.515-4.177-2.516-.659-1-.659-2.277-.659-4.831v-16.705z" fill="#9286A4"/><path d="M274.228 92.05c0-2.732 0-4.097.896-4.69s2.153-.06 4.666 1.007l16.677 7.079c2.363 1.003 3.545 1.505 4.209 2.509.665 1.004.665 2.287.665 4.855v18.78c0 2.731 0 4.097-.896 4.69s-2.153.059-4.667-1.008l-16.676-7.078c-2.364-1.004-3.546-1.505-4.21-2.509-.664-1.004-.664-2.288-.664-4.855V92.05z" fill="#524668"/><path d="M289.401 92.364l-9.508-4.102c-2.522-1.087-3.782-1.631-4.683-1.039-.901.593-.901 1.966-.901 4.712V112.2c0 1.392 0 2.088.456 2.383.456.296 1.091.011 2.361-.557l5.552-2.487v-.001c2.015-.902 3.022-1.353 3.955-1.936.934-.583 1.781-1.291 3.475-2.706l1.252-1.046c4.471-3.734 6.706-5.601 6.385-7.813-.321-2.212-2.996-3.366-8.344-5.673z" fill="#605178"/><path d="M282.085 89.252l14.419 6.208c2.346 1.01 3.519 1.515 4.178 2.516.658 1.001.658 2.278.658 4.832v16.705l-14.419-6.208c-2.346-1.01-3.518-1.515-4.177-2.516-.659-1.001-.659-2.278-.659-4.832V89.252z" fill="#9286A4"/><path d="M274.226 188.37c0-2.736 0-4.105.898-4.698.897-.593 2.156-.055 4.672 1.019l51.86 22.146c2.356 1.006 3.534 1.509 4.196 2.512.662 1.003.662 2.284.662 4.845v22.62c0 2.737 0 4.105-.898 4.698s-2.157.056-4.673-1.019l-51.859-22.146c-2.356-1.006-3.534-1.509-4.196-2.512-.662-1.002-.662-2.283-.662-4.845v-22.62z" fill="#524668"/><path d="M303.152 194.665l-23.356-9.974c-2.516-1.074-3.775-1.612-4.672-1.019-.898.593-.898 1.962-.898 4.698v24.815c0 1.392 0 2.087.456 2.383.456.296 1.091.011 2.361-.558l4.483-2.008c2.879-1.29 4.319-1.935 5.847-2.286 1.528-.351 3.105-.399 6.259-.495l6.622-.202c14.228-.435 21.342-.652 21.938-3.81.597-3.158-5.949-5.954-19.04-11.544z" fill="#605178"/><path d="M285.692 187.242l45.965 19.624c2.356 1.006 3.534 1.509 4.196 2.511.663 1.003.663 2.284.663 4.846v17.879l-45.965-19.624c-2.356-1.006-3.534-1.509-4.196-2.511-.663-1.003-.663-2.284-.663-4.846v-17.879z" fill="#9286A4"/><path d="M288.002 42.003c-1.815-.786-2.723-1.179-2.723-1.836 0-.656.908-1.05 2.723-1.835l61.231-26.508c1.566-.677 2.348-1.016 3.177-1.016.828 0 1.611.338 3.177 1.015l61.035 26.398c1.811.783 2.717 1.174 2.717 1.83.001.657-.903 1.05-2.712 1.839l-61.041 26.594c-1.57.684-2.354 1.026-3.185 1.027-.831.001-1.617-.339-3.188-1.019l-61.211-26.49z" fill="#3B304F"/><mask id="b" maskUnits="userSpaceOnUse" x="285" y="10" width="135" height="60"><path d="M288.002 42.003c-1.815-.786-2.723-1.179-2.723-1.836 0-.656.908-1.05 2.723-1.835l61.231-26.508c1.566-.677 2.348-1.016 3.177-1.016.828 0 1.611.338 3.177 1.015l61.035 26.398c1.811.783 2.717 1.174 2.717 1.83.001.657-.903 1.05-2.712 1.839l-61.041 26.594c-1.57.684-2.354 1.026-3.185 1.027-.831.001-1.617-.339-3.188-1.019l-61.211-26.49z" fill="#403453"/></mask><g mask="url(#b)"><path d="M285.623 48.664v-13.45l66.671-28.98 66.623 28.98v13.45l-66.623-28.846-66.671 28.846z" fill="#1C122D"/></g></g><path d="M341.556 171.784c-1.815-.786-2.723-1.179-2.723-1.836s.908-1.049 2.723-1.835l64.153-27.773c1.566-.678 2.349-1.017 3.177-1.017.828 0 1.611.339 3.177 1.016l63.949 27.657c1.811.783 2.716 1.175 2.717 1.831.001.656-.904 1.05-2.712 1.838l-63.956 27.865c-1.569.684-2.354 1.025-3.185 1.026-.831.001-1.616-.338-3.187-1.018l-64.133-27.754z" fill="#3B304F"/><path d="M338.623 169.83v151.851l70.156 30.494 70.104-30.494V169.83l-70.104 30.353-70.156-30.353z" fill="#1C122D"/><path d="M441.967 292.663c0-2.731 0-4.097-.896-4.69s-2.153-.06-4.667 1.007l-9.814 4.166c-2.363 1.003-3.545 1.505-4.209 2.509-.665 1.004-.665 2.288-.665 4.855v11.157c0 2.731 0 4.097.896 4.69s2.153.059 4.667-1.008l9.814-4.165c2.363-1.004 3.545-1.505 4.209-2.509.665-1.004.665-2.288.665-4.855v-11.157z" fill="#524668"/><path d="M431.469 291.008l4.853-2.093c2.521-1.088 3.782-1.632 4.683-1.039.901.592.901 1.965.901 4.712v12.815c0 1.391 0 2.087-.456 2.383-.456.295-1.091.011-2.361-.558l-3.152-1.412c-1.276-.572-1.914-.857-2.522-1.196a16.143 16.143 0 01-1.365-.853c-.572-.398-1.108-.847-2.182-1.743-2.793-2.333-4.189-3.499-4.493-4.802a4 4 0 01.42-2.889c.662-1.163 2.333-1.883 5.674-3.325z" fill="#605178"/><path d="M436.098 289.043l-9.546 4.11c-2.346 1.01-3.519 1.515-4.177 2.516-.659 1.001-.659 2.278-.659 4.832v11.144l9.545-4.11c2.346-1.01 3.519-1.515 4.178-2.516.659-1.001.659-2.278.659-4.832v-11.144z" fill="#9286A4"/><path d="M468.237 281.791c0-2.73 0-4.096-.896-4.689s-2.153-.06-4.667 1.007l-9.813 4.166c-2.364 1.003-3.545 1.505-4.21 2.509-.664 1.004-.664 2.287-.664 4.855v11.157c0 2.731 0 4.096.896 4.69.896.593 2.153.059 4.667-1.008l9.813-4.165c2.364-1.004 3.545-1.505 4.21-2.509.664-1.004.664-2.288.664-4.856v-11.157z" fill="#524668"/><path d="M457.739 280.137l4.853-2.093c2.522-1.088 3.783-1.632 4.684-1.039.901.592.901 1.965.901 4.712v12.814c0 1.392 0 2.088-.457 2.383-.456.296-1.091.012-2.361-.557l-3.151-1.412c-1.276-.572-1.914-.858-2.523-1.196a16.305 16.305 0 01-1.365-.853c-.571-.399-1.108-.847-2.181-1.743-2.793-2.333-4.189-3.499-4.494-4.803a4.003 4.003 0 01.42-2.888c.662-1.163 2.333-1.883 5.674-3.325z" fill="#605178"/><path d="M462.368 278.172l-9.545 4.11c-2.346 1.01-3.519 1.515-4.178 2.516-.659 1.001-.659 2.278-.659 4.832v11.144l9.546-4.11c2.346-1.01 3.519-1.515 4.177-2.516.659-1.001.659-2.278.659-4.832v-11.144z" fill="#9286A4"/><path d="M441.967 256.426c0-2.731 0-4.096-.896-4.689s-2.153-.06-4.667 1.007l-9.814 4.166c-2.363 1.003-3.545 1.505-4.209 2.509-.665 1.003-.665 2.287-.665 4.855v11.157c0 2.731 0 4.096.896 4.689.896.594 2.153.06 4.667-1.007l9.814-4.166c2.363-1.003 3.545-1.505 4.209-2.508.665-1.004.665-2.288.665-4.856v-11.157z" fill="#524668"/><path d="M431.469 254.772l4.853-2.093c2.521-1.088 3.782-1.632 4.683-1.04.901.593.901 1.966.901 4.712v12.815c0 1.392 0 2.088-.456 2.383-.456.296-1.091.011-2.361-.558l-3.152-1.411c-1.276-.572-1.914-.858-2.522-1.197a15.881 15.881 0 01-1.365-.852c-.572-.399-1.108-.847-2.182-1.743-2.793-2.333-4.189-3.499-4.493-4.803a3.998 3.998 0 01.42-2.888c.662-1.163 2.333-1.884 5.674-3.325z" fill="#605178"/><path d="M436.098 252.807l-9.546 4.11c-2.346 1.01-3.519 1.515-4.177 2.515-.659 1.001-.659 2.278-.659 4.832v11.144l9.545-4.11c2.346-1.01 3.519-1.515 4.178-2.515.659-1.001.659-2.278.659-4.832v-11.144z" fill="#9286A4"/><path d="M468.237 245.555c0-2.731 0-4.096-.896-4.689-.896-.594-2.153-.06-4.667 1.007l-9.813 4.166c-2.364 1.003-3.545 1.505-4.21 2.508-.664 1.004-.664 2.288-.664 4.856v11.157c0 2.731 0 4.096.896 4.689s2.153.06 4.667-1.007l9.813-4.166c2.364-1.003 3.545-1.505 4.21-2.509.664-1.003.664-2.287.664-4.855v-11.157z" fill="#524668"/><path d="M457.739 243.901l4.853-2.094c2.522-1.087 3.783-1.631 4.684-1.039.901.593.901 1.966.901 4.712v12.815c0 1.392 0 2.088-.457 2.383-.456.296-1.091.011-2.361-.558l-3.151-1.411c-1.276-.572-1.914-.858-2.523-1.197a16.048 16.048 0 01-1.365-.853c-.571-.398-1.108-.846-2.181-1.743-2.793-2.332-4.189-3.498-4.494-4.802a4.003 4.003 0 01.42-2.888c.662-1.163 2.333-1.884 5.674-3.325z" fill="#605178"/><path d="M462.368 241.936l-9.545 4.109c-2.346 1.01-3.519 1.515-4.178 2.516-.659 1.001-.659 2.278-.659 4.832v11.144l9.546-4.11c2.346-1.01 3.519-1.515 4.177-2.516.659-1 .659-2.277.659-4.831v-11.144z" fill="#9286A4"/><path d="M441.967 220.19c0-2.731 0-4.096-.896-4.69-.896-.593-2.153-.059-4.667 1.008l-9.814 4.165c-2.363 1.004-3.545 1.505-4.209 2.509-.665 1.004-.665 2.288-.665 4.856v11.157c0 2.73 0 4.096.896 4.689s2.153.06 4.667-1.007l9.814-4.166c2.363-1.003 3.545-1.505 4.209-2.509.665-1.004.665-2.287.665-4.855V220.19z" fill="#524668"/><path d="M431.469 218.536l4.853-2.094c2.521-1.088 3.782-1.631 4.683-1.039.901.593.901 1.966.901 4.712v12.815c0 1.392 0 2.087-.456 2.383-.456.296-1.091.011-2.361-.558l-3.152-1.412c-1.276-.571-1.914-.857-2.522-1.196a15.892 15.892 0 01-1.365-.853c-.572-.398-1.108-.846-2.182-1.743-2.793-2.332-4.189-3.499-4.493-4.802a3.997 3.997 0 01.42-2.888c.662-1.163 2.333-1.884 5.674-3.325z" fill="#605178"/><path d="M436.098 216.57l-9.546 4.11c-2.346 1.01-3.519 1.515-4.177 2.516-.659 1.001-.659 2.278-.659 4.832v11.144l9.545-4.11c2.346-1.01 3.519-1.515 4.178-2.516.659-1.001.659-2.278.659-4.832V216.57z" fill="#9286A4"/><path d="M468.237 209.319c0-2.731 0-4.097-.896-4.69s-2.153-.059-4.667 1.008l-9.813 4.165c-2.364 1.004-3.545 1.505-4.21 2.509-.664 1.004-.664 2.288-.664 4.855v11.157c0 2.731 0 4.097.896 4.69s2.153.06 4.667-1.007l9.813-4.166c2.364-1.003 3.545-1.505 4.21-2.509.664-1.004.664-2.288.664-4.855v-11.157z" fill="#524668"/><path d="M457.739 207.665l4.853-2.094c2.522-1.088 3.783-1.632 4.684-1.039.901.593.901 1.966.901 4.712v12.815c0 1.391 0 2.087-.457 2.383-.456.295-1.091.011-2.361-.558l-3.151-1.412c-1.276-.571-1.914-.857-2.523-1.196a16.048 16.048 0 01-1.365-.853c-.571-.398-1.108-.846-2.181-1.743-2.793-2.332-4.189-3.499-4.494-4.802a4.002 4.002 0 01.42-2.888c.662-1.163 2.333-1.884 5.674-3.325z" fill="#605178"/><path d="M462.368 205.699l-9.545 4.11c-2.346 1.01-3.519 1.515-4.178 2.516-.659 1.001-.659 2.278-.659 4.832v11.144l9.546-4.11c2.346-1.01 3.519-1.515 4.177-2.516.659-1.001.659-2.278.659-4.832v-11.144z" fill="#9286A4"/><path d="M376.732 256.426c0-2.731 0-4.096.897-4.689.896-.593 2.153-.06 4.666 1.007l9.814 4.166c2.363 1.003 3.545 1.505 4.21 2.509.664 1.003.664 2.287.664 4.855v11.157c0 2.731 0 4.096-.896 4.689-.896.594-2.153.06-4.667-1.007l-9.813-4.166c-2.364-1.003-3.546-1.505-4.21-2.508-.665-1.004-.665-2.288-.665-4.856v-11.157z" fill="#524668"/><path d="M387.229 254.772l-4.853-2.093c-2.521-1.088-3.782-1.632-4.683-1.04-.901.593-.901 1.966-.901 4.712v12.815c0 1.392 0 2.088.456 2.383.457.296 1.092.011 2.362-.558l3.151-1.411c1.276-.572 1.914-.858 2.523-1.197.469-.261.924-.545 1.365-.852.571-.399 1.108-.847 2.181-1.743 2.793-2.333 4.189-3.499 4.493-4.803a4.002 4.002 0 00-.419-2.888c-.663-1.163-2.333-1.884-5.675-3.325z" fill="#605178"/><path d="M382.602 252.807l9.545 4.11c2.346 1.01 3.519 1.515 4.178 2.515.658 1.001.658 2.278.658 4.832v11.144l-9.545-4.11c-2.346-1.01-3.519-1.515-4.178-2.515-.658-1.001-.658-2.278-.658-4.832v-11.144z" fill="#9286A4"/><path d="M350.461 245.555c0-2.731 0-4.096.896-4.689.896-.594 2.153-.06 4.667 1.007l9.813 4.166c2.364 1.003 3.546 1.505 4.21 2.508.665 1.004.665 2.288.665 4.856v11.157c0 2.731 0 4.096-.897 4.689-.896.593-2.153.06-4.666-1.007l-9.814-4.166c-2.363-1.003-3.545-1.505-4.21-2.509-.664-1.003-.664-2.287-.664-4.855v-11.157z" fill="#524668"/><path d="M360.959 243.901l-4.853-2.094c-2.522-1.087-3.783-1.631-4.684-1.039-.901.593-.901 1.966-.901 4.712v12.815c0 1.392 0 2.088.457 2.383.456.296 1.091.011 2.361-.558l3.151-1.411c1.277-.572 1.915-.858 2.523-1.197.469-.261.925-.546 1.365-.853.571-.398 1.108-.846 2.181-1.743 2.793-2.332 4.19-3.498 4.494-4.802a3.998 3.998 0 00-.42-2.888c-.662-1.163-2.333-1.884-5.674-3.325z" fill="#605178"/><path d="M356.33 241.936l9.546 4.109c2.345 1.01 3.518 1.515 4.177 2.516.659 1.001.659 2.278.659 4.832v11.144l-9.546-4.11c-2.345-1.01-3.518-1.515-4.177-2.516-.659-1-.659-2.277-.659-4.831v-11.144z" fill="#9286A4"/><path d="M376.732 220.19c0-2.731 0-4.096.897-4.69.896-.593 2.153-.059 4.666 1.008l9.814 4.165c2.363 1.004 3.545 1.505 4.21 2.509.664 1.004.664 2.288.664 4.856v11.157c0 2.73 0 4.096-.896 4.689s-2.153.06-4.667-1.007l-9.813-4.166c-2.364-1.003-3.546-1.505-4.21-2.509-.665-1.004-.665-2.287-.665-4.855V220.19z" fill="#524668"/><path d="M387.229 218.536l-4.853-2.094c-2.521-1.088-3.782-1.631-4.683-1.039-.901.593-.901 1.966-.901 4.712v12.815c0 1.392 0 2.087.456 2.383.457.296 1.092.011 2.362-.558l3.151-1.412c1.276-.571 1.914-.857 2.523-1.196.469-.261.924-.546 1.365-.853.571-.398 1.108-.846 2.181-1.743 2.793-2.332 4.189-3.499 4.493-4.802a4.002 4.002 0 00-.419-2.888c-.663-1.163-2.333-1.884-5.675-3.325z" fill="#605178"/><path d="M382.602 216.57l9.545 4.11c2.346 1.01 3.519 1.515 4.178 2.516.658 1.001.658 2.278.658 4.832v11.144l-9.545-4.11c-2.346-1.01-3.519-1.515-4.178-2.516-.658-1.001-.658-2.278-.658-4.832V216.57z" fill="#9286A4"/><path d="M350.461 209.319c0-2.731 0-4.097.896-4.69s2.153-.059 4.667 1.008l9.813 4.165c2.364 1.004 3.546 1.505 4.21 2.509.665 1.004.665 2.288.665 4.855v11.157c0 2.731 0 4.097-.897 4.69-.896.593-2.153.06-4.666-1.007l-9.814-4.166c-2.363-1.003-3.545-1.505-4.21-2.509-.664-1.004-.664-2.288-.664-4.855v-11.157z" fill="#524668"/><path d="M360.959 207.665l-4.853-2.094c-2.522-1.088-3.783-1.632-4.684-1.039-.901.593-.901 1.966-.901 4.712v12.815c0 1.391 0 2.087.457 2.383.456.295 1.091.011 2.361-.558l3.151-1.412c1.277-.571 1.915-.857 2.523-1.196.469-.261.925-.546 1.365-.853.571-.398 1.108-.846 2.181-1.743 2.793-2.332 4.19-3.499 4.494-4.802a3.997 3.997 0 00-.42-2.888c-.662-1.163-2.333-1.884-5.674-3.325z" fill="#605178"/><path d="M356.33 205.699l9.546 4.11c2.345 1.01 3.518 1.515 4.177 2.516.659 1.001.659 2.278.659 4.832v11.144l-9.546-4.11c-2.345-1.01-3.518-1.515-4.177-2.516-.659-1.001-.659-2.278-.659-4.832v-11.144z" fill="#9286A4"/><path d="M350.46 281.265c0-2.737 0-4.105.898-4.698s2.156-.056 4.673 1.019l36.093 15.413c2.356 1.006 3.534 1.509 4.196 2.512.662 1.003.662 2.284.662 4.845v14.025c0 2.736 0 4.104-.898 4.697s-2.156.056-4.673-1.019l-36.093-15.413c-2.356-1.006-3.534-1.509-4.196-2.512-.662-1.002-.662-2.283-.662-4.845v-14.024z" fill="#524668"/><path d="M368.19 282.778l-12.159-5.192c-2.517-1.075-3.775-1.612-4.673-1.019-.898.593-.898 1.961-.898 4.698v16.219c0 1.392 0 2.087.456 2.383.457.296 1.092.011 2.362-.558l1.963-.88c2.09-.936 3.135-1.404 4.227-1.717a15.915 15.915 0 011.668-.383c1.12-.195 2.264-.23 4.553-.3 10.202-.311 15.303-.467 16.436-2.284a4.003 4.003 0 00.538-2.849c-.393-2.105-5.086-4.109-14.473-8.118z" fill="#605178"/><path d="M359.024 278.889l33.101 14.131c2.356 1.006 3.534 1.509 4.197 2.512.662 1.002.662 2.284.662 4.846v12.016l-33.101-14.132c-2.356-1.006-3.534-1.509-4.196-2.511-.663-1.003-.663-2.284-.663-4.846v-12.016z" fill="#9286A4"/><path d="M361.824 170.875c-1.816-.785-2.723-1.178-2.724-1.835 0-.657.908-1.05 2.723-1.836l43.856-18.985c1.565-.678 2.348-1.017 3.177-1.017.828 0 1.611.339 3.177 1.016l43.712 18.905c1.811.783 2.716 1.175 2.717 1.831.001.656-.904 1.05-2.712 1.838l-43.716 19.047c-1.57.683-2.354 1.025-3.185 1.026-.831.001-1.617-.339-3.188-1.019l-43.837-18.971z" fill="#3B304F"/><mask id="c" maskUnits="userSpaceOnUse" x="359" y="147" width="100" height="44"><path d="M361.824 170.875c-1.816-.785-2.723-1.178-2.724-1.835 0-.657.908-1.05 2.723-1.836l43.856-18.985c1.565-.678 2.348-1.017 3.177-1.017.828 0 1.611.339 3.177 1.016l43.712 18.905c1.811.783 2.716 1.175 2.717 1.831.001.656-.904 1.05-2.712 1.838l-43.716 19.047c-1.57.683-2.354 1.025-3.185 1.026-.831.001-1.617-.339-3.188-1.019l-43.837-18.971z" fill="#403453"/></mask><g mask="url(#c)"><path d="M358.973 175.387v-10.045l49.796-21.645 49.759 21.645v10.045l-49.759-21.545-49.796 21.545z" fill="#1C122D"/></g><path d="M197.746 140.809c-1.815-.785-2.723-1.178-2.723-1.835s.908-1.05 2.723-1.835l78.064-33.795c1.566-.678 2.349-1.017 3.177-1.017.828 0 1.611.339 3.177 1.016l77.817 33.655c1.811.783 2.717 1.175 2.718 1.831.001.656-.904 1.05-2.713 1.838l-77.825 33.908c-1.57.684-2.354 1.026-3.185 1.027-.831.001-1.617-.339-3.188-1.019l-78.042-33.774z" fill="#403453"/><path d="M195.066 138.834v233.3l83.792 36.422 83.729-36.422v-233.3l-83.729 36.253-83.792-36.253z" fill="#241838"/><g filter="url(#filter10_d)"><path d="M210.637 164.062v92.656c0 1.273 0 1.909.327 2.408.328.5.911.753 2.078 1.261l57.835 25.139c3.93 1.708 5.895 2.562 7.975 2.562s4.045-.855 7.975-2.565l57.786-25.136c1.167-.507 1.75-.761 2.077-1.26.328-.5.328-1.136.328-2.408v-92.656c0-1.375 0-2.062-.451-2.359-.451-.296-1.082-.023-2.344.524l-57.427 24.864c-3.915 1.695-5.872 2.543-7.944 2.543-2.071 0-4.029-.847-7.944-2.541l-57.477-24.868c-1.262-.545-1.892-.818-2.343-.522-.451.296-.451.984-.451 2.358z" fill="#F6F0FF"/></g><path d="M278.827 203.686v68.277" stroke="#EDE6F7" stroke-width="2" stroke-linecap="round" stroke-linejoin="round"/><path d="M347.017 280.794c0-2.737 0-4.105-.898-4.698s-2.157-.055-4.673 1.019l-42.278 18.054c-2.356 1.006-3.534 1.51-4.196 2.512-.662 1.003-.662 2.284-.662 4.846v17.395c0 2.737 0 4.105.898 4.698s2.156.056 4.673-1.019l42.277-18.054c2.356-1.006 3.534-1.509 4.197-2.512.662-1.003.662-2.283.662-4.845v-17.396z" fill="#544769"/><path d="M326.93 283.314l14.516-6.199c2.516-1.074 3.775-1.612 4.673-1.019.898.593.898 1.961.898 4.698v19.591c0 1.391 0 2.087-.457 2.383-.456.295-1.091.011-2.361-.558l-2.599-1.164c-2.752-1.233-4.127-1.849-5.584-2.197-.09-.022-.18-.042-.271-.062-1.462-.323-2.969-.369-5.982-.461-13.561-.414-20.342-.621-21.08-3.55a3.981 3.981 0 01-.089-.473c-.381-2.996 5.858-5.66 18.336-10.989z" fill="#605277"/><path d="M337.316 278.908l-38.146 16.286c-2.356 1.006-3.534 1.509-4.197 2.512-.662 1.002-.662 2.283-.662 4.845v14.316l38.147-16.285c2.356-1.006 3.534-1.509 4.196-2.512.662-1.003.662-2.284.662-4.846v-14.316z" fill="#9286A4"/><path d="M210.636 280.794c0-2.737 0-4.105.898-4.698s2.156-.055 4.673 1.019l42.277 18.054c2.356 1.006 3.534 1.51 4.196 2.512.662 1.003.662 2.284.662 4.846v17.395c0 2.737 0 4.105-.898 4.698s-2.156.056-4.673-1.019l-42.277-18.054c-2.356-1.006-3.534-1.509-4.196-2.512-.662-1.003-.662-2.283-.662-4.845v-17.396z" fill="#544769"/><path d="M230.723 283.314l-14.516-6.199c-2.517-1.074-3.775-1.612-4.673-1.019-.898.593-.898 1.961-.898 4.698v19.591c0 1.391 0 2.087.456 2.383.456.295 1.091.011 2.361-.558l2.6-1.164c2.751-1.233 4.127-1.849 5.583-2.197.09-.022.181-.042.271-.062 1.462-.323 2.969-.369 5.982-.461 13.562-.414 20.342-.621 21.08-3.55.039-.155.069-.314.089-.473.381-2.996-5.858-5.66-18.335-10.989z" fill="#605277"/><path d="M220.336 278.908l38.146 16.286c2.357 1.006 3.535 1.509 4.197 2.512.662 1.002.662 2.283.662 4.845v14.316l-38.146-16.285c-2.357-1.006-3.535-1.509-4.197-2.512-.662-1.003-.662-2.284-.662-4.846v-14.316z" fill="#9286A4"/><path d="M347.017 324.073c0-2.736 0-4.105-.898-4.698-.898-.592-2.157-.055-4.673 1.02l-42.278 18.054c-2.356 1.006-3.534 1.509-4.196 2.511-.662 1.003-.662 2.284-.662 4.846v17.396c0 2.736 0 4.104.898 4.697s2.156.056 4.673-1.019l42.277-18.054c2.356-1.006 3.534-1.509 4.197-2.512.662-1.002.662-2.283.662-4.845v-17.396z" fill="#544769"/><path d="M326.93 326.594l14.516-6.199c2.516-1.075 3.775-1.612 4.673-1.02.898.593.898 1.962.898 4.698v19.591c0 1.392 0 2.088-.457 2.383-.456.296-1.091.011-2.361-.558l-2.599-1.164c-2.752-1.233-4.127-1.849-5.584-2.197l-.271-.062c-1.462-.323-2.969-.369-5.982-.461-13.561-.414-20.342-.62-21.08-3.549a3.998 3.998 0 01-.089-.474c-.381-2.996 5.858-5.66 18.336-10.988z" fill="#605277"/><path d="M337.316 322.188l-38.146 16.285c-2.356 1.006-3.534 1.509-4.197 2.512-.662 1.002-.662 2.284-.662 4.846v14.315l38.147-16.285c2.356-1.006 3.534-1.509 4.196-2.512.662-1.003.662-2.284.662-4.846v-14.315z" fill="#9286A4"/><path d="M210.637 324.073c0-2.736 0-4.105.898-4.698.898-.592 2.156-.055 4.673 1.02l42.277 18.054c2.356 1.006 3.534 1.509 4.196 2.511.662 1.003.662 2.284.662 4.846v17.396c0 2.736 0 4.104-.898 4.697s-2.156.056-4.673-1.019l-42.277-18.054c-2.356-1.006-3.534-1.509-4.196-2.512-.662-1.002-.662-2.283-.662-4.845v-17.396z" fill="#544769"/><path d="M230.724 326.594l-14.516-6.199c-2.517-1.075-3.775-1.612-4.673-1.02-.898.593-.898 1.962-.898 4.698v19.591c0 1.392 0 2.088.456 2.383.456.296 1.091.011 2.361-.558l2.6-1.164c2.751-1.233 4.127-1.849 5.583-2.197l.271-.062c1.462-.323 2.969-.369 5.982-.461 13.562-.414 20.342-.62 21.08-3.549.039-.156.069-.314.089-.474.381-2.996-5.858-5.66-18.335-10.988z" fill="#605277"/><path d="M220.337 322.188l38.146 16.285c2.357 1.006 3.535 1.509 4.197 2.512.662 1.002.662 2.284.662 4.846v14.315l-38.146-16.285c-2.357-1.006-3.535-1.509-4.197-2.512-.662-1.003-.662-2.284-.662-4.846v-14.315z" fill="#9286A4"/><path d="M221.954 139.725c-1.816-.786-2.724-1.179-2.724-1.836 0-.656.908-1.049 2.723-1.835l53.821-23.3c1.566-.678 2.349-1.017 3.177-1.017.828 0 1.611.339 3.177 1.016l53.647 23.202c1.811.783 2.717 1.175 2.718 1.831.001.656-.904 1.05-2.713 1.838L282.128 163c-1.57.684-2.354 1.026-3.185 1.027-.831.001-1.617-.339-3.188-1.019l-53.801-23.283z" fill="#403453"/><mask id="d" maskUnits="userSpaceOnUse" x="219" y="111" width="120" height="54"><path d="M221.954 139.725c-1.816-.786-2.724-1.179-2.724-1.836 0-.656.908-1.049 2.723-1.835l53.821-23.3c1.566-.678 2.349-1.017 3.177-1.017.828 0 1.611.339 3.177 1.016l53.647 23.202c1.811.783 2.717 1.175 2.718 1.831.001.656-.904 1.05-2.713 1.838L282.128 163c-1.57.684-2.354 1.026-3.185 1.027-.831.001-1.617-.339-3.188-1.019l-53.801-23.283z" fill="#403453"/></mask><g mask="url(#d)"><path d="M219.374 145.469v-11.998l59.475-25.852 59.431 25.852v11.998l-59.431-25.732-59.475 25.732z" fill="#241838"/></g><g filter="url(#filter11_d)"><circle cx="628.144" cy="433.061" r="24.649" fill="url(#paint6_linear)"/></g><path d="M627.688 493.314v-37.887m0-37.886v24.649m0 13.237l15.52-13.237m-15.52 13.237V442.19m0 0l-11.412-13.694" stroke="url(#paint7_linear)" stroke-width="2" stroke-linecap="round" stroke-linejoin="round"/><g filter="url(#filter12_d)"><circle cx="628.144" cy="402.934" r="26.475" fill="url(#paint8_linear)"/></g><g filter="url(#filter13_d)"><circle cx="605.321" cy="423.018" r="18.259" fill="url(#paint9_linear)"/></g><g filter="url(#filter14_d)"><circle cx="651.88" cy="439.452" r="13.694" fill="url(#paint10_linear)"/></g><g filter="url(#filter15_d)"><circle r="14.607" transform="matrix(-1 0 0 1 614.653 481.413)" fill="url(#paint11_linear)"/></g><path d="M614.924 517.117v-22.451m0-22.451v14.607m0 7.844l-9.197-7.844m9.197 7.844v-7.844m0 0l6.763-8.115" stroke="url(#paint12_linear)" stroke-width="2" stroke-linecap="round" stroke-linejoin="round"/><g filter="url(#filter16_d)"><circle r="15.689" transform="matrix(-1 0 0 1 614.653 463.56)" fill="url(#paint13_linear)"/></g><g filter="url(#filter17_d)"><circle r="10.82" transform="matrix(-1 0 0 1 628.178 475.462)" fill="url(#paint14_linear)"/></g><g filter="url(#filter18_d)"><circle r="8.115" transform="matrix(-1 0 0 1 600.587 485.199)" fill="url(#paint15_linear)"/></g><path fill-rule="evenodd" clip-rule="evenodd" d="M284.981 408.203h-13.889v16.494h.02c.055.495.227.981.508 1.441.349.57.861 1.088 1.506 1.524.645.436 1.41.782 2.253 1.018a9.894 9.894 0 002.657.357c.912 0 1.815-.121 2.658-.357a7.767 7.767 0 002.253-1.018c.645-.436 1.156-.954 1.505-1.524a3.49 3.49 0 00.509-1.441h.02v-16.494z" fill="#202037"/><g filter="url(#filter19_d)"><path fill-rule="evenodd" clip-rule="evenodd" d="M278.13 353.568c-1.737 0-2.893 2.013-5.204 6.04l-20.282 35.334c-2.257 3.932-3.404 5.93-2.613 7.419.201 1.889.904 3.749 2.082 5.503 1.415 2.107 3.489 4.021 6.104 5.633 2.614 1.612 5.718 2.891 9.134 3.763 3.416.873 7.078 1.322 10.775 1.322 3.698 0 7.359-.449 10.775-1.322 3.417-.872 6.52-2.151 9.135-3.763s4.689-3.526 6.104-5.633c1.175-1.749 1.877-3.603 2.08-5.488.807-1.49-.339-3.488-2.604-7.434l-20.283-35.334c-2.311-4.027-3.466-6.04-5.203-6.04z" fill="#33334C"/></g><g filter="url(#filter20_d)"><path fill-rule="evenodd" clip-rule="evenodd" d="M278.123 340.439c-1.731 0-2.885 1.997-5.194 5.99l-17.54 30.336c-2.302 3.98-3.459 5.981-2.618 7.479.214 1.627.837 3.227 1.851 4.74 1.277 1.907 3.15 3.639 5.51 5.098s5.162 2.617 8.246 3.407c3.083.789 6.388 1.196 9.726 1.196 3.338 0 6.643-.407 9.727-1.196 3.084-.79 5.886-1.948 8.246-3.407 2.36-1.459 4.232-3.191 5.51-5.098.996-1.488 1.616-3.059 1.84-4.658l.035-.059c.865-1.5-.291-3.501-2.605-7.502l-17.54-30.336c-2.309-3.993-3.463-5.99-5.194-5.99z" fill="#515170"/></g><g filter="url(#filter21_d)"><path fill-rule="evenodd" clip-rule="evenodd" d="M278.131 333.102c-.569 0-.952.644-1.719 1.933l-14.207 23.877c-2.393 4.023-3.59 6.034-2.727 7.551l.05.084c.203 1.053.637 2.086 1.293 3.07.942 1.414 2.322 2.698 4.062 3.781 1.74 1.082 3.806 1.94 6.08 2.526 2.274.585 4.711.887 7.172.887a28.94 28.94 0 007.171-.887c2.274-.586 4.34-1.444 6.08-2.526 1.74-1.083 3.121-2.367 4.063-3.781.659-.99 1.094-2.03 1.296-3.089l.038-.065c.863-1.517-.334-3.528-2.727-7.551l-14.207-23.877c-.766-1.289-1.15-1.933-1.718-1.933z" fill="#68688E"/></g><path fill-rule="evenodd" clip-rule="evenodd" d="M521.062 421.904H503.75v67.723h17.312v-67.723zm-.659 69.963c.435-.711.659-1.472.659-2.24H503.75c0 .768.224 1.529.659 2.24.435.71 1.073 1.355 1.876 1.898.804.544 1.758.975 2.809 1.269 1.05.294 2.175.445 3.312.445s2.262-.151 3.313-.445c1.05-.294 2.004-.725 2.808-1.269.804-.543 1.441-1.188 1.876-1.898z" fill="#241838"/><path d="M469.243 316.658c1.282-.391 1.923-.586 2.581-.566.658.02 1.286.253 2.543.721l98.831 36.801c2.519.938 3.779 1.407 4.494 2.436.715 1.029.715 2.373.715 5.061v76.775c0 1.175 0 1.762-.288 2.238-.287.477-.806.751-1.845 1.299l-16.548 8.734c-.392.207-.587.31-.801.323-.214.014-.421-.064-.835-.219l-24.331-9.124c-2.558-.959-3.838-1.439-5.045-2.072-1.207-.632-2.33-1.41-4.576-2.967l-62.885-43.601c-6.744-4.676-10.117-7.014-11.942-10.5-1.825-3.486-1.825-7.59-1.825-15.797v-14.084l.96-27.707c.023-.689.035-1.034.231-1.288.195-.254.525-.354 1.184-.556l19.382-5.907z" fill="#241838"/><g filter="url(#filter22_d)"><path d="M447.486 327.644c0-2.643 0-3.964.868-4.56.868-.596 2.101-.122 4.568.827l101.963 39.216c2.482.955 3.722 1.432 4.425 2.455.703 1.024.703 2.353.703 5.012v75.241c0 2.643 0 3.964-.868 4.56-.868.596-2.101.122-4.568-.827l-101.963-39.216c-2.481-.955-3.722-1.432-4.425-2.455-.703-1.024-.703-2.353-.703-5.012v-75.241z" fill="#F6F0FF"/></g><path fill-rule="evenodd" clip-rule="evenodd" d="M529.607 560.031h-17.312v20.558h.025c.069.617.283 1.224.634 1.797.435.71 1.073 1.355 1.876 1.899.804.543 1.758.974 2.809 1.268 1.05.295 2.175.446 3.312.446s2.262-.151 3.313-.446c1.05-.294 2.004-.725 2.808-1.268.804-.544 1.441-1.189 1.876-1.899.351-.573.565-1.18.634-1.797h.025v-20.558z" fill="#202037"/><g filter="url(#filter23_d)"><path fill-rule="evenodd" clip-rule="evenodd" d="M521.068 491.188c-1.737 0-2.893 2.013-5.204 6.039l-27.833 48.49c-2.281 3.973-3.428 5.971-2.588 7.465.262 2.341 1.15 4.645 2.636 6.819 1.795 2.625 4.425 5.011 7.74 7.02 3.316 2.01 7.252 3.604 11.584 4.691 4.332 1.088 8.975 1.647 13.664 1.647s9.332-.559 13.664-1.647c4.332-1.087 8.268-2.681 11.584-4.691 3.315-2.009 5.945-4.395 7.74-7.02 1.484-2.173 2.373-4.475 2.635-6.815.845-1.494-.302-3.492-2.585-7.469l-27.833-48.49c-2.312-4.026-3.467-6.039-5.204-6.039z" fill="#33334C"/></g><g filter="url(#filter24_d)"><path fill-rule="evenodd" clip-rule="evenodd" d="M521.06 474.828c-1.731 0-2.886 1.997-5.195 5.99l-24.425 42.243c-2.283 3.95-3.44 5.95-2.637 7.444.211 2.182 1.022 4.33 2.406 6.354 1.624 2.376 4.004 4.536 7.005 6.354 3.001 1.819 6.564 3.262 10.485 4.246 3.921.985 8.124 1.491 12.368 1.491s8.447-.506 12.368-1.491c3.921-.984 7.483-2.427 10.484-4.246 3.001-1.818 5.382-3.978 7.006-6.354 1.391-2.034 2.203-4.194 2.408-6.387.769-1.491-.388-3.491-2.654-7.411l-24.425-42.243c-2.309-3.993-3.464-5.99-5.194-5.99z" fill="#515170"/></g><g filter="url(#filter25_d)"><path fill-rule="evenodd" clip-rule="evenodd" d="M521.067 466.186c-.569 0-.952.644-1.719 1.933l-19.46 32.707c-2.394 4.023-3.59 6.034-2.728 7.551.017.029.033.057.051.084.226 1.432.803 2.838 1.715 4.172 1.204 1.762 2.969 3.364 5.195 4.712 2.225 1.349 4.867 2.419 7.775 3.149 2.908.73 6.024 1.106 9.172 1.106 3.147 0 6.263-.376 9.171-1.106 2.908-.73 5.55-1.8 7.775-3.149 2.226-1.348 3.991-2.95 5.195-4.712.912-1.334 1.489-2.741 1.716-4.174l.049-.082c.862-1.517-.334-3.528-2.728-7.551l-19.46-32.707c-.767-1.289-1.15-1.933-1.719-1.933z" fill="#68688E"/></g><defs><filter id="filter0_d" x="94.436" y="204.902" width="89.298" height="89.298" filterUnits="userSpaceOnUse" color-interpolation-filters="sRGB"><feFlood flood-opacity="0" result="BackgroundImageFix"/><feColorMatrix in="SourceAlpha" values="0 0 0 0 0 0 0 0 0 0 0 0 0 0 0 0 0 0 127 0"/><feOffset dy="8"/><feGaussianBlur stdDeviation="10"/><feColorMatrix values="0 0 0 0 0.0509804 0 0 0 0 0.0627451 0 0 0 0 0.121569 0 0 0 0.4 0"/><feBlend in2="BackgroundImageFix" result="effect1_dropShadow"/><feBlend in="SourceGraphic" in2="effect1_dropShadow" result="shape"/></filter><filter id="filter1_d" x="92.61" y="172.949" width="92.95" height="92.95" filterUnits="userSpaceOnUse" color-interpolation-filters="sRGB"><feFlood flood-opacity="0" result="BackgroundImageFix"/><feColorMatrix in="SourceAlpha" values="0 0 0 0 0 0 0 0 0 0 0 0 0 0 0 0 0 0 127 0"/><feOffset dy="8"/><feGaussianBlur stdDeviation="10"/><feColorMatrix values="0 0 0 0 0.0509804 0 0 0 0 0.0627451 0 0 0 0 0.121569 0 0 0 0.4 0"/><feBlend in2="BackgroundImageFix" result="effect1_dropShadow"/><feBlend in="SourceGraphic" in2="effect1_dropShadow" result="shape"/></filter><filter id="filter2_d" x="78.004" y="201.25" width="76.517" height="76.517" filterUnits="userSpaceOnUse" color-interpolation-filters="sRGB"><feFlood flood-opacity="0" result="BackgroundImageFix"/><feColorMatrix in="SourceAlpha" values="0 0 0 0 0 0 0 0 0 0 0 0 0 0 0 0 0 0 127 0"/><feOffset dy="8"/><feGaussianBlur stdDeviation="10"/><feColorMatrix values="0 0 0 0 0.0509804 0 0 0 0 0.0627451 0 0 0 0 0.121569 0 0 0 0.4 0"/><feBlend in2="BackgroundImageFix" result="effect1_dropShadow"/><feBlend in="SourceGraphic" in2="effect1_dropShadow" result="shape"/></filter><filter id="filter3_d" x="129.128" y="222.248" width="67.388" height="67.388" filterUnits="userSpaceOnUse" color-interpolation-filters="sRGB"><feFlood flood-opacity="0" result="BackgroundImageFix"/><feColorMatrix in="SourceAlpha" values="0 0 0 0 0 0 0 0 0 0 0 0 0 0 0 0 0 0 127 0"/><feOffset dy="8"/><feGaussianBlur stdDeviation="10"/><feColorMatrix values="0 0 0 0 0.0509804 0 0 0 0 0.0627451 0 0 0 0 0.121569 0 0 0 0.4 0"/><feBlend in2="BackgroundImageFix" result="effect1_dropShadow"/><feBlend in="SourceGraphic" in2="effect1_dropShadow" result="shape"/></filter><filter id="filter4_d" x="67.094" y="249.6" width="96.697" height="105.014" filterUnits="userSpaceOnUse" color-interpolation-filters="sRGB"><feFlood flood-opacity="0" result="BackgroundImageFix"/><feColorMatrix in="SourceAlpha" values="0 0 0 0 0 0 0 0 0 0 0 0 0 0 0 0 0 0 127 0"/><feOffset dy="8"/><feGaussianBlur stdDeviation="10"/><feColorMatrix values="0 0 0 0 0.0509804 0 0 0 0 0.0627451 0 0 0 0 0.121569 0 0 0 0.4 0"/><feBlend in2="BackgroundImageFix" result="effect1_dropShadow"/><feBlend in="SourceGraphic" in2="effect1_dropShadow" result="shape"/></filter><filter id="filter5_d" x="69.811" y="236.471" width="91.252" height="98.246" filterUnits="userSpaceOnUse" color-interpolation-filters="sRGB"><feFlood flood-opacity="0" result="BackgroundImageFix"/><feColorMatrix in="SourceAlpha" values="0 0 0 0 0 0 0 0 0 0 0 0 0 0 0 0 0 0 127 0"/><feOffset dy="8"/><feGaussianBlur stdDeviation="10"/><feColorMatrix values="0 0 0 0 0.0509804 0 0 0 0 0.0627451 0 0 0 0 0.121569 0 0 0 0.4 0"/><feBlend in2="BackgroundImageFix" result="effect1_dropShadow"/><feBlend in="SourceGraphic" in2="effect1_dropShadow" result="shape"/></filter><filter id="filter6_d" x="76.511" y="229.133" width="77.865" height="83.709" filterUnits="userSpaceOnUse" color-interpolation-filters="sRGB"><feFlood flood-opacity="0" result="BackgroundImageFix"/><feColorMatrix in="SourceAlpha" values="0 0 0 0 0 0 0 0 0 0 0 0 0 0 0 0 0 0 127 0"/><feOffset dy="8"/><feGaussianBlur stdDeviation="10"/><feColorMatrix values="0 0 0 0 0.0509804 0 0 0 0 0.0627451 0 0 0 0 0.121569 0 0 0 0.4 0"/><feBlend in2="BackgroundImageFix" result="effect1_dropShadow"/><feBlend in="SourceGraphic" in2="effect1_dropShadow" result="shape"/></filter><filter id="filter7_d" x="96.902" y="257.379" width="111.8" height="122.172" filterUnits="userSpaceOnUse" color-interpolation-filters="sRGB"><feFlood flood-opacity="0" result="BackgroundImageFix"/><feColorMatrix in="SourceAlpha" values="0 0 0 0 0 0 0 0 0 0 0 0 0 0 0 0 0 0 127 0"/><feOffset dy="8"/><feGaussianBlur stdDeviation="10"/><feColorMatrix values="0 0 0 0 0.0509804 0 0 0 0 0.0627451 0 0 0 0 0.121569 0 0 0 0.4 0"/><feBlend in2="BackgroundImageFix" result="effect1_dropShadow"/><feBlend in="SourceGraphic" in2="effect1_dropShadow" result="shape"/></filter><filter id="filter8_d" x="100.284" y="241.02" width="105.022" height="114.122" filterUnits="userSpaceOnUse" color-interpolation-filters="sRGB"><feFlood flood-opacity="0" result="BackgroundImageFix"/><feColorMatrix in="SourceAlpha" values="0 0 0 0 0 0 0 0 0 0 0 0 0 0 0 0 0 0 127 0"/><feOffset dy="8"/><feGaussianBlur stdDeviation="10"/><feColorMatrix values="0 0 0 0 0.0509804 0 0 0 0 0.0627451 0 0 0 0 0.121569 0 0 0 0.4 0"/><feBlend in2="BackgroundImageFix" result="effect1_dropShadow"/><feBlend in="SourceGraphic" in2="effect1_dropShadow" result="shape"/></filter><filter id="filter9_d" x="108.616" y="232.377" width="88.372" height="95.414" filterUnits="userSpaceOnUse" color-interpolation-filters="sRGB"><feFlood flood-opacity="0" result="BackgroundImageFix"/><feColorMatrix in="SourceAlpha" values="0 0 0 0 0 0 0 0 0 0 0 0 0 0 0 0 0 0 127 0"/><feOffset dy="8"/><feGaussianBlur stdDeviation="10"/><feColorMatrix values="0 0 0 0 0.0509804 0 0 0 0 0.0627451 0 0 0 0 0.121569 0 0 0 0.4 0"/><feBlend in2="BackgroundImageFix" result="effect1_dropShadow"/><feBlend in="SourceGraphic" in2="effect1_dropShadow" result="shape"/></filter><filter id="filter10_d" x="130.637" y="105.582" width="296.381" height="286.505" filterUnits="userSpaceOnUse" color-interpolation-filters="sRGB"><feFlood flood-opacity="0" result="BackgroundImageFix"/><feColorMatrix in="SourceAlpha" values="0 0 0 0 0 0 0 0 0 0 0 0 0 0 0 0 0 0 127 0"/><feOffset dy="24"/><feGaussianBlur stdDeviation="40"/><feColorMatrix values="0 0 0 0 1 0 0 0 0 1 0 0 0 0 1 0 0 0 0.5 0"/><feBlend in2="BackgroundImageFix" result="effect1_dropShadow"/><feBlend in="SourceGraphic" in2="effect1_dropShadow" result="shape"/></filter><filter id="filter11_d" x="583.495" y="396.412" width="89.298" height="89.298" filterUnits="userSpaceOnUse" color-interpolation-filters="sRGB"><feFlood flood-opacity="0" result="BackgroundImageFix"/><feColorMatrix in="SourceAlpha" values="0 0 0 0 0 0 0 0 0 0 0 0 0 0 0 0 0 0 127 0"/><feOffset dy="8"/><feGaussianBlur stdDeviation="10"/><feColorMatrix values="0 0 0 0 0.0509804 0 0 0 0 0.0627451 0 0 0 0 0.121569 0 0 0 0.4 0"/><feBlend in2="BackgroundImageFix" result="effect1_dropShadow"/><feBlend in="SourceGraphic" in2="effect1_dropShadow" result="shape"/></filter><filter id="filter12_d" x="581.669" y="364.459" width="92.95" height="92.95" filterUnits="userSpaceOnUse" color-interpolation-filters="sRGB"><feFlood flood-opacity="0" result="BackgroundImageFix"/><feColorMatrix in="SourceAlpha" values="0 0 0 0 0 0 0 0 0 0 0 0 0 0 0 0 0 0 127 0"/><feOffset dy="8"/><feGaussianBlur stdDeviation="10"/><feColorMatrix values="0 0 0 0 0.0509804 0 0 0 0 0.0627451 0 0 0 0 0.121569 0 0 0 0.4 0"/><feBlend in2="BackgroundImageFix" result="effect1_dropShadow"/><feBlend in="SourceGraphic" in2="effect1_dropShadow" result="shape"/></filter><filter id="filter13_d" x="567.062" y="392.76" width="76.517" height="76.517" filterUnits="userSpaceOnUse" color-interpolation-filters="sRGB"><feFlood flood-opacity="0" result="BackgroundImageFix"/><feColorMatrix in="SourceAlpha" values="0 0 0 0 0 0 0 0 0 0 0 0 0 0 0 0 0 0 127 0"/><feOffset dy="8"/><feGaussianBlur stdDeviation="10"/><feColorMatrix values="0 0 0 0 0.0509804 0 0 0 0 0.0627451 0 0 0 0 0.121569 0 0 0 0.4 0"/><feBlend in2="BackgroundImageFix" result="effect1_dropShadow"/><feBlend in="SourceGraphic" in2="effect1_dropShadow" result="shape"/></filter><filter id="filter14_d" x="618.187" y="413.758" width="67.388" height="67.388" filterUnits="userSpaceOnUse" color-interpolation-filters="sRGB"><feFlood flood-opacity="0" result="BackgroundImageFix"/><feColorMatrix in="SourceAlpha" values="0 0 0 0 0 0 0 0 0 0 0 0 0 0 0 0 0 0 127 0"/><feOffset dy="8"/><feGaussianBlur stdDeviation="10"/><feColorMatrix values="0 0 0 0 0.0509804 0 0 0 0 0.0627451 0 0 0 0 0.121569 0 0 0 0.4 0"/><feBlend in2="BackgroundImageFix" result="effect1_dropShadow"/><feBlend in="SourceGraphic" in2="effect1_dropShadow" result="shape"/></filter><filter id="filter15_d" x="580.046" y="454.807" width="69.214" height="69.214" filterUnits="userSpaceOnUse" color-interpolation-filters="sRGB"><feFlood flood-opacity="0" result="BackgroundImageFix"/><feColorMatrix in="SourceAlpha" values="0 0 0 0 0 0 0 0 0 0 0 0 0 0 0 0 0 0 127 0"/><feOffset dy="8"/><feGaussianBlur stdDeviation="10"/><feColorMatrix values="0 0 0 0 0.0509804 0 0 0 0 0.0627451 0 0 0 0 0.121569 0 0 0 0.4 0"/><feBlend in2="BackgroundImageFix" result="effect1_dropShadow"/><feBlend in="SourceGraphic" in2="effect1_dropShadow" result="shape"/></filter><filter id="filter16_d" x="578.964" y="435.871" width="71.378" height="71.378" filterUnits="userSpaceOnUse" color-interpolation-filters="sRGB"><feFlood flood-opacity="0" result="BackgroundImageFix"/><feColorMatrix in="SourceAlpha" values="0 0 0 0 0 0 0 0 0 0 0 0 0 0 0 0 0 0 127 0"/><feOffset dy="8"/><feGaussianBlur stdDeviation="10"/><feColorMatrix values="0 0 0 0 0.0509804 0 0 0 0 0.0627451 0 0 0 0 0.121569 0 0 0 0.4 0"/><feBlend in2="BackgroundImageFix" result="effect1_dropShadow"/><feBlend in="SourceGraphic" in2="effect1_dropShadow" result="shape"/></filter><filter id="filter17_d" x="597.358" y="452.643" width="61.64" height="61.64" filterUnits="userSpaceOnUse" color-interpolation-filters="sRGB"><feFlood flood-opacity="0" result="BackgroundImageFix"/><feColorMatrix in="SourceAlpha" values="0 0 0 0 0 0 0 0 0 0 0 0 0 0 0 0 0 0 127 0"/><feOffset dy="8"/><feGaussianBlur stdDeviation="10"/><feColorMatrix values="0 0 0 0 0.0509804 0 0 0 0 0.0627451 0 0 0 0 0.121569 0 0 0 0.4 0"/><feBlend in2="BackgroundImageFix" result="effect1_dropShadow"/><feBlend in="SourceGraphic" in2="effect1_dropShadow" result="shape"/></filter><filter id="filter18_d" x="572.473" y="465.084" width="56.23" height="56.23" filterUnits="userSpaceOnUse" color-interpolation-filters="sRGB"><feFlood flood-opacity="0" result="BackgroundImageFix"/><feColorMatrix in="SourceAlpha" values="0 0 0 0 0 0 0 0 0 0 0 0 0 0 0 0 0 0 127 0"/><feOffset dy="8"/><feGaussianBlur stdDeviation="10"/><feColorMatrix values="0 0 0 0 0.0509804 0 0 0 0 0.0627451 0 0 0 0 0.121569 0 0 0 0.4 0"/><feBlend in2="BackgroundImageFix" result="effect1_dropShadow"/><feBlend in="SourceGraphic" in2="effect1_dropShadow" result="shape"/></filter><filter id="filter19_d" x="229.781" y="341.568" width="96.697" height="105.014" filterUnits="userSpaceOnUse" color-interpolation-filters="sRGB"><feFlood flood-opacity="0" result="BackgroundImageFix"/><feColorMatrix in="SourceAlpha" values="0 0 0 0 0 0 0 0 0 0 0 0 0 0 0 0 0 0 127 0"/><feOffset dy="8"/><feGaussianBlur stdDeviation="10"/><feColorMatrix values="0 0 0 0 0.0509804 0 0 0 0 0.0627451 0 0 0 0 0.121569 0 0 0 0.4 0"/><feBlend in2="BackgroundImageFix" result="effect1_dropShadow"/><feBlend in="SourceGraphic" in2="effect1_dropShadow" result="shape"/></filter><filter id="filter20_d" x="232.497" y="328.439" width="91.252" height="98.246" filterUnits="userSpaceOnUse" color-interpolation-filters="sRGB"><feFlood flood-opacity="0" result="BackgroundImageFix"/><feColorMatrix in="SourceAlpha" values="0 0 0 0 0 0 0 0 0 0 0 0 0 0 0 0 0 0 127 0"/><feOffset dy="8"/><feGaussianBlur stdDeviation="10"/><feColorMatrix values="0 0 0 0 0.0509804 0 0 0 0 0.0627451 0 0 0 0 0.121569 0 0 0 0.4 0"/><feBlend in2="BackgroundImageFix" result="effect1_dropShadow"/><feBlend in="SourceGraphic" in2="effect1_dropShadow" result="shape"/></filter><filter id="filter21_d" x="239.198" y="321.102" width="77.865" height="83.709" filterUnits="userSpaceOnUse" color-interpolation-filters="sRGB"><feFlood flood-opacity="0" result="BackgroundImageFix"/><feColorMatrix in="SourceAlpha" values="0 0 0 0 0 0 0 0 0 0 0 0 0 0 0 0 0 0 127 0"/><feOffset dy="8"/><feGaussianBlur stdDeviation="10"/><feColorMatrix values="0 0 0 0 0.0509804 0 0 0 0 0.0627451 0 0 0 0 0.121569 0 0 0 0.4 0"/><feBlend in2="BackgroundImageFix" result="effect1_dropShadow"/><feBlend in="SourceGraphic" in2="effect1_dropShadow" result="shape"/></filter><filter id="filter22_d" x="367.486" y="242.82" width="272.527" height="287.839" filterUnits="userSpaceOnUse" color-interpolation-filters="sRGB"><feFlood flood-opacity="0" result="BackgroundImageFix"/><feColorMatrix in="SourceAlpha" values="0 0 0 0 0 0 0 0 0 0 0 0 0 0 0 0 0 0 127 0"/><feOffset/><feGaussianBlur stdDeviation="40"/><feColorMatrix values="0 0 0 0 1 0 0 0 0 1 0 0 0 0 1 0 0 0 0.5 0"/><feBlend in2="BackgroundImageFix" result="effect1_dropShadow"/><feBlend in="SourceGraphic" in2="effect1_dropShadow" result="shape"/></filter><filter id="filter23_d" x="465.168" y="479.188" width="111.8" height="122.172" filterUnits="userSpaceOnUse" color-interpolation-filters="sRGB"><feFlood flood-opacity="0" result="BackgroundImageFix"/><feColorMatrix in="SourceAlpha" values="0 0 0 0 0 0 0 0 0 0 0 0 0 0 0 0 0 0 127 0"/><feOffset dy="8"/><feGaussianBlur stdDeviation="10"/><feColorMatrix values="0 0 0 0 0.0509804 0 0 0 0 0.0627451 0 0 0 0 0.121569 0 0 0 0.4 0"/><feBlend in2="BackgroundImageFix" result="effect1_dropShadow"/><feBlend in="SourceGraphic" in2="effect1_dropShadow" result="shape"/></filter><filter id="filter24_d" x="468.549" y="462.828" width="105.022" height="114.122" filterUnits="userSpaceOnUse" color-interpolation-filters="sRGB"><feFlood flood-opacity="0" result="BackgroundImageFix"/><feColorMatrix in="SourceAlpha" values="0 0 0 0 0 0 0 0 0 0 0 0 0 0 0 0 0 0 127 0"/><feOffset dy="8"/><feGaussianBlur stdDeviation="10"/><feColorMatrix values="0 0 0 0 0.0509804 0 0 0 0 0.0627451 0 0 0 0 0.121569 0 0 0 0.4 0"/><feBlend in2="BackgroundImageFix" result="effect1_dropShadow"/><feBlend in="SourceGraphic" in2="effect1_dropShadow" result="shape"/></filter><filter id="filter25_d" x="476.881" y="454.186" width="88.372" height="95.414" filterUnits="userSpaceOnUse" color-interpolation-filters="sRGB"><feFlood flood-opacity="0" result="BackgroundImageFix"/><feColorMatrix in="SourceAlpha" values="0 0 0 0 0 0 0 0 0 0 0 0 0 0 0 0 0 0 127 0"/><feOffset dy="8"/><feGaussianBlur stdDeviation="10"/><feColorMatrix values="0 0 0 0 0.0509804 0 0 0 0 0.0627451 0 0 0 0 0.121569 0 0 0 0.4 0"/><feBlend in2="BackgroundImageFix" result="effect1_dropShadow"/><feBlend in="SourceGraphic" in2="effect1_dropShadow" result="shape"/></filter><linearGradient id="paint0_linear" x1="284.001" y1="508.999" x2="681.001" y2="322.999" gradientUnits="userSpaceOnUse"><stop stop-color="#1C122D" stop-opacity="0"/><stop offset=".51" stop-color="#1C122D"/><stop offset="1" stop-color="#1C122D" stop-opacity="0"/></linearGradient><linearGradient id="paint1_linear" x1="132.424" y1="216.902" x2="146.747" y2="266.2" gradientUnits="userSpaceOnUse"><stop stop-color="#68688E"/><stop offset="1" stop-color="#31314A"/></linearGradient><linearGradient id="paint2_linear" x1="140.683" y1="226.031" x2="140.683" y2="301.804" gradientUnits="userSpaceOnUse"><stop stop-color="#3A3A63"/><stop offset="1" stop-color="#202037"/></linearGradient><linearGradient id="paint3_linear" x1="131.93" y1="184.949" x2="147.314" y2="237.899" gradientUnits="userSpaceOnUse"><stop stop-color="#8686AF"/><stop offset="1" stop-color="#424262"/></linearGradient><linearGradient id="paint4_linear" x1="111.328" y1="213.25" x2="121.937" y2="249.767" gradientUnits="userSpaceOnUse"><stop stop-color="#8686AF"/><stop offset="1" stop-color="#424262"/></linearGradient><linearGradient id="paint5_linear" x1="159.121" y1="234.248" x2="167.078" y2="261.636" gradientUnits="userSpaceOnUse"><stop stop-color="#8686AF"/><stop offset="1" stop-color="#424262"/></linearGradient><linearGradient id="paint6_linear" x1="621.482" y1="408.412" x2="635.805" y2="457.71" gradientUnits="userSpaceOnUse"><stop stop-color="#68688E"/><stop offset="1" stop-color="#31314A"/></linearGradient><linearGradient id="paint7_linear" x1="629.742" y1="417.541" x2="629.742" y2="493.314" gradientUnits="userSpaceOnUse"><stop stop-color="#3A3A63"/><stop offset="1" stop-color="#202037"/></linearGradient><linearGradient id="paint8_linear" x1="620.988" y1="376.459" x2="636.372" y2="429.409" gradientUnits="userSpaceOnUse"><stop stop-color="#8686AF"/><stop offset="1" stop-color="#424262"/></linearGradient><linearGradient id="paint9_linear" x1="600.386" y1="404.76" x2="610.996" y2="441.277" gradientUnits="userSpaceOnUse"><stop stop-color="#8686AF"/><stop offset="1" stop-color="#424262"/></linearGradient><linearGradient id="paint10_linear" x1="648.179" y1="425.758" x2="656.137" y2="453.146" gradientUnits="userSpaceOnUse"><stop stop-color="#8686AF"/><stop offset="1" stop-color="#424262"/></linearGradient><linearGradient id="paint11_linear" x1="10.659" y1="0" x2="19.147" y2="29.214" gradientUnits="userSpaceOnUse"><stop stop-color="#68688E"/><stop offset="1" stop-color="#31314A"/></linearGradient><linearGradient id="paint12_linear" x1="613.707" y1="472.215" x2="613.707" y2="517.117" gradientUnits="userSpaceOnUse"><stop stop-color="#3A3A63"/><stop offset="1" stop-color="#202037"/></linearGradient><linearGradient id="paint13_linear" x1="11.449" y1="0" x2="20.565" y2="31.378" gradientUnits="userSpaceOnUse"><stop stop-color="#8686AF"/><stop offset="1" stop-color="#424262"/></linearGradient><linearGradient id="paint14_linear" x1="7.896" y1="0" x2="14.183" y2="21.64" gradientUnits="userSpaceOnUse"><stop stop-color="#8686AF"/><stop offset="1" stop-color="#424262"/></linearGradient><linearGradient id="paint15_linear" x1="5.922" y1="0" x2="10.637" y2="16.23" gradientUnits="userSpaceOnUse"><stop stop-color="#8686AF"/><stop offset="1" stop-color="#424262"/></linearGradient></defs></svg>