<svg xmlns="http://www.w3.org/2000/svg" width="48" height="48"><path d="M24.5 40.5c-.7 0-1.5-.3-2.7-.8l-10.5-4c-1.8-.7-2.7-1-3.2-1.8-.6-.8-.6-1.8-.6-3.6v-12c0-1.9 0-2.9.8-3.5l.1-.1 5.7-2.7c.1-.1.1-.1.2-.1l8.6-4.1c.4-.2.6-.2 1-.2.5 0 .7.1 1.1.2l11.6 4.3c1.8.7 2.7 1 3.3 1.8.6.8.6 1.8.6 3.6v13.1c0 .8 0 1.2-.2 1.6-.2.4-.6.6-1.3 1.1l-13.8 7h-.1c-.2.2-.4.2-.6.2zm-15.3-25c-.1 0-.3 0-.4.1-.4.3-.4 1.1-.4 2.6v12c0 1.7 0 2.5.4 3.1.4.6 1.2.9 2.8 1.5l10.5 4c1.4.5 2.3.9 2.7.6.4-.3.4-1.1.4-2.6V31c0-7.9-.3-9.1-.4-9.3-.4-.5-1.2-.8-2.8-1.4l-10.5-4c-1.1-.5-1.8-.8-2.3-.8zm1.3-.7c.4.1.8.3 1.3.5l10.5 4c1.8.7 2.7 1 3.2 1.8.2.3.6.8.6 9.9v5.8c0 .8 0 1.5-.1 2l12.3-6.3c.6-.3.8-.5.9-.7.1-.2.1-.5.1-1.1V17.5c0-1.7 0-2.5-.4-3.1-.4-.6-1.2-.9-2.8-1.5L24.9 8.7c-.5-.2-.5-.2-.9-.2-.3 0-.3 0-.7.2l-.2.1-2.6 1.2 10.7 4c1.8.7 2.7 1 3.3 1.8.6.8.6 1.8.6 3.6v11.3c0 .3-.1.5-.4.6-.2.1-.5.1-.7-.1l-1.2-1-1.4 2.3c-.2.3-.4.4-.7.3-.3-.1-.5-.3-.5-.6v-10c0-1.7 0-2.5-.4-3.1-.4-.6-1.2-.9-2.8-1.5l-12.5-4.8-4 2zm5.2-2.5l11.6 4.5c1.8.7 2.7 1 3.2 1.8.6.8.6 1.8.6 3.6V31l1-1.6c.1-.2.3-.3.4-.3.2 0 .4 0 .5.1l.9.8V19.5c0-1.7 0-2.5-.4-3.1-.4-.6-1.2-.9-2.8-1.5l-11.5-4.3h-.1l-3.4 1.7zm18.9 18.2zm-2.1-.4zm.5-.1z"/></svg>