<svg width="110" height="150" fill="none" xmlns="http://www.w3.org/2000/svg"><g filter="url(#filter0_ddddd)"><path d="M32.182 59.978l2.26-.859c.904-.395 1.356-.592 1.835-.603.48-.01.94.166 1.86.52l20.578 7.92c3.041 1.171 4.562 1.756 5.423 3.016.862 1.26.862 2.897.862 6.173v9.956c0 1.332 0 1.998-.306 2.555-.307.556-.868.909-1.991 1.615l-1.269 1.064M31 65.681v7.98c0 3.27 0 4.905.859 6.163.86 1.258 2.376 1.845 5.41 3.02l18.868 7.3c3.016 1.167 4.523 1.75 5.584 1.017 1.06-.733 1.06-2.358 1.06-5.608V74.877c0-.574 0-2.21-.858-3.468-.86-1.258-2.376-1.845-5.41-3.019l-18.868-7.3c-3.016-1.167-4.524-1.75-5.584-1.018C31 60.805 31 62.43 31 65.681z" stroke="#F6F0FF" stroke-linecap="round" stroke-linejoin="round"/></g><path d="M31.012 67.779v-3.066L62.765 77.11v3.065L31.012 67.78z" fill="#F6F0FF" stroke="#F6F0FF"/><defs><filter id="filter0_ddddd" x="-13.5" y=".016" width="123" height="149.97" filterUnits="userSpaceOnUse" color-interpolation-filters="sRGB"><feFlood flood-opacity="0" result="BackgroundImageFix"/><feColorMatrix in="SourceAlpha" values="0 0 0 0 0 0 0 0 0 0 0 0 0 0 0 0 0 0 127 0"/><feOffset dx="6" dy="6"/><feGaussianBlur stdDeviation="15"/><feColorMatrix values="0 0 0 0 0 0 0 0 0 0.00784314 0 0 0 0 0.0470588 0 0 0 0.3 0"/><feBlend in2="BackgroundImageFix" result="effect1_dropShadow"/><feColorMatrix in="SourceAlpha" values="0 0 0 0 0 0 0 0 0 0 0 0 0 0 0 0 0 0 127 0"/><feOffset dx="-6" dy="-6"/><feGaussianBlur stdDeviation="15"/><feColorMatrix values="0 0 0 0 0.137255 0 0 0 0 0.129412 0 0 0 0 0.227451 0 0 0 0.15 0"/><feBlend in2="effect1_dropShadow" result="effect2_dropShadow"/><feColorMatrix in="SourceAlpha" values="0 0 0 0 0 0 0 0 0 0 0 0 0 0 0 0 0 0 127 0"/><feOffset dx="14" dy="28"/><feGaussianBlur stdDeviation="15"/><feColorMatrix values="0 0 0 0 0.0156863 0 0 0 0 0.0196078 0 0 0 0 0.054902 0 0 0 0.3 0"/><feBlend in2="effect2_dropShadow" result="effect3_dropShadow"/><feColorMatrix in="SourceAlpha" values="0 0 0 0 0 0 0 0 0 0 0 0 0 0 0 0 0 0 127 0"/><feOffset dx="-14" dy="-28"/><feGaussianBlur stdDeviation="15"/><feColorMatrix values="0 0 0 0 0.137255 0 0 0 0 0.129412 0 0 0 0 0.227451 0 0 0 0.15 0"/><feBlend in2="effect3_dropShadow" result="effect4_dropShadow"/><feColorMatrix in="SourceAlpha" values="0 0 0 0 0 0 0 0 0 0 0 0 0 0 0 0 0 0 127 0"/><feOffset/><feGaussianBlur stdDeviation="8"/><feColorMatrix values="0 0 0 0 1 0 0 0 0 1 0 0 0 0 1 0 0 0 0.48 0"/><feBlend in2="effect4_dropShadow" result="effect5_dropShadow"/><feBlend in="SourceGraphic" in2="effect5_dropShadow" result="shape"/></filter></defs></svg>