<svg width="48" height="48" fill="none" xmlns="http://www.w3.org/2000/svg"><path d="M15 30.146V6.802c0-2.626 0-3.94.863-4.536.863-.596 2.093-.131 4.552.798L31.83 7.378c2.501.945 3.752 1.417 4.46 2.443.71 1.025.71 2.361.71 5.033v23.343c0 2.627 0 3.941-.863 4.537-.863.596-2.093.131-4.552-.798L20.17 37.622c-2.501-.945-3.752-1.417-4.46-2.443-.71-1.025-.71-2.361-.71-5.033z" fill="#0B0D19"/><path d="M20.17 37.622l-.177.468.177-.468zm11.415 4.314l-.177.468.177-.468zm.245-34.558l-.177.467.177-.467zM20.415 3.064l.177-.468-.177.468zm15.876 6.757l-.411.284.41-.284zm-.154 32.913l.284.411-.284-.411zM14.5 6.802v23.344h1V6.802h-1zm5.493 31.288l11.415 4.313.354-.935-11.415-4.313-.354.935zm17.507.107V14.854h-1v23.343h1zM32.007 6.91L20.592 2.596l-.354.936 11.415 4.313.354-.935zm5.493 7.944c0-1.325 0-2.359-.092-3.19-.093-.842-.287-1.522-.706-2.127l-.822.568c.29.42.451.92.534 1.67.085.763.086 1.732.086 3.08h1zm-5.847-7.009c1.261.477 2.169.82 2.852 1.17.672.343 1.084.67 1.375 1.09l.822-.568c-.418-.606-.987-1.027-1.742-1.413-.745-.38-1.713-.745-2.953-1.214l-.354.935zm-.245 34.559c1.215.458 2.178.824 2.945.991.777.17 1.469.164 2.068-.25l-.568-.823c-.264.183-.62.242-1.287.096-.678-.148-1.56-.48-2.804-.95l-.354.935zm5.092-4.207c0 1.33-.001 2.271-.102 2.957-.1.676-.281.986-.545 1.168l.568.823c.6-.413.85-1.058.966-1.845.114-.776.113-1.805.113-3.102h-1zm-22-8.051c0 1.325 0 2.359.092 3.19.093.842.287 1.522.706 2.128l.822-.57c-.29-.42-.451-.92-.534-1.67-.085-.762-.086-1.731-.086-3.078h-1zm5.847 7.009c-1.261-.477-2.169-.82-2.852-1.17-.672-.343-1.084-.67-1.375-1.09l-.822.569c.418.605.987 1.026 1.742 1.412.745.38 1.713.745 2.953 1.214l.354-.935zM15.5 6.802c0-1.33.001-2.27.102-2.956.1-.676.281-.986.545-1.168l-.568-.823c-.6.413-.85 1.058-.966 1.845-.114.776-.113 1.805-.113 3.102h1zm5.092-4.205c-1.215-.46-2.178-.825-2.945-.992-.777-.17-1.469-.164-2.068.25l.568.823c.264-.183.62-.242 1.287-.096.678.148 1.56.48 2.804.95l.354-.936z" fill="#F6F0FF"/><path d="M11 32.146V8.802c0-2.626 0-3.94.863-4.536.863-.596 2.093-.131 4.552.798L27.83 9.378c2.501.945 3.752 1.418 4.46 2.443.71 1.025.71 2.361.71 5.033v23.343c0 2.627 0 3.941-.863 4.537-.863.596-2.093.131-4.552-.798L16.17 39.622c-2.501-.945-3.752-1.417-4.46-2.443-.71-1.025-.71-2.361-.71-5.033z" fill="#0B0D19"/><path d="M16.17 39.622l-.177.468.177-.468zm11.415 4.314l-.177.468.177-.468zm.245-34.558l-.177.467.177-.467zM16.415 5.064l.177-.468-.177.468zm15.876 6.757l-.411.284.41-.284zm-.154 32.913l.284.411-.284-.411zm-2.314-28.208a.5.5 0 10.354-.935l-.354.935zM14.177 9.544a.5.5 0 10-.354.936l.354-.936zm15.646 10.979a.5.5 0 10.354-.936l-.354.936zM14.177 13.54a.5.5 0 10-.354.935l.354-.935zm15.646 10.98a.5.5 0 10.354-.935l-.354.935zm-15.646-6.981a.5.5 0 10-.354.935l.354-.935zm9.646 8.71a.5.5 0 10.354-.935l-.354.936zm-9.646-4.714a.5.5 0 10-.354.936l.354-.936zM10.5 8.802v23.344h1V8.802h-1zm5.493 31.288l11.415 4.313.354-.935-11.415-4.313-.354.935zm17.507.107V16.854h-1v23.343h1zM28.007 8.91L16.592 4.596l-.354.936 11.415 4.313.354-.935zm5.493 7.944c0-1.325 0-2.359-.092-3.19-.093-.842-.287-1.522-.706-2.127l-.822.568c.29.42.451.92.534 1.67.085.763.086 1.732.086 3.08h1zm-5.847-7.009c1.261.477 2.169.82 2.852 1.17.672.343 1.084.67 1.375 1.09l.822-.569c-.418-.605-.987-1.026-1.742-1.412-.745-.38-1.713-.745-2.953-1.214l-.354.935zm-.245 34.559c1.215.458 2.178.824 2.945.991.777.17 1.469.164 2.068-.25l-.568-.823c-.264.183-.62.242-1.287.096-.678-.148-1.56-.48-2.804-.95l-.354.935zm5.092-4.207c0 1.33-.001 2.271-.102 2.957-.1.676-.281.986-.545 1.168l.568.823c.6-.413.85-1.058.966-1.845.114-.776.113-1.805.113-3.102h-1zm-22-8.051c0 1.325 0 2.359.092 3.19.093.842.287 1.522.706 2.128l.822-.57c-.29-.42-.451-.92-.534-1.67-.085-.762-.086-1.731-.086-3.078h-1zm5.847 7.009c-1.261-.477-2.169-.82-2.852-1.17-.672-.343-1.084-.67-1.375-1.09l-.822.569c.418.605.987 1.026 1.742 1.412.745.38 1.713.745 2.953 1.214l.354-.935zM11.5 8.802c0-1.33.001-2.27.102-2.956.1-.676.281-.986.545-1.168l-.568-.823c-.6.413-.85 1.058-.966 1.845-.114.776-.113 1.805-.113 3.102h1zm5.092-4.205c-1.215-.46-2.178-.825-2.945-.992-.777-.17-1.469-.164-2.068.25l.568.823c.264-.183.62-.242 1.287-.096.678.148 1.56.48 2.804.95l.354-.936zM30.177 15.59l-16-6.046-.354.936 16 6.046.354-.935zm0 3.997l-16-6.046-.354.935 16 6.047.354-.936zm0 3.997l-16-6.046-.354.935 16 6.046.354-.935zm-6 1.73l-10-3.78-.354.936 10 3.779.354-.936z" fill="#F6F0FF"/></svg>