<svg width="40" height="68" fill="none" xmlns="http://www.w3.org/2000/svg"><g filter="url(#filter0_ii)"><mask id="a" fill="#fff"><path d="M29.015 31.8c3.455 1.467 6.15 3.667 8.083 6.6C39.033 41.333 40 44.8 40 48.8c0 5.733-1.865 10.4-5.596 14-3.73 3.467-8.497 5.2-14.3 5.2-5.803 0-10.64-1.8-14.508-5.4C1.866 59 0 54.4 0 48.8c0-2.667.345-5.333 1.036-8 .691-2.667 2.211-6.667 4.56-12L17.616 0h20.519l-9.12 31.8z"/></mask><path d="M29.015 31.8l-46.14-13.232c-6.683 23.307 5.063 47.938 27.38 57.414L29.016 31.8zm5.39 31l32.674 35.162c.22-.205.44-.413.656-.622L34.405 62.8zm-28.81-.2l-33.33 34.54c.209.202.42.402.632.6L5.596 62.6zM1.037 40.8L-45.43 28.762 1.036 40.8zm4.56-12l43.928 19.347c.126-.285.248-.571.368-.858L5.596 28.8zM17.616 0v-48A48 48 0 00-26.68-18.489L17.617 0zm20.519 0l46.14 13.232A48 48 0 0038.135-48V0zm-27.88 75.982C5.636 74.02.654 70.324-2.972 64.825l80.143-52.85C69.675.61 59.305-7.487 47.775-12.382l-37.52 88.364zM-2.972 64.825C-6.902 58.868-8 52.855-8 48.8h96c0-12.055-3.033-25.001-10.83-36.825l-80.143 52.85zM-8 48.8c0-2.384.401-5.941 2.03-10.015 1.669-4.176 4.179-7.761 7.043-10.525l66.662 69.08C81.881 83.69 88 66.038 88 48.8H-8zm9.73-21.162a29.384 29.384 0 019.898-6.048C15.2 20.29 18.206 20 20.104 20v96c16.106 0 33.117-5.16 46.975-18.038L1.729 27.638zM20.103 20c2.108 0 5.2.338 8.764 1.665a28.524 28.524 0 019.427 5.795l-65.398 70.28C-13.448 110.446 3.461 116 20.104 116V20zm18.823 8.06c2.745 2.649 5.252 6.156 6.954 10.353C47.551 42.53 48 46.206 48 48.8h-96c0 17.467 6.357 34.92 20.265 48.34l66.662-69.08zM48 48.8c0 1.527-.204 2.903-.498 4.038L-45.43 28.762A79.784 79.784 0 00-48 48.8h96zm-.498 4.038c-.156.601-.258.9-.232.82.02-.06.108-.318.294-.809.383-1.007 1.01-2.543 1.96-4.702L-38.333 9.453c-2.507 5.693-5.376 12.665-7.097 19.31l92.932 24.075zm2.39-5.55l12.02-28.8-88.592-36.977-12.02 28.8L49.892 47.29zM17.617 48h20.518v-96H17.617v96zM-8.006-13.231l-9.119 31.8 92.28 26.463 9.12-31.8-92.28-26.463z" fill="#8356CC" mask="url(#a)"/></g><defs><filter id="filter0_ii" x="-2" y="-2" width="47" height="74" filterUnits="userSpaceOnUse" color-interpolation-filters="sRGB"><feFlood flood-opacity="0" result="BackgroundImageFix"/><feBlend in="SourceGraphic" in2="BackgroundImageFix" result="shape"/><feColorMatrix in="SourceAlpha" values="0 0 0 0 0 0 0 0 0 0 0 0 0 0 0 0 0 0 127 0" result="hardAlpha"/><feOffset dx="-2" dy="-2"/><feGaussianBlur stdDeviation="15"/><feComposite in2="hardAlpha" operator="arithmetic" k2="-1" k3="1"/><feColorMatrix values="0 0 0 0 1 0 0 0 0 1 0 0 0 0 1 0 0 0 0.2 0"/><feBlend in2="shape" result="effect1_innerShadow"/><feColorMatrix in="SourceAlpha" values="0 0 0 0 0 0 0 0 0 0 0 0 0 0 0 0 0 0 127 0" result="hardAlpha"/><feOffset dx="5" dy="4"/><feGaussianBlur stdDeviation="5"/><feComposite in2="hardAlpha" operator="arithmetic" k2="-1" k3="1"/><feColorMatrix values="0 0 0 0 0.191667 0 0 0 0 0.014375 0 0 0 0 0.149999 0 0 0 0.5 0"/><feBlend in2="effect1_innerShadow" result="effect2_innerShadow"/></filter></defs></svg>