<svg width="103" height="99" fill="none" xmlns="http://www.w3.org/2000/svg"><g filter="url(#filter0_dd)"><path d="M45.748 40.919a2 2 0 00-2.829 2.829l5.708 5.707-5.708 5.707a2 2 0 002.829 2.829l5.707-5.708 5.707 5.708a2 2 0 002.829-2.829l-5.708-5.707 5.708-5.707a2 2 0 00-2.829-2.829l-5.707 5.708-5.707-5.708z" fill="#0D101F"/></g><g filter="url(#filter1_d)"><path fill-rule="evenodd" clip-rule="evenodd" d="M45.394 41.273a1.5 1.5 0 10-2.121 2.12l6.06 6.062-6.06 6.06a1.5 1.5 0 102.121 2.122l6.061-6.06 6.061 6.06a1.5 1.5 0 102.121-2.121l-6.06-6.061 6.06-6.061a1.5 1.5 0 10-2.121-2.121l-6.061 6.06-6.061-6.06z" fill="url(#paint0_linear)"/></g><defs><filter id="filter0_dd" x=".333" y=".333" width="102.243" height="98.243" filterUnits="userSpaceOnUse" color-interpolation-filters="sRGB"><feFlood flood-opacity="0" result="BackgroundImageFix"/><feColorMatrix in="SourceAlpha" values="0 0 0 0 0 0 0 0 0 0 0 0 0 0 0 0 0 0 127 0"/><feOffset dx="12" dy="10"/><feGaussianBlur stdDeviation="15"/><feColorMatrix values="0 0 0 0 0 0 0 0 0 0.00654762 0 0 0 0 0.0458333 0 0 0 0.5 0"/><feBlend in2="BackgroundImageFix" result="effect1_dropShadow"/><feColorMatrix in="SourceAlpha" values="0 0 0 0 0 0 0 0 0 0 0 0 0 0 0 0 0 0 127 0"/><feOffset dx="-12" dy="-10"/><feGaussianBlur stdDeviation="15"/><feColorMatrix values="0 0 0 0 0.137255 0 0 0 0 0.129412 0 0 0 0 0.227451 0 0 0 1 0"/><feBlend in2="effect1_dropShadow" result="effect2_dropShadow"/><feBlend in="SourceGraphic" in2="effect2_dropShadow" result="shape"/></filter><filter id="filter1_d" x="36.833" y="34.833" width="29.243" height="29.243" filterUnits="userSpaceOnUse" color-interpolation-filters="sRGB"><feFlood flood-opacity="0" result="BackgroundImageFix"/><feColorMatrix in="SourceAlpha" values="0 0 0 0 0 0 0 0 0 0 0 0 0 0 0 0 0 0 127 0"/><feOffset/><feGaussianBlur stdDeviation="3"/><feColorMatrix values="0 0 0 0 1 0 0 0 0 0.470588 0 0 0 0 0.470588 0 0 0 0.5 0"/><feBlend in2="BackgroundImageFix" result="effect1_dropShadow"/><feBlend in="SourceGraphic" in2="effect1_dropShadow" result="shape"/></filter><linearGradient id="paint0_linear" x1="43.298" y1="41.823" x2="63.628" y2="41.524" gradientUnits="userSpaceOnUse"><stop stop-color="#FF78D1"/><stop offset="1" stop-color="#FF0101"/></linearGradient></defs></svg>