<svg width="16" height="16" fill="none" xmlns="http://www.w3.org/2000/svg"><path d="M5.5 2a.5.5 0 00-1 0h1zm-1 4a.5.5 0 001 0h-1zm7-4a.5.5 0 00-1 0h1zm-1 4a.5.5 0 001 0h-1zm-9 0v6h1V6h-1zM4 14.5h8v-1H4v1zM14.5 12V6h-1v6h1zM12 3.5H4v1h8v-1zM14.5 6A2.5 2.5 0 0012 3.5v1A1.5 1.5 0 0113.5 6h1zM12 14.5a2.5 2.5 0 002.5-2.5h-1a1.5 1.5 0 01-1.5 1.5v1zM1.5 12A2.5 2.5 0 004 14.5v-1A1.5 1.5 0 012.5 12h-1zm1-6A1.5 1.5 0 014 4.5v-1A2.5 2.5 0 001.5 6h1zm2-4v4h1V2h-1zm6 0v4h1V2h-1z" fill="#AB78FF"/><path d="M2.5 6A1.5 1.5 0 014 4.5h8A1.5 1.5 0 0113.5 6v1.5h-11V6z" fill="#AB78FF" stroke="#AB78FF"/></svg>