<svg width="52" height="52" fill="none" xmlns="http://www.w3.org/2000/svg"><g filter="url(#filter0_ddi)"><path d="M26 14c6.627 0 12 5.373 12 12s-5.373 12-12 12-12-5.373-12-12 5.373-12 12-12zm0 2.25c-5.385 0-9.75 4.365-9.75 9.75s4.365 9.75 9.75 9.75 9.75-4.365 9.75-9.75-4.365-9.75-9.75-9.75zm-3.938 5.629a1.687 1.687 0 110 3.375 1.687 1.687 0 010-3.375zm7.868 0a1.687 1.687 0 11-1.68 1.688 1.68 1.68 0 011.68-1.688z" fill="#AB78FF"/></g><g filter="url(#filter1_ddi)"><path d="M22.468 31.068a1.125 1.125 0 01-1.831-1.308 6.58 6.58 0 0110.715-.001 1.125 1.125 0 11-1.83 1.308 4.33 4.33 0 00-7.054 0z" fill="#AB78FF"/></g><defs><filter id="filter0_ddi" x="0" y="0" width="52" height="52" filterUnits="userSpaceOnUse" color-interpolation-filters="sRGB"><feFlood flood-opacity="0" result="BackgroundImageFix"/><feColorMatrix in="SourceAlpha" values="0 0 0 0 0 0 0 0 0 0 0 0 0 0 0 0 0 0 127 0"/><feOffset dx="4" dy="4"/><feGaussianBlur stdDeviation="5"/><feColorMatrix values="0 0 0 0 0.014375 0 0 0 0 0.0279514 0 0 0 0 0.0958333 0 0 0 0.8 0"/><feBlend in2="BackgroundImageFix" result="effect1_dropShadow"/><feColorMatrix in="SourceAlpha" values="0 0 0 0 0 0 0 0 0 0 0 0 0 0 0 0 0 0 127 0"/><feOffset dx="-4" dy="-4"/><feGaussianBlur stdDeviation="5"/><feColorMatrix values="0 0 0 0 0.0838542 0 0 0 0 0.093151 0 0 0 0 0.145833 0 0 0 0.6 0"/><feBlend in2="effect1_dropShadow" result="effect2_dropShadow"/><feBlend in="SourceGraphic" in2="effect2_dropShadow" result="shape"/><feColorMatrix in="SourceAlpha" values="0 0 0 0 0 0 0 0 0 0 0 0 0 0 0 0 0 0 127 0" result="hardAlpha"/><feOffset dx="-1" dy="-1"/><feGaussianBlur stdDeviation="1"/><feComposite in2="hardAlpha" operator="arithmetic" k2="-1" k3="1"/><feColorMatrix values="0 0 0 0 0.0509804 0 0 0 0 0.0627451 0 0 0 0 0.121569 0 0 0 0.2 0"/><feBlend in2="shape" result="effect3_innerShadow"/></filter><filter id="filter1_ddi" x="6.427" y="13" width="39.135" height="32.539" filterUnits="userSpaceOnUse" color-interpolation-filters="sRGB"><feFlood flood-opacity="0" result="BackgroundImageFix"/><feColorMatrix in="SourceAlpha" values="0 0 0 0 0 0 0 0 0 0 0 0 0 0 0 0 0 0 127 0"/><feOffset dx="4" dy="4"/><feGaussianBlur stdDeviation="5"/><feColorMatrix values="0 0 0 0 0.014375 0 0 0 0 0.0279514 0 0 0 0 0.0958333 0 0 0 0.8 0"/><feBlend in2="BackgroundImageFix" result="effect1_dropShadow"/><feColorMatrix in="SourceAlpha" values="0 0 0 0 0 0 0 0 0 0 0 0 0 0 0 0 0 0 127 0"/><feOffset dx="-4" dy="-4"/><feGaussianBlur stdDeviation="5"/><feColorMatrix values="0 0 0 0 0.0838542 0 0 0 0 0.093151 0 0 0 0 0.145833 0 0 0 0.6 0"/><feBlend in2="effect1_dropShadow" result="effect2_dropShadow"/><feBlend in="SourceGraphic" in2="effect2_dropShadow" result="shape"/><feColorMatrix in="SourceAlpha" values="0 0 0 0 0 0 0 0 0 0 0 0 0 0 0 0 0 0 127 0" result="hardAlpha"/><feOffset dx="-1" dy="-1"/><feGaussianBlur stdDeviation="1"/><feComposite in2="hardAlpha" operator="arithmetic" k2="-1" k3="1"/><feColorMatrix values="0 0 0 0 0.0509804 0 0 0 0 0.0627451 0 0 0 0 0.121569 0 0 0 0.2 0"/><feBlend in2="shape" result="effect3_innerShadow"/></filter></defs></svg>