<svg width="136" height="157" fill="none" xmlns="http://www.w3.org/2000/svg"><g filter="url(#filter0_ddddd)"><path d="M58.833 74.8c0 1.022.821 1.85 1.834 1.85A1.842 1.842 0 0062.5 74.8m-3.667 0c0-1.022.821-1.85 1.834-1.85 1.012 0 1.833.828 1.833 1.85m-3.667 0H62.5m11 0c0 1.022.82 1.85 1.833 1.85a1.842 1.842 0 001.834-1.85m-3.667 0c0-1.022.82-1.85 1.833-1.85s1.834.828 1.834 1.85m-3.667 0h3.667M65.25 89.656h10.083c6.914 0 10.371 0 12.52-2.171C90 85.315 90 81.82 90 74.833v-.01c0-6.988 0-10.482-2.148-12.652C85.704 60 82.247 60 75.333 60H60.667c-6.914 0-10.371 0-12.52 2.17C46 64.342 46 67.836 46 74.823v12.054c0 5.623 0 8.435 1.59 9.54.28.193.584.347.905.456 1.828.624 4.054-1.064 8.505-4.437 1.695-1.285 2.542-1.927 3.514-2.3.184-.07.37-.133.56-.188.998-.291 2.057-.291 4.176-.291z" stroke="#F6F0FF" stroke-width="3" stroke-linecap="round" stroke-linejoin="round"/></g><defs><filter id="filter0_ddddd" x=".5" y=".5" width="135" height="156.001" filterUnits="userSpaceOnUse" color-interpolation-filters="sRGB"><feFlood flood-opacity="0" result="BackgroundImageFix"/><feColorMatrix in="SourceAlpha" values="0 0 0 0 0 0 0 0 0 0 0 0 0 0 0 0 0 0 127 0"/><feOffset dx="6" dy="6"/><feGaussianBlur stdDeviation="15"/><feColorMatrix values="0 0 0 0 0 0 0 0 0 0.00784314 0 0 0 0 0.0470588 0 0 0 0.3 0"/><feBlend in2="BackgroundImageFix" result="effect1_dropShadow"/><feColorMatrix in="SourceAlpha" values="0 0 0 0 0 0 0 0 0 0 0 0 0 0 0 0 0 0 127 0"/><feOffset dx="-6" dy="-6"/><feGaussianBlur stdDeviation="15"/><feColorMatrix values="0 0 0 0 0.137255 0 0 0 0 0.129412 0 0 0 0 0.227451 0 0 0 0.15 0"/><feBlend in2="effect1_dropShadow" result="effect2_dropShadow"/><feColorMatrix in="SourceAlpha" values="0 0 0 0 0 0 0 0 0 0 0 0 0 0 0 0 0 0 127 0"/><feOffset dx="14" dy="28"/><feGaussianBlur stdDeviation="15"/><feColorMatrix values="0 0 0 0 0.0156863 0 0 0 0 0.0196078 0 0 0 0 0.054902 0 0 0 0.3 0"/><feBlend in2="effect2_dropShadow" result="effect3_dropShadow"/><feColorMatrix in="SourceAlpha" values="0 0 0 0 0 0 0 0 0 0 0 0 0 0 0 0 0 0 127 0"/><feOffset dx="-14" dy="-28"/><feGaussianBlur stdDeviation="15"/><feColorMatrix values="0 0 0 0 0.137255 0 0 0 0 0.129412 0 0 0 0 0.227451 0 0 0 0.15 0"/><feBlend in2="effect3_dropShadow" result="effect4_dropShadow"/><feColorMatrix in="SourceAlpha" values="0 0 0 0 0 0 0 0 0 0 0 0 0 0 0 0 0 0 127 0"/><feOffset/><feGaussianBlur stdDeviation="8"/><feColorMatrix values="0 0 0 0 1 0 0 0 0 1 0 0 0 0 1 0 0 0 0.48 0"/><feBlend in2="effect4_dropShadow" result="effect5_dropShadow"/><feBlend in="SourceGraphic" in2="effect5_dropShadow" result="shape"/></filter></defs></svg>