<svg width="24" height="25" fill="none" xmlns="http://www.w3.org/2000/svg"><path d="M16 4.5c1.886 0 2.828 0 3.414.586C20 5.672 20 6.614 20 8.5v10c0 1.886 0 2.828-.586 3.414-.586.586-1.528.586-3.414.586H8c-1.886 0-2.828 0-3.414-.586C4 21.328 4 20.386 4 18.5v-10c0-1.886 0-2.828.586-3.414C5.172 4.5 6.114 4.5 8 4.5m8 0c0 .943 0 1.414-.293 1.707-.293.293-.764.293-1.707.293h-4c-.943 0-1.414 0-1.707-.293C8 5.914 8 5.443 8 4.5m8 0c0-.943 0-1.414-.293-1.707C15.414 2.5 14.943 2.5 14 2.5h-4c-.943 0-1.414 0-1.707.293C8 3.086 8 3.557 8 4.5m8 6H8m8 4H8" stroke="#AB78FF" stroke-linecap="round" stroke-linejoin="round"/></svg>