<svg xmlns="http://www.w3.org/2000/svg" viewBox="0 0 24 24"><path class="st0" d="M15.3 20.5H8.7c-3.3 0-4.9 0-6-1.1-1.1-1.1-1.1-2.7-1.1-5.8v-3.2c0-3.2 0-4.7 1.1-5.8 1.1-1.1 2.8-1.1 6-1.1h6.7c3.3 0 4.9 0 6 1.1 1.1 1.1 1.1 2.7 1.1 5.8v3.2c0 3.2 0 4.7-1.1 5.8-1.2 1.1-2.8 1.1-6.1 1.1zm-6.6-16c-3 0-4.5 0-5.3.8-.8.8-.8 2.2-.8 5.1v3.2c0 2.9 0 4.3.8 5.1.8.8 2.3.8 5.3.8h6.7c3 0 4.5 0 5.3-.8.8-.8.8-2.2.8-5.1v-3.2c0-2.9 0-4.3-.8-5.1-.8-.8-2.3-.8-5.3-.8H8.7zm3.3 8.8c-1.3 0-2.3-.7-4.3-2.2L5 9.2c-.2-.2-.2-.5-.1-.7.2-.2.5-.3.7-.1l2.7 1.9c3.7 2.6 3.7 2.6 7.4 0l2.7-1.9c.2-.2.5-.1.7.1.1.2.1.5-.1.7l-2.7 1.9c-2 1.5-3 2.2-4.3 2.2z"/></svg>