<svg width="48" height="48" fill="none" xmlns="http://www.w3.org/2000/svg"><path d="M7 19.98v-9.17c0-2.638 0-3.957.866-4.553.866-.596 2.097-.125 4.561.816l27.427 10.474c2.49.95 3.735 1.426 4.44 2.45C45 21.023 45 22.356 45 25.02v9.17c0 2.638 0 3.957-.866 4.553-.865.596-2.097.125-4.56-.816h-.001L12.146 27.453c-2.49-.951-3.735-1.426-4.44-2.451C7 23.978 7 22.645 7 19.979z" fill="#0B0D19" stroke="#F6F0FF"/><path d="M3 21.98v-9.17c0-2.638 0-3.957.866-4.553.866-.596 2.097-.125 4.561.815l27.427 10.475c2.49.95 3.735 1.426 4.44 2.45C41 23.023 41 24.356 41 27.02v9.17c0 2.638 0 3.956-.866 4.553-.865.596-2.097.125-4.56-.816h-.001L8.146 29.453c-2.49-.951-3.735-1.427-4.44-2.451C3 25.978 3 24.645 3 21.979z" fill="#0B0D19" stroke="#F6F0FF"/><path d="M22.155 28.948c.357.166.708.27 1.03.305.324.036.613.002.852-.099.24-.101.424-.267.543-.489.12-.222.174-.446.152-.804-.198-3.194-5.539-4.046-5.736-7.24-.02-.308.032-.582.151-.803.12-.222.304-.389.543-.49.24-.1.529-.134.852-.099.323.036.673.14 1.03.306m.583 9.413a5.182 5.182 0 01-1.053-.664 5.883 5.883 0 01-.915-.92 4.863 4.863 0 01-.637-1.039 2.953 2.953 0 01-.263-.997m2.868 3.62l.073 1.177m2.213-6.97s-.109-.649-.263-.998a4.853 4.853 0 00-.638-1.038 5.883 5.883 0 00-.915-.92 5.182 5.182 0 00-1.052-.664m0 0l-.073-1.177" stroke="#F6F0FF" stroke-linecap="round" stroke-linejoin="round"/></svg>