<svg xmlns="http://www.w3.org/2000/svg" viewBox="0 0 24 24"><path d="M16.1 21.5h-.5c-3-.5-6.1-2.1-8.5-4.5-2.4-2.4-4-5.4-4.5-8.5-.2-1.1.1-2.2.9-3l2.3-2.3c.2-.2.5-.4.7-.5.9-.4 1.9-.2 2.5.5l2.5 2.5c.2.2.4.5.5.7.1.3.2.6.2.9 0 .6-.2 1.2-.7 1.6l-1.6 1.6c.4.8.9 1.5 1.5 2.1.6.6 1.3 1.1 2.1 1.5l1.6-1.6c.2-.2.5-.4.7-.5.8-.3 1.8-.1 2.5.5l2.5 2.5c.2.2.4.5.5.7.1.3.2.6.2.9 0 .6-.2 1.2-.7 1.6l-2.3 2.3c-.6.6-1.5 1-2.4 1zM4.2 6.2c-.5.5-.8 1.3-.7 2 .5 2.9 2 5.7 4.3 8s5.1 3.8 7.9 4.3c.7.1 1.5-.1 2.1-.7l2.3-2.3c.2-.2.4-.6.4-.9 0-.2 0-.3-.1-.5s-.2-.3-.3-.4l-2.5-2.5c-.4-.4-.9-.5-1.4-.3-.2.1-.3.2-.4.3L14 15c-.1.1-.4.2-.6.1-1-.5-1.9-1.1-2.7-1.9-.8-.8-1.4-1.7-1.9-2.7-.1-.2 0-.4.1-.6l1.8-1.8c.2-.2.4-.6.4-.9 0-.2 0-.3-.1-.5s-.2-.3-.3-.4L8.3 3.9c-.3-.4-.9-.5-1.4-.3-.1.1-.3.2-.4.3L4.2 6.2z"/></svg>