<svg width="16" height="16" fill="none" xmlns="http://www.w3.org/2000/svg"><path d="M3.266 13.58l.422-.268-.422.268zm9.468 0l-.422-.268.422.268zM5.857 4.167a.5.5 0 100 1v-1zm4.286 1a.5.5 0 000-1v1zM4.818 2.5h6.364v-1H4.818v1zm6.364 0c.45 0 .71.003.894.042.139.03.186.068.236.146l.844-.536c-.217-.342-.517-.513-.873-.589-.31-.066-.694-.063-1.101-.063v1zM13.5 4.866c0-.666 0-1.198-.035-1.615-.036-.416-.11-.787-.309-1.099l-.845.536c.069.107.126.284.158.648.03.364.031.846.031 1.53h1zM4.818 1.5c-.407 0-.79-.003-1.101.063-.356.076-.656.247-.873.589l.844.536c.05-.078.097-.117.236-.146.185-.04.444-.042.894-.042v-1zM3.5 4.866c0-.684 0-1.166.031-1.53.032-.364.09-.541.157-.648l-.844-.536c-.198.312-.273.683-.309 1.1C2.5 3.667 2.5 4.2 2.5 4.865h1zm7.682 8.634H4.818v1h6.364v-1zm-6.364 0c-.45 0-.71-.003-.894-.042-.139-.03-.186-.068-.236-.146l-.844.536c.217.342.517.513.873.589.31.066.694.063 1.101.063v-1zM2.5 11.134c0 .666 0 1.198.035 1.615.036.415.11.787.309 1.099l.844-.536c-.068-.107-.125-.284-.157-.648-.03-.364-.031-.846-.031-1.53h-1zm8.682 3.366c.406 0 .79.003 1.101-.063.356-.076.656-.247.873-.589l-.845-.536c-.049.078-.096.117-.235.146-.184.04-.444.042-.894.042v1zm1.318-3.366c0 .684 0 1.166-.031 1.53-.032.364-.09.541-.157.648l.844.536c.198-.313.273-.684.309-1.1.035-.416.035-.948.035-1.614h-1zm-10-6.268v6.268h1V4.866h-1zm10 0v6.268h1V4.866h-1zm-6.643.3h4.286v-1H5.857v1zM9.786 12.5c.44 0 .857-.341.857-.833h-1c0-.058.026-.104.054-.13a.131.131 0 01.089-.037v1zm-.857-.833c0 .492.416.833.857.833v-1a.13.13 0 01.088.037.179.179 0 01.055.13h-1zm.857.166a.131.131 0 01-.089-.037.179.179 0 01-.054-.13h1c0-.492-.417-.833-.857-.833v1zm0-1c-.44 0-.857.341-.857.834h1a.179.179 0 01-.055.13.131.131 0 01-.088.036v-1zm0-1.666c.44 0 .857-.341.857-.834h-1c0-.057.026-.103.054-.13a.131.131 0 01.089-.036v1zm-.857-.834c0 .492.416.834.857.834v-1c.028 0 .06.01.088.037a.179.179 0 01.055.13h-1zm.857.167a.131.131 0 01-.089-.037.179.179 0 01-.054-.13h1c0-.492-.417-.833-.857-.833v1zm0-1c-.44 0-.857.341-.857.833h1a.179.179 0 01-.055.13.131.131 0 01-.088.037v-1zm-3.572 5c.44 0 .857-.341.857-.833h-1c0-.058.026-.104.055-.13a.131.131 0 01.088-.037v1zm-.857-.833c0 .492.417.833.857.833v-1a.13.13 0 01.089.037.179.179 0 01.054.13h-1zm.857.166a.131.131 0 01-.088-.037.179.179 0 01-.055-.13h1c0-.492-.416-.833-.857-.833v1zm0-1c-.44 0-.857.341-.857.834h1a.179.179 0 01-.054.13.131.131 0 01-.089.036v-1zm0-1.666c.44 0 .857-.341.857-.834h-1c0-.057.026-.103.055-.13a.131.131 0 01.088-.036v1zm-.857-.834c0 .492.417.834.857.834v-1c.029 0 .061.01.089.037a.179.179 0 01.054.13h-1zm.857.167a.131.131 0 01-.088-.037.179.179 0 01-.055-.13h1c0-.492-.416-.833-.857-.833v1zm0-1c-.44 0-.857.341-.857.833h1a.179.179 0 01-.054.13.131.131 0 01-.089.037v-1z" fill="#AB78FF"/></svg>