<svg xmlns="http://www.w3.org/2000/svg" viewBox="0 0 20 20"><path fill="#AB78FF" d="M7.2 18.5c-1.5 0-3-.6-4-1.7-1.1-1.1-1.7-2.5-1.7-4s.6-3 1.7-4.1l.9-.9c.2-.2.5-.2.7 0s.2.5 0 .7l-.9.9c-.9.9-1.4 2.1-1.4 3.3S3 15.2 3.9 16c.9 1 2.1 1.5 3.3 1.5 1.3 0 2.5-.5 3.3-1.4l.9-.9c.2-.2.5-.2.7 0s.2.5 0 .7l-.9.9c-1 1.1-2.4 1.7-4 1.7zm1-6.2c-.1 0-.3 0-.4-.1-.2-.2-.2-.5 0-.7l3.7-3.7c.2-.2.5-.2.7 0s.2.5 0 .7l-3.7 3.7c-.1.1-.2.1-.3.1zm7.3 0c-.1 0-.3 0-.4-.1-.2-.2-.2-.5 0-.7l.9-.9c.9-.9 1.4-2.1 1.4-3.3 0-1.3-.5-2.4-1.4-3.3-.8-1-2-1.5-3.2-1.5s-2.5.5-3.4 1.4l-.9.9c-.2.2-.5.2-.7 0s-.2-.5 0-.7l.9-.9c1.1-1.1 2.5-1.7 4.1-1.7s3 .6 4 1.7c1.1 1.1 1.7 2.5 1.7 4s-.6 3-1.7 4.1l-.9.9c-.1.1-.2.1-.4.1z"/></svg>