<svg width="106" height="133" fill="none" xmlns="http://www.w3.org/2000/svg"><g filter="url(#filter0_ddddd)"><path d="M50.333 66.328l2.657 2.839m0 0l2.677-2.818m-2.677 2.818V58.5M57 63.833c1.242 0 1.864 0 2.354.203a2.67 2.67 0 011.443 1.444c.203.49.203 1.11.203 2.353v1.334c0 2.514 0 3.77-.781 4.552-.781.781-2.038.781-4.552.781h-5.334c-2.514 0-3.77 0-4.552-.781C45 72.938 45 71.681 45 69.167v-1.334c0-1.242 0-1.863.203-2.353.27-.654.79-1.173 1.443-1.444.49-.203 1.111-.203 2.354-.203" stroke="#F6F0FF" stroke-linecap="round" stroke-linejoin="round"/></g><defs><filter id="filter0_ddddd" x=".5" y="0" width="105" height="133" filterUnits="userSpaceOnUse" color-interpolation-filters="sRGB"><feFlood flood-opacity="0" result="BackgroundImageFix"/><feColorMatrix in="SourceAlpha" values="0 0 0 0 0 0 0 0 0 0 0 0 0 0 0 0 0 0 127 0"/><feOffset dx="6" dy="6"/><feGaussianBlur stdDeviation="15"/><feColorMatrix values="0 0 0 0 0 0 0 0 0 0.00784314 0 0 0 0 0.0470588 0 0 0 0.3 0"/><feBlend in2="BackgroundImageFix" result="effect1_dropShadow"/><feColorMatrix in="SourceAlpha" values="0 0 0 0 0 0 0 0 0 0 0 0 0 0 0 0 0 0 127 0"/><feOffset dx="-6" dy="-6"/><feGaussianBlur stdDeviation="15"/><feColorMatrix values="0 0 0 0 0.137255 0 0 0 0 0.129412 0 0 0 0 0.227451 0 0 0 0.15 0"/><feBlend in2="effect1_dropShadow" result="effect2_dropShadow"/><feColorMatrix in="SourceAlpha" values="0 0 0 0 0 0 0 0 0 0 0 0 0 0 0 0 0 0 127 0"/><feOffset dx="14" dy="28"/><feGaussianBlur stdDeviation="15"/><feColorMatrix values="0 0 0 0 0.0156863 0 0 0 0 0.0196078 0 0 0 0 0.054902 0 0 0 0.3 0"/><feBlend in2="effect2_dropShadow" result="effect3_dropShadow"/><feColorMatrix in="SourceAlpha" values="0 0 0 0 0 0 0 0 0 0 0 0 0 0 0 0 0 0 127 0"/><feOffset dx="-14" dy="-28"/><feGaussianBlur stdDeviation="15"/><feColorMatrix values="0 0 0 0 0.137255 0 0 0 0 0.129412 0 0 0 0 0.227451 0 0 0 0.15 0"/><feBlend in2="effect3_dropShadow" result="effect4_dropShadow"/><feColorMatrix in="SourceAlpha" values="0 0 0 0 0 0 0 0 0 0 0 0 0 0 0 0 0 0 127 0"/><feOffset/><feGaussianBlur stdDeviation="8"/><feColorMatrix values="0 0 0 0 1 0 0 0 0 1 0 0 0 0 1 0 0 0 0.48 0"/><feBlend in2="effect4_dropShadow" result="effect5_dropShadow"/><feBlend in="SourceGraphic" in2="effect5_dropShadow" result="shape"/></filter></defs></svg>