<svg width="106" height="131" fill="none" xmlns="http://www.w3.org/2000/svg"><g filter="url(#filter0_ddddd)"><path d="M57 69c0 .387.298.7.667.7.368 0 .666-.313.666-.7M57 69c0-.387.298-.7.667-.7.368 0 .666.313.666.7M57 69h1.333m-10.666 0c0 .387.298.7.666.7.369 0 .667-.313.667-.7m-1.333 0c0-.387.298-.7.666-.7.369 0 .667.313.667.7m-1.333 0H49m1.333 3.5h5.334c2.514 0 3.77 0 4.552-.82.781-.82.781-2.14.781-4.78v-2.8c0-2.64 0-3.96-.781-4.78-.781-.82-2.038-.82-4.552-.82h-5.334c-2.514 0-3.77 0-4.552.82C45 60.14 45 61.46 45 64.1v2.8c0 2.64 0 3.96.781 4.78.781.82 2.038.82 4.552.82zm-3.11-7h11.555c.83 0 1.246 0 1.555-.188.203-.122.371-.3.488-.512.179-.325.179-.761.179-1.633 0-1.745 0-2.617-.357-3.267a2.737 2.737 0 00-.976-1.025c-.62-.375-1.45-.375-3.111-.375h-7.112c-1.661 0-2.492 0-3.11.375-.406.246-.743.6-.977 1.025C45 60.55 45 61.422 45 63.167c0 .872 0 1.308.179 1.633.117.213.285.39.488.512.31.188.724.188 1.555.188z" stroke="#F6F0FF" stroke-linecap="round" stroke-linejoin="round"/></g><defs><filter id="filter0_ddddd" x=".5" y="0" width="105" height="131" filterUnits="userSpaceOnUse" color-interpolation-filters="sRGB"><feFlood flood-opacity="0" result="BackgroundImageFix"/><feColorMatrix in="SourceAlpha" values="0 0 0 0 0 0 0 0 0 0 0 0 0 0 0 0 0 0 127 0"/><feOffset dx="6" dy="6"/><feGaussianBlur stdDeviation="15"/><feColorMatrix values="0 0 0 0 0 0 0 0 0 0.00784314 0 0 0 0 0.0470588 0 0 0 0.3 0"/><feBlend in2="BackgroundImageFix" result="effect1_dropShadow"/><feColorMatrix in="SourceAlpha" values="0 0 0 0 0 0 0 0 0 0 0 0 0 0 0 0 0 0 127 0"/><feOffset dx="-6" dy="-6"/><feGaussianBlur stdDeviation="15"/><feColorMatrix values="0 0 0 0 0.137255 0 0 0 0 0.129412 0 0 0 0 0.227451 0 0 0 0.15 0"/><feBlend in2="effect1_dropShadow" result="effect2_dropShadow"/><feColorMatrix in="SourceAlpha" values="0 0 0 0 0 0 0 0 0 0 0 0 0 0 0 0 0 0 127 0"/><feOffset dx="14" dy="28"/><feGaussianBlur stdDeviation="15"/><feColorMatrix values="0 0 0 0 0.0156863 0 0 0 0 0.0196078 0 0 0 0 0.054902 0 0 0 0.3 0"/><feBlend in2="effect2_dropShadow" result="effect3_dropShadow"/><feColorMatrix in="SourceAlpha" values="0 0 0 0 0 0 0 0 0 0 0 0 0 0 0 0 0 0 127 0"/><feOffset dx="-14" dy="-28"/><feGaussianBlur stdDeviation="15"/><feColorMatrix values="0 0 0 0 0.137255 0 0 0 0 0.129412 0 0 0 0 0.227451 0 0 0 0.15 0"/><feBlend in2="effect3_dropShadow" result="effect4_dropShadow"/><feColorMatrix in="SourceAlpha" values="0 0 0 0 0 0 0 0 0 0 0 0 0 0 0 0 0 0 127 0"/><feOffset/><feGaussianBlur stdDeviation="8"/><feColorMatrix values="0 0 0 0 1 0 0 0 0 1 0 0 0 0 1 0 0 0 0.48 0"/><feBlend in2="effect4_dropShadow" result="effect5_dropShadow"/><feBlend in="SourceGraphic" in2="effect5_dropShadow" result="shape"/></filter></defs></svg>