<svg width="24" height="24" fill="none" xmlns="http://www.w3.org/2000/svg"><path d="M16.504 2.25H7.5A5.25 5.25 0 002.25 7.5v9.004a5.246 5.246 0 005.246 5.246h9.008a5.246 5.246 0 005.246-5.245V7.496a5.246 5.246 0 00-5.246-5.246z" stroke="#AB78FF" stroke-width="1.5" stroke-linecap="round" stroke-linejoin="round"/><path d="M10.684 9.645H11.9v6.075h-.002c-1.25 0-2.626-.76-3.6-2.16-1.465-2.052-1.865-3.602-1.865-3.914m10.225 6.074s-.442-.933-1.34-1.958c-.597-.7-1.44-1.08-2.205-1.08.766 0 1.608-.38 2.206-1.08.897-1.026 1.339-1.957 1.339-1.957m-3.545 3.039h-1.216" stroke="#AB78FF" stroke-width="1.5" stroke-linecap="round" stroke-linejoin="round"/></svg>