<svg xmlns="http://www.w3.org/2000/svg" width="48" height="48"><path d="M28.8 38.5c-.2 0-.4 0-.6-.1L24.6 37c-.2-.1-.3-.2-.3-.4s.1-.4.3-.5l17.1-8.5c.1 0 .2-.1.2-.1h.2l4.1 1.5c.2.1.3.2.3.4s-.1.4-.3.5l-16.6 8.3c-.2.2-.5.3-.8.3zm-2.8-2l2.6 1c.2.1.4.1.6 0l15.6-7.8-2.9-1.1-.7.4.6.2c.3.1.4.4.3.6s-.4.4-.6.3l-1-.4c-.1 0-.2-.1-.3-.3L38 30.5l.5.2c.3.1.4.4.3.6-.1.3-.4.4-.6.3l-1-.4c-.1 0-.2-.1-.3-.2l-2.1 1 .5.2c.3.1.4.4.3.6-.1.3-.4.4-.6.3l-1-.4c-.1 0-.2-.1-.2-.2l-2.1 1 .4.1c.3.1.4.4.3.6s-.4.4-.6.3l-1-.4c-.1 0-.1-.1-.2-.1l-2 1 .3.1c.3.1.4.4.3.6-.1.3-.4.4-.6.3l-1-.4s-.1 0-.1-.1l-1.5 1zm-4.3-2.4c-.8 0-1.7-.4-3.2-.9L6 28.5c-2.1-.8-3.2-1.2-3.8-2.1l-.1-.1c-.6-.8-.6-.9-.6-2.9v-1.2c0-2.2 0-3.4.9-4l.1-.1 17.3-8.2c.5-.2.6-.3 1.2-.3s.8.1 1.3.3L36.1 15c2.1.8 3.2 1.2 3.8 2.1.7.9.7 2 .7 4.2v1.3c0 .9 0 1.4-.3 1.9s-.7.7-1.5 1.2L22.5 34h-.1c-.2.1-.4.1-.7.1zM3.5 18.8c-.2 0-.4 0-.5.1-.5.3-.5 1.2-.5 3.2v1.2c0 1.8 0 1.8.4 2.4l.1.1c.5.7 1.4 1 3.4 1.8L19 32.3c1.8.7 2.8 1 3.3.7.5-.3.5-1.2.5-3.1 0-1.9 0-3.1-.5-3.8-.5-.7-1.5-1-3.4-1.8L6.3 19.7c-1.4-.5-2.3-.9-2.8-.9zM23.7 30c0 .9 0 1.7-.1 2.3l14.9-7.5c.7-.4 1-.6 1.1-.8.1-.2.1-.6.1-1.4v-1.3c0-1.7 0-2.6-.3-3.3l-16.1 8c.4.9.4 2 .4 3.8v.2zM4.8 18.1c.5.2 1.1.4 1.8.6l12.6 4.7c1.8.7 2.9 1.1 3.6 1.8l16.1-8c-.6-.4-1.5-.8-3-1.3l-13.8-5.1c-.5-.2-.6-.2-1-.2s-.4 0-.8.2l-.2.1-15.3 7.2z"/></svg>