<svg xmlns="http://www.w3.org/2000/svg" width="48" height="48"><path d="M23.3 44.5c-.3 0-.6 0-.9-.1-.3-.1-.5-.2-.7-.4-.2-.2-.4-.4-.5-.6-.2-.3-.2-.6-.2-.9v-15l-6-2.3c-2.4-.9-3.6-1.4-4.3-2.4S10 20.5 10 18v-7.9c0-2.6 0-3.9 1-4.6l.1-.1L14.4 4c.7-.3 1.1-.5 1.6-.5.4 0 .9.1 1.6.4L33 9.8c2.4.9 3.6 1.4 4.3 2.4.7 1.1.7 2.3.7 4.9v9.4c0 1 0 1.6-.3 2.1s-.8.8-1.7 1.4l-2.2 1.4h-.1c-.1 0-.1.1-.2.1 0 0-.1 0-.1.1-.9.4-2.1-.1-4.3-.9l-3.5-1.3v13.2c0 .3-.1.5-.2.8-.1.2-.3.5-.5.6-.2.2-.5.3-.7.4-.3.1-.6.1-.9.1zM22 28v14.6c0 .1 0 .2.1.3.1.1.1.2.3.3.1.1.3.2.4.2.3.1.7.1 1.1 0 .2-.1.3-.1.4-.2l.3-.3c.1-.1.1-.2.1-.3V29L22 28zM12.1 6.2c-.2 0-.4 0-.6.1-.5.4-.5 1.6-.5 3.8V18c0 2.3 0 3.5.6 4.3.6.8 1.6 1.2 3.8 2.1l14.1 5.4c1.9.7 3 1.2 3.6.9l.2-.1c.5-.4.5-1.6.5-3.7V19c0-2.3 0-3.5-.6-4.3-.6-.8-1.6-1.2-3.8-2.1L15.3 7.1c-1.5-.5-2.5-.9-3.2-.9zm1.5-.8c.6.2 1.3.4 2.1.8l14.1 5.4c2.4.9 3.6 1.4 4.3 2.4.7 1.1.7 2.3.7 4.9v7.9c0 1.2 0 2.1-.1 2.8l.8-.5c.8-.5 1.2-.7 1.3-1 .2-.3.2-.7.2-1.7V17c0-2.3 0-3.5-.6-4.3-.6-.8-1.6-1.2-3.8-2.1L17.2 4.9c-.6-.2-1-.4-1.2-.4-.3 0-.5.1-1.2.4l-1.2.5zm29.9 23.1c-.1 0-.3 0-.4-.1l-2-2c-.2-.2-.2-.5 0-.7s.5-.2.7 0l2 2c.2.2.2.5 0 .7 0 .1-.2.1-.3.1zm-2-7c-.1 0-.3 0-.4-.1-.2-.2-.2-.5 0-.7l2-2c.2-.2.5-.2.7 0s.2.5 0 .7l-2 2c0 .1-.2.1-.3.1zm-37-3c-.1 0-.3 0-.4-.1-.2-.2-.2-.5 0-.7l2-2c.2-.2.5-.2.7 0s.2.5 0 .7l-2 2c0 .1-.2.1-.3.1zm2-7c-.1 0-.3 0-.4-.1l-2-2c-.1-.2-.1-.6 0-.8s.5-.2.7 0l2 2c.2.2.2.5 0 .7 0 .2-.2.2-.3.2z"/></svg>