<svg width="24" height="25" fill="none" xmlns="http://www.w3.org/2000/svg"><path d="M3 11.64c0-1.047 0-1.571.237-2.013.236-.443.672-.733 1.544-1.314l5-3.334c1.076-.717 1.613-1.075 2.219-1.075.606 0 1.143.358 2.219 1.075l5 3.334c.872.58 1.308.871 1.544 1.314.237.442.237.966.237 2.014V17.5c0 1.886 0 2.828-.586 3.414-.586.586-1.528.586-3.414.586v0c-.943 0-1.414 0-1.707-.293C15 20.914 15 20.443 15 19.5v-2c0-.943 0-1.414-.293-1.707-.293-.293-.764-.293-1.707-.293h-2c-.943 0-1.414 0-1.707.293C9 16.086 9 16.557 9 17.5v2c0 .943 0 1.414-.293 1.707-.293.293-.764.293-1.707.293v0c-1.886 0-2.828 0-3.414-.586C3 20.328 3 19.386 3 17.5v-5.86z" stroke="#AB78FF" stroke-linecap="round" stroke-linejoin="round"/></svg>